<svg width="24" height="24" viewBox="0 0 24 24" fill="none" xmlns="http://www.w3.org/2000/svg">
<path opacity="0.5" d="M20 9H18.5C18.2239 9 18 9.22386 18 9.5V12.5C18 13.0523 18.4477 13.5 19 13.5H21.5" stroke="#22202A"/>
<path d="M19 18V18C20.3807 18 21.5 16.8807 21.5 15.5V13.5V12.5814C21.5 12.0439 21.5 11.7751 21.4307 11.5187C21.3614 11.2624 21.226 11.0302 20.9551 10.5659L20.0417 9L19.0507 7.30128C18.5911 6.51339 18.3613 6.11945 18.0095 5.8695C17.9047 5.7951 17.7931 5.73097 17.6761 5.67799C17.2829 5.5 16.8268 5.5 15.9146 5.5V5.5M19 18C19 18.8284 18.3284 19.5 17.5 19.5C16.6716 19.5 16 18.8284 16 18M19 18C19 17.1716 18.3284 16.5 17.5 16.5C16.6716 16.5 16 17.1716 16 18M3 13V15C3 16.6569 4.34315 18 6 18H7.5M3 13V7C3 5.61929 4.11929 4.5 5.5 4.5H14.5C15.1531 4.5 15.7087 4.9174 15.9146 5.5M3 13H14.5C15.3284 13 16 12.3284 16 11.5V6C16 5.82468 15.9699 5.65639 15.9146 5.5M16 18H10.5M10.5 18C10.5 18.8284 9.82843 19.5 9 19.5C8.17157 19.5 7.5 18.8284 7.5 18M10.5 18C10.5 17.1716 9.82843 16.5 9 16.5C8.17157 16.5 7.5 17.1716 7.5 18" stroke="#22202A" stroke-linecap="round"/>
<path opacity="0.5" d="M9.28806 6.80866C9.25 6.90054 9.25 7.01703 9.25 7.25V7.726C9.25 7.73731 9.25 7.74297 9.24649 7.74649C9.24297 7.75 9.23731 7.75 9.226 7.75H8.75C8.51703 7.75 8.40054 7.75 8.30866 7.78806C8.18614 7.83881 8.08881 7.93614 8.03806 8.05866C8 8.15054 8 8.26703 8 8.5C8 8.73297 8 8.84946 8.03806 8.94134C8.08881 9.06386 8.18614 9.16119 8.30866 9.21194C8.40054 9.25 8.51703 9.25 8.75 9.25H9.226C9.23731 9.25 9.24297 9.25 9.24649 9.25351C9.25 9.25703 9.25 9.26269 9.25 9.274V9.75C9.25 9.98297 9.25 10.0995 9.28806 10.1913C9.33881 10.3139 9.43614 10.4112 9.55866 10.4619C9.65054 10.5 9.76703 10.5 10 10.5C10.233 10.5 10.3495 10.5 10.4413 10.4619C10.5639 10.4112 10.6612 10.3139 10.7119 10.1913C10.75 10.0995 10.75 9.98297 10.75 9.75V9.274C10.75 9.26269 10.75 9.25703 10.7535 9.25351C10.757 9.25 10.7627 9.25 10.774 9.25H11.25C11.483 9.25 11.5995 9.25 11.6913 9.21194C11.8139 9.16119 11.9112 9.06386 11.9619 8.94134C12 8.84946 12 8.73297 12 8.5C12 8.26703 12 8.15054 11.9619 8.05866C11.9112 7.93614 11.8139 7.83881 11.6913 7.78806C11.5995 7.75 11.483 7.75 11.25 7.75H10.774C10.7627 7.75 10.757 7.75 10.7535 7.74649C10.75 7.74297 10.75 7.73731 10.75 7.726V7.25C10.75 7.01703 10.75 6.90054 10.7119 6.80866C10.6612 6.68614 10.5639 6.58881 10.4413 6.53806C10.3495 6.5 10.233 6.5 10 6.5C9.76703 6.5 9.65054 6.5 9.55866 6.53806C9.43614 6.58881 9.33881 6.68614 9.28806 6.80866Z" stroke="#22202A"/>
</svg>
