<svg width="24" height="24" viewBox="0 0 24 24" fill="none" xmlns="http://www.w3.org/2000/svg">
<path d="M14.3787 5.37876C15.5503 4.2072 17.4498 4.2072 18.6214 5.37877V5.37877C19.7929 6.55034 19.7929 8.44983 18.6213 9.6214L15.8891 12.3536L12.3536 15.8892L9.62136 18.6214C8.44979 19.793 6.5503 19.793 5.37873 18.6214V18.6214C4.20716 17.4498 4.20716 15.5503 5.37873 14.3788L8.11096 11.6465L11.6465 8.11098L14.3787 5.37876Z" stroke="#22202A"/>
<path d="M7.75739 12L10.5858 14.8284" stroke="#22202A" stroke-linecap="round"/>
<path d="M13.4142 9.17157L16.2427 12" stroke="#22202A" stroke-linecap="round"/>
<path opacity="0.5" d="M11.3 12.7L11.307 12.7071L11.3 12.7142L11.2929 12.7071L11.3 12.7Z" stroke="#22202A" stroke-linejoin="round"/>
<path opacity="0.5" d="M12.3606 13.7607L12.3677 13.7678L12.3606 13.7748L12.3536 13.7678L12.3606 13.7607Z" stroke="#22202A" stroke-linejoin="round"/>
<path opacity="0.5" d="M10.2393 11.6394L10.2464 11.6465L10.2393 11.6536L10.2323 11.6465L10.2393 11.6394Z" stroke="#22202A" stroke-linejoin="round"/>
<path opacity="0.5" d="M12.7142 11.2858L12.7213 11.2929L12.7142 11.3L12.7071 11.2929L12.7142 11.2858Z" stroke="#22202A" stroke-linejoin="round"/>
<path opacity="0.5" d="M13.7748 12.3464L13.7819 12.3535L13.7748 12.3606L13.7678 12.3535L13.7748 12.3464Z" stroke="#22202A" stroke-linejoin="round"/>
<path opacity="0.5" d="M11.6535 10.2252L11.6606 10.2322L11.6535 10.2393L11.6465 10.2322L11.6535 10.2252Z" stroke="#22202A" stroke-linejoin="round"/>
</svg>
