<svg width="24" height="24" viewBox="0 0 24 24" fill="none" xmlns="http://www.w3.org/2000/svg">
<path opacity="0.5" d="M12 21.5V20" stroke="#22202A" stroke-linecap="round"/>
<path opacity="0.5" d="M6 15C8.08645 15.51 9.41355 15.51 11.5 15C12.9445 14.6469 13.5155 13.4127 15 13.5C16.3076 13.5769 17 15 18 15" stroke="#22202A" stroke-linecap="round"/>
<path d="M15 18.5V18.5C15.9319 18.5 16.3978 18.5 16.7654 18.3478C17.2554 18.1448 17.6448 17.7554 17.8478 17.2654C18 16.8978 18 16.4319 18 15.5V6.70156C18 6.04901 18 5.72274 17.9246 5.45594C17.7355 4.78716 17.2128 4.26448 16.5441 4.07542C16.2773 4 15.951 4 15.2984 4H14.8891C14.3271 4 13.7956 3.74454 13.4446 3.30571V3.30571C12.704 2.37998 11.296 2.37998 10.5554 3.30571V3.30571C10.2044 3.74454 9.67285 4 9.11087 4H8.70156C8.04901 4 7.72274 4 7.45594 4.07542C6.78716 4.26448 6.26448 4.78716 6.07542 5.45594C6 5.72274 6 6.04902 6 6.70156V15.5C6 16.4319 6 16.8978 6.15224 17.2654C6.35523 17.7554 6.74458 18.1448 7.23463 18.3478C7.60218 18.5 8.06812 18.5 9 18.5V18.5M15 18.5V19.25C15 19.5351 14.9989 19.8346 14.6913 19.9619C14.5995 20 14.483 20 14.25 20H9.75C9.51703 20 9.40054 20 9.30866 19.9619C9.00114 19.8346 9 19.5351 9 19.25V18.5M15 18.5H9" stroke="#22202A"/>
</svg>
