<svg width="24" height="24" viewBox="0 0 24 24" fill="none" xmlns="http://www.w3.org/2000/svg">
<path d="M14.7386 6.23236C14.5982 5.60571 14.7868 4.9032 15.2962 4.39378C16.066 3.62403 17.2766 3.58662 18.0002 4.31023C18.2768 4.58681 18.4422 4.93455 18.498 5.30162C18.518 5.43341 18.624 5.53932 18.7557 5.55936C19.1228 5.61518 19.4706 5.78058 19.7471 6.05717C20.4708 6.78077 20.4333 7.99138 19.6636 8.76113C19.1542 9.27055 18.4517 9.45922 17.825 9.31882C17.2861 9.19808 16.6431 9.16126 16.2525 9.55178L13.0571 12.7472L12.7471 13.0572L9.55172 16.2526C9.1612 16.6431 9.19802 17.2861 9.31876 17.8251C9.45916 18.4517 9.27049 19.1542 8.76106 19.6636C7.99132 20.4334 6.78071 20.4708 6.05711 19.7472C5.78052 19.4706 5.61512 19.1229 5.5593 18.7558C5.53926 18.624 5.43335 18.5181 5.30156 18.4981C4.93449 18.4422 4.58675 18.2768 4.31017 18.0002C3.58656 17.2766 3.62397 16.066 4.39372 15.2963C4.90314 14.7869 5.60565 14.5982 6.2323 14.7386C6.77122 14.8593 7.41426 14.8962 7.80478 14.5056L11.0002 11.3102L11.3102 11.0002L14.5056 7.80484C14.8961 7.41432 14.8593 6.77128 14.7386 6.23236Z" stroke="#22202A" stroke-linecap="square"/>
</svg>
