<svg width="24" height="24" viewBox="0 0 24 24" fill="none" xmlns="http://www.w3.org/2000/svg">
<path d="M4.84383 13.8067L12.6566 4.82905C13.951 3.34159 16.2062 3.18512 17.6937 4.47957C19.1811 5.77403 19.3376 8.02922 18.0431 9.51668L16.8721 10.8623C16.2939 10.6286 15.662 10.5 15 10.5C12.2386 10.5 10 12.7386 10 15.5M4.84383 13.8067C3.54938 15.2942 3.70585 17.5494 5.19331 18.8438C7.03697 20.4482 9.25246 19.6181 10.6656 17.9943C10.2422 17.2601 10 16.4083 10 15.5M4.84383 13.8067L9.14083 8.86899M10 15.5C10 14.0947 10.5798 12.8247 11.5132 11.9164" stroke="#22202A"/>
<path opacity="0.5" d="M9.14081 8.86902C9.92668 10.2505 10.6264 11.1856 11.5132 11.9164" stroke="#22202A"/>
<path d="M15.9603 5.48571C14.6719 5.15332 13.8907 6.05109 13.5 6.49997" stroke="#22202A" stroke-linecap="round"/>
<path d="M20 15.5C20 18.2614 17.7614 20.5 15 20.5C12.2386 20.5 10 18.2614 10 15.5C10 12.7386 12.2386 10.5 15 10.5C17.7614 10.5 20 12.7386 20 15.5Z" stroke="#22202A"/>
<path opacity="0.5" d="M11.6193 16.4059L18.3807 14.5942" stroke="#22202A" stroke-linecap="round"/>
</svg>
