<svg width="24" height="24" viewBox="0 0 24 24" fill="none" xmlns="http://www.w3.org/2000/svg">
<path opacity="0.5" d="M8.70509 20.5C8.56985 17.8517 9.84478 16.1771 12.0006 15.3505C13.423 14.805 15.3154 13.9511 15.3056 12.0053C15.2994 10.7723 14.5203 9.97779 13.5907 9.41785M8.70509 3.5C8.60308 5.41723 9.24249 6.80345 10.4076 7.7501" stroke="#22202A" stroke-miterlimit="10" stroke-linecap="round"/>
<path d="M15.295 20.5C15.393 18.5807 14.7503 17.1729 13.5685 16.2285M15.295 3.5C15.4368 6.16608 14.145 7.80533 11.9995 8.66361C10.5911 9.22702 8.70418 10.0836 8.6945 12.0053C8.6882 13.2545 9.46601 14.0538 10.4001 14.6102" stroke="#22202A" stroke-miterlimit="10" stroke-linecap="round"/>
<path d="M10 19.5H14" stroke="#22202A" stroke-linecap="round"/>
<path d="M11 6H13" stroke="#22202A" stroke-linecap="round"/>
<path d="M10 4.5H14" stroke="#22202A" stroke-linecap="round"/>
<path d="M10.1111 12.0834H13.8889M11.0555 10.6667H12.9444M11.0555 13.5H12.9444" stroke="#22202A" stroke-linecap="round"/>
<path d="M11 18H13" stroke="#22202A" stroke-linecap="round"/>
</svg>
