<svg width="24" height="24" viewBox="0 0 24 24" fill="none" xmlns="http://www.w3.org/2000/svg">
<path opacity="0.5" d="M8.32434 4.31083C8.32434 4.13481 8.32434 4.04679 8.34626 3.97523C8.39488 3.81646 8.51916 3.69218 8.67793 3.64356C8.74949 3.62164 8.83751 3.62164 9.01353 3.62164H14.9865C15.1625 3.62164 15.2505 3.62164 15.3221 3.64356C15.4809 3.69218 15.6052 3.81646 15.6538 3.97523C15.6757 4.04679 15.6757 4.13481 15.6757 4.31083V4.31083C15.6757 4.48685 15.6757 4.57487 15.6538 4.64643C15.6052 4.8052 15.4809 4.92948 15.3221 4.9781C15.2505 5.00002 15.1625 5.00002 14.9865 5.00002H9.01353C8.83751 5.00002 8.74949 5.00002 8.67793 4.9781C8.51916 4.92948 8.39488 4.8052 8.34626 4.64643C8.32434 4.57487 8.32434 4.48685 8.32434 4.31083V4.31083Z" stroke="#22202A"/>
<path opacity="0.5" d="M11.1101 11.3858C11.0625 11.5007 11.0625 11.6463 11.0625 11.9375V12.5325C11.0625 12.5466 11.0625 12.5537 11.0581 12.5581C11.0537 12.5625 11.0466 12.5625 11.0325 12.5625H10.4375C10.1463 12.5625 10.0007 12.5625 9.88582 12.6101C9.73268 12.6735 9.61101 12.7952 9.54758 12.9483C9.5 13.0632 9.5 13.2088 9.5 13.5C9.5 13.7912 9.5 13.9368 9.54758 14.0517C9.61101 14.2048 9.73268 14.3265 9.88582 14.3899C10.0007 14.4375 10.1463 14.4375 10.4375 14.4375H11.0325C11.0466 14.4375 11.0537 14.4375 11.0581 14.4419C11.0625 14.4463 11.0625 14.4534 11.0625 14.4675V15.0625C11.0625 15.3537 11.0625 15.4993 11.1101 15.6142C11.1735 15.7673 11.2952 15.889 11.4483 15.9524C11.5632 16 11.7088 16 12 16C12.2912 16 12.4368 16 12.5517 15.9524C12.7048 15.889 12.8265 15.7673 12.8899 15.6142C12.9375 15.4993 12.9375 15.3537 12.9375 15.0625V14.4675C12.9375 14.4534 12.9375 14.4463 12.9419 14.4419C12.9463 14.4375 12.9534 14.4375 12.9675 14.4375H13.5625C13.8537 14.4375 13.9993 14.4375 14.1142 14.3899C14.2673 14.3265 14.389 14.2048 14.4524 14.0517C14.5 13.9368 14.5 13.7912 14.5 13.5C14.5 13.2088 14.5 13.0632 14.4524 12.9483C14.389 12.7952 14.2673 12.6735 14.1142 12.6101C13.9993 12.5625 13.8537 12.5625 13.5625 12.5625H12.9675C12.9534 12.5625 12.9463 12.5625 12.9419 12.5581C12.9375 12.5537 12.9375 12.5466 12.9375 12.5325V11.9375C12.9375 11.6463 12.9375 11.5007 12.8899 11.3858C12.8265 11.2327 12.7048 11.111 12.5517 11.0476C12.4368 11 12.2912 11 12 11C11.7088 11 11.5632 11 11.4483 11.0476C11.2952 11.111 11.1735 11.2327 11.1101 11.3858Z" stroke="#22202A"/>
<path d="M6.48651 9V8C6.48651 6.58579 6.48651 5.87868 6.92585 5.43934C7.36519 5 8.0723 5 9.48651 5H14.5135C15.9278 5 16.6349 5 17.0742 5.43934C17.5135 5.87868 17.5135 6.58579 17.5135 8V9M6.48651 9H17.5135M6.48651 9V18M17.5135 9V18M6.48651 18V18C6.48651 19.0501 6.48651 19.5752 6.73783 19.9528C6.84797 20.1182 6.9899 20.2602 7.15536 20.3703C7.53294 20.6216 8.058 20.6216 9.10813 20.6216H14.8919C15.942 20.6216 16.4671 20.6216 16.8447 20.3703C17.0101 20.2602 17.1521 20.1182 17.2622 19.9528C17.5135 19.5752 17.5135 19.0501 17.5135 18V18M6.48651 18H17.5135" stroke="#22202A"/>
</svg>
