<svg width="24" height="24" viewBox="0 0 24 24" fill="none" xmlns="http://www.w3.org/2000/svg">
<path opacity="0.5" d="M5.5 18.5C5.5 17.9477 5.94772 17.5 6.5 17.5H17.4392C17.9915 17.5 18.4392 17.9477 18.4392 18.5V18.5C18.4392 18.7761 18.2153 19 17.9392 19H6C5.72386 19 5.5 18.7761 5.5 18.5V18.5Z" stroke="#22202A"/>
<path d="M5.93921 12C5.93921 8.68629 8.6255 6 11.9392 6V6C15.2529 6 17.9392 8.68629 17.9392 12V14.75C17.9392 14.9823 17.9392 15.0985 17.92 15.1951C17.8411 15.5918 17.531 15.9019 17.1343 15.9808C17.0377 16 16.9215 16 16.6892 16H7.18921C6.95688 16 6.84072 16 6.74412 15.9808C6.34743 15.9019 6.03733 15.5918 5.95842 15.1951C5.93921 15.0985 5.93921 14.9823 5.93921 14.75V12Z" stroke="#22202A"/>
<path opacity="0.5" d="M16.5 11.5C16.5 10 15 8 13 8" stroke="#22202A" stroke-linecap="round"/>
<path d="M11.99 3.5H12V4H11.99V3.5Z" stroke="#22202A" stroke-linejoin="round"/>
<path d="M3.5 12.01L3.5 12L4 12L4 12.01L3.5 12.01Z" stroke="#22202A" stroke-linejoin="round"/>
<path d="M20 12.01L20 12L20.5 12L20.5 12.01L20 12.01Z" stroke="#22202A" stroke-linejoin="round"/>
<path d="M18 6L18.0071 6.00707L17.6535 6.36062L17.6464 6.35355L18 6Z" stroke="#22202A" stroke-linejoin="round"/>
<path d="M6 6L5.99293 6.00707L6.34648 6.36062L6.35355 6.35355L6 6Z" stroke="#22202A" stroke-linejoin="round"/>
</svg>
