<svg width="24" height="24" viewBox="0 0 24 24" fill="none" xmlns="http://www.w3.org/2000/svg">
<path opacity="0.5" d="M5.5 18.5C5.5 17.9477 5.94772 17.5 6.5 17.5H17.5C18.0523 17.5 18.5 17.9477 18.5 18.5V18.5C18.5 18.7761 18.2761 19 18 19H6C5.72386 19 5.5 18.7761 5.5 18.5V18.5Z" stroke="#22202A"/>
<path d="M5.93921 12C5.93921 8.68629 8.6255 6 11.9392 6V6C15.2529 6 17.9392 8.68629 17.9392 12V14.75C17.9392 14.9823 17.9392 15.0985 17.92 15.1951C17.8411 15.5918 17.531 15.9019 17.1343 15.9808C17.0377 16 16.9215 16 16.6892 16H7.18921C6.95688 16 6.84072 16 6.74412 15.9808C6.34743 15.9019 6.03733 15.5918 5.95842 15.1951C5.93921 15.0985 5.93921 14.9823 5.93921 14.75V12Z" stroke="#22202A"/>
<path opacity="0.5" d="M11.1101 9.38582C11.0625 9.50068 11.0625 9.64629 11.0625 9.9375V10.5325C11.0625 10.5466 11.0625 10.5537 11.0581 10.5581C11.0537 10.5625 11.0466 10.5625 11.0325 10.5625H10.4375C10.1463 10.5625 10.0007 10.5625 9.88582 10.6101C9.73268 10.6735 9.61101 10.7952 9.54758 10.9483C9.5 11.0632 9.5 11.2088 9.5 11.5C9.5 11.7912 9.5 11.9368 9.54758 12.0517C9.61101 12.2048 9.73268 12.3265 9.88582 12.3899C10.0007 12.4375 10.1463 12.4375 10.4375 12.4375H11.0325C11.0466 12.4375 11.0537 12.4375 11.0581 12.4419C11.0625 12.4463 11.0625 12.4534 11.0625 12.4675V13.0625C11.0625 13.3537 11.0625 13.4993 11.1101 13.6142C11.1735 13.7673 11.2952 13.889 11.4483 13.9524C11.5632 14 11.7088 14 12 14C12.2912 14 12.4368 14 12.5517 13.9524C12.7048 13.889 12.8265 13.7673 12.8899 13.6142C12.9375 13.4993 12.9375 13.3537 12.9375 13.0625V12.4675C12.9375 12.4534 12.9375 12.4463 12.9419 12.4419C12.9463 12.4375 12.9534 12.4375 12.9675 12.4375H13.5625C13.8537 12.4375 13.9993 12.4375 14.1142 12.3899C14.2673 12.3265 14.389 12.2048 14.4524 12.0517C14.5 11.9368 14.5 11.7912 14.5 11.5C14.5 11.2088 14.5 11.0632 14.4524 10.9483C14.389 10.7952 14.2673 10.6735 14.1142 10.6101C13.9993 10.5625 13.8537 10.5625 13.5625 10.5625H12.9675C12.9534 10.5625 12.9463 10.5625 12.9419 10.5581C12.9375 10.5537 12.9375 10.5466 12.9375 10.5325V9.9375C12.9375 9.64629 12.9375 9.50068 12.8899 9.38582C12.8265 9.23268 12.7048 9.11101 12.5517 9.04758C12.4368 9 12.2912 9 12 9C11.7088 9 11.5632 9 11.4483 9.04758C11.2952 9.11101 11.1735 9.23268 11.1101 9.38582Z" stroke="#22202A"/>
<path d="M11.99 3.5H12V4H11.99V3.5Z" stroke="#22202A" stroke-linejoin="round"/>
<path d="M3.5 12.01L3.5 12L4 12L4 12.01L3.5 12.01Z" stroke="#22202A" stroke-linejoin="round"/>
<path d="M20 12.01L20 12L20.5 12L20.5 12.01L20 12.01Z" stroke="#22202A" stroke-linejoin="round"/>
<path d="M18 6L18.0071 6.00707L17.6535 6.36062L17.6464 6.35355L18 6Z" stroke="#22202A" stroke-linejoin="round"/>
<path d="M6 6L5.99293 6.00707L6.34648 6.36062L6.35355 6.35355L6 6Z" stroke="#22202A" stroke-linejoin="round"/>
</svg>
