<svg width="24" height="24" viewBox="0 0 24 24" fill="none" xmlns="http://www.w3.org/2000/svg">
<path opacity="0.5" d="M16 13.6118C14.5 14.6118 13.8324 12.3625 11.5 14.1118C9.5 15.6118 8.5 13.6118 8 13.6118" stroke="#22202A" stroke-linecap="round"/>
<path opacity="0.5" d="M13.5 15H13.51V15.01H13.5V15Z" stroke="#22202A" stroke-linejoin="round"/>
<path opacity="0.5" d="M12.49 16.99H12.5V17H12.49V16.99Z" stroke="#22202A" stroke-linejoin="round"/>
<path opacity="0.5" d="M7.49 17.99H7.5V18H7.49V17.99Z" stroke="#22202A" stroke-linejoin="round"/>
<path opacity="0.5" d="M14 18H14.01V18.01H14V18Z" stroke="#22202A" stroke-linejoin="round"/>
<path opacity="0.5" d="M15.5 16.49H15.51V16.5H15.5V16.49Z" stroke="#22202A" stroke-linejoin="round"/>
<path opacity="0.5" d="M9.5 17.49H9.51V17.5H9.5V17.49Z" stroke="#22202A" stroke-linejoin="round"/>
<path opacity="0.5" d="M8.5 16H8.51V16.01H8.5V16Z" stroke="#22202A" stroke-linejoin="round"/>
<path d="M18.9875 17.7908L13.9551 9.72911C13.6577 9.25263 13.5 8.70222 13.5 8.14052V5.57029C13.5 5.5235 13.5031 5.47705 13.5118 5.43107C13.5493 5.23294 13.6822 4.66555 14 4.50002C14.287 4.35055 9.65132 4.35126 10 4.50002C10.3369 4.64375 10.4604 5.25006 10.4915 5.4417C10.4978 5.4806 10.5 5.51977 10.5 5.55918V8.14052C10.5 8.70222 10.3423 9.25263 10.0449 9.72911L5.01251 17.7908C4.7005 18.2907 4.765 18.901 5.32534 19.0833C8.00397 19.9547 15.996 19.9547 18.6747 19.0833C19.235 18.901 19.2995 18.2907 18.9875 17.7908Z" stroke="#22202A" stroke-linecap="round"/>
</svg>
