<svg width="24" height="24" viewBox="0 0 24 24" fill="none" xmlns="http://www.w3.org/2000/svg">
<path d="M12 20.8955C7 19 3 14.627 3 9.33876C3 6.38764 5.241 4 8.004 4C9.642 4 11.091 4.84045 12 6.13933C12.909 4.84045 14.367 4 15.996 4C18.759 4 21 6.38764 21 9.33876C21 13.8113 17 19 12 20.8955Z" stroke="#22202A" stroke-linecap="round" stroke-linejoin="round"/>
<path opacity="0.5" d="M20.5 12H18.1036C18.0372 12 17.9737 11.9737 17.9268 11.9268L16.7453 10.7453C16.6246 10.6246 16.4212 10.6576 16.3449 10.8102L15.1551 13.1898C15.0788 13.3424 14.8754 13.3754 14.7547 13.2547L13.7087 12.2087C13.5994 12.0994 13.4183 12.1144 13.3285 12.2401L11.3223 15.0487C11.1972 15.224 10.9237 15.1695 10.8753 14.9596L9.64626 9.63378C9.59477 9.41066 9.29533 9.36841 9.18412 9.56858L7.18723 13.163C7.09926 13.3213 6.87736 13.3365 6.76869 13.1916L5.67295 11.7306C5.58167 11.6089 5.40375 11.5962 5.29617 11.7038L4.57322 12.4268C4.52634 12.4737 4.46275 12.5 4.39645 12.5H3.5" stroke="#22202A" stroke-linecap="round"/>
</svg>
