<svg width="24" height="24" viewBox="0 0 24 24" fill="none" xmlns="http://www.w3.org/2000/svg">
<path opacity="0.5" d="M13 9.02071L15.5 7.57733C15.6547 7.48802 15.8274 7.44336 16 7.44336M13 14.5566L15.5 16C15.6547 16.0893 15.8274 16.134 16 16.134M21 9L19.8044 9.69556M21 14.5L19.8276 13.8276M19.8044 9.69556C19.7192 9.51165 19.5786 9.35476 19.3971 9.24998L16.5 7.57733C16.3453 7.48802 16.1727 7.44336 16 7.44336M19.8044 9.69556C19.8645 9.82521 19.8971 9.96829 19.8971 10.116V13.4613C19.8971 13.5887 19.8729 13.7127 19.8276 13.8276M19.8276 13.8276C19.746 14.0348 19.5962 14.2124 19.3971 14.3273L16.5 16C16.3453 16.0893 16.1727 16.134 16 16.134M16 5.5V7.44336M16 18V16.134" stroke="#22202A" stroke-linecap="round"/>
<path opacity="0.5" d="M10.8971 9.02071L8.39709 7.57733C8.27317 7.50579 8.13773 7.4629 8 7.44866M10.8971 14.5566L8.39709 16C8.27317 16.0715 8.13773 16.1144 8 16.1287M3 9L4.12745 9.62745M3 14.5L4.1009 13.8991M4.12745 9.62745C4.21394 9.47298 4.34135 9.34157 4.49998 9.24998L7.39709 7.57733C7.58257 7.47025 7.79385 7.42736 8 7.44866M4.12745 9.62745C4.04524 9.77426 3.99998 9.94191 3.99998 10.116V13.4613C3.99998 13.6156 4.03555 13.7649 4.1009 13.8991M4.1009 13.8991C4.18682 14.0755 4.32424 14.2259 4.49998 14.3273L7.39709 16C7.58257 16.1071 7.79385 16.15 8 16.1287M8 5.5V7.44866M8 18V16.1287" stroke="#22202A" stroke-linecap="round"/>
<path opacity="0.5" d="M12 10V13.5" stroke="#22202A" stroke-linecap="round"/>
<path d="M9 4.5C9 5.05228 8.55228 5.5 8 5.5C7.44772 5.5 7 5.05228 7 4.5C7 3.94772 7.44772 3.5 8 3.5C8.55228 3.5 9 3.94772 9 4.5Z" stroke="#22202A"/>
<path d="M9 19C9 19.5523 8.55228 20 8 20C7.44772 20 7 19.5523 7 19C7 18.4477 7.44772 18 8 18C8.55228 18 9 18.4477 9 19Z" stroke="#22202A"/>
<path d="M17 4.5C17 5.05228 16.5523 5.5 16 5.5C15.4477 5.5 15 5.05228 15 4.5C15 3.94772 15.4477 3.5 16 3.5C16.5523 3.5 17 3.94772 17 4.5Z" stroke="#22202A"/>
<path d="M17 19C17 19.5523 16.5523 20 16 20C15.4477 20 15 19.5523 15 19C15 18.4477 15.4477 18 16 18C16.5523 18 17 18.4477 17 19Z" stroke="#22202A"/>
</svg>
