<svg width="24" height="24" viewBox="0 0 24 24" fill="none" xmlns="http://www.w3.org/2000/svg">
<path d="M21.5 12C21.5 17.5228 17.5228 21.5 12 21.5C6.47715 21.5 2.5 17.5228 2.5 12C2.5 6.47715 6.47715 2.5 12 2.5C17.5228 2.5 21.5 6.47715 21.5 12Z" stroke="#22202A"/>
<path opacity="0.5" d="M16.5 7.50002V16.5C16.5 17.7251 14 17.7303 14 16.5L14 13.8C14 13.6343 13.8657 13.5 13.7 13.5L10.3 13.5C10.1343 13.5 10 13.6343 10 13.8V16.5C10 17.7545 7.50001 17.6724 7.50001 16.5L7.50001 7.50002C7.50001 6.27415 10 6.27304 10 7.50002L10 10.2C10 10.3657 10.1343 10.5 10.3 10.5L13.7 10.5C13.8657 10.5 14 10.3657 14 10.2V7.50002C14 6.27394 16.5 6.27392 16.5 7.50002Z" stroke="#22202A"/>
</svg>
