<svg width="24" height="24" viewBox="0 0 24 24" fill="none" xmlns="http://www.w3.org/2000/svg">
<path opacity="0.5" d="M11.9749 14.7604L11.2678 14.0533" stroke="#22202A" stroke-linecap="round"/>
<path opacity="0.5" d="M13.0355 13.6998L12.3284 12.9927" stroke="#22202A" stroke-linecap="round"/>
<path opacity="0.5" d="M14.0962 12.6391L13.3891 11.932" stroke="#22202A" stroke-linecap="round"/>
<path opacity="0.5" d="M12 8.5L15.301 11.8011" stroke="#22202A" stroke-linecap="round"/>
<path d="M4.82843 19.0784L7.73224 16.1746" stroke="#22202A" stroke-linecap="round"/>
<path d="M17.2782 6.6287L19.046 8.39646M17.2782 6.6287L15.5104 4.86093M17.2782 6.6287L19.046 4.86093M14.8033 4.15382C15.0795 4.42996 15.5104 4.86093 15.5104 4.86093M19.7531 9.10357C19.4769 8.82743 19.046 8.39646 19.046 8.39646M19.046 8.39646L15.5104 11.932L11.6214 15.8211C11.2308 16.2116 10.5977 16.2116 10.2071 15.8211V15.8211M15.5104 4.86093L11.9749 8.39646L8.08582 12.2856C7.69529 12.6761 7.69529 13.3092 8.08582 13.6998V13.6998M10.2071 15.8211L9.85358 16.1746C9.2678 16.7604 8.31805 16.7604 7.73226 16.1746V16.1746V16.1746C7.14648 15.5889 7.14648 14.6391 7.73226 14.0533L8.08582 13.6998M10.2071 15.8211L8.08582 13.6998M19.046 4.86093L18.3583 4.17324C18.3457 4.16064 18.3375 4.14428 18.3351 4.12663C18.333 4.11111 18.3518 4.10176 18.3628 4.11284L19.794 5.54405C19.8051 5.55513 19.7958 5.57394 19.7803 5.57179C19.7626 5.56936 19.7462 5.56122 19.7337 5.54863L19.046 4.86093Z" stroke="#22202A" stroke-linecap="round"/>
</svg>
