<svg width="24" height="24" viewBox="0 0 24 24" fill="none" xmlns="http://www.w3.org/2000/svg">
<path d="M4.50002 8.50004C6.32775 0.704089 17.6816 0.704087 19.5 8.50003C20.5138 12.8454 15 21.5 12 21.5C9.00004 21.5 3.48535 12.8491 4.50002 8.50004Z" stroke="#22202A"/>
<path opacity="0.5" d="M16.5 10C16.5 12.4853 14.4853 14.5 12 14.5C9.51472 14.5 7.5 12.4853 7.5 10C7.5 7.51472 9.51472 5.5 12 5.5C14.4853 5.5 16.5 7.51472 16.5 10Z" stroke="#22202A"/>
<path opacity="0.5" d="M11.1101 7.88582C11.0625 8.00068 11.0625 8.14629 11.0625 8.4375V9.0325C11.0625 9.04664 11.0625 9.05371 11.0581 9.05811C11.0537 9.0625 11.0466 9.0625 11.0325 9.0625H10.4375C10.1463 9.0625 10.0007 9.0625 9.88582 9.11008C9.73268 9.17351 9.61101 9.29518 9.54758 9.44832C9.5 9.56318 9.5 9.70879 9.5 10C9.5 10.2912 9.5 10.4368 9.54758 10.5517C9.61101 10.7048 9.73268 10.8265 9.88582 10.8899C10.0007 10.9375 10.1463 10.9375 10.4375 10.9375H11.0325C11.0466 10.9375 11.0537 10.9375 11.0581 10.9419C11.0625 10.9463 11.0625 10.9534 11.0625 10.9675V11.5625C11.0625 11.8537 11.0625 11.9993 11.1101 12.1142C11.1735 12.2673 11.2952 12.389 11.4483 12.4524C11.5632 12.5 11.7088 12.5 12 12.5C12.2912 12.5 12.4368 12.5 12.5517 12.4524C12.7048 12.389 12.8265 12.2673 12.8899 12.1142C12.9375 11.9993 12.9375 11.8537 12.9375 11.5625V10.9675C12.9375 10.9534 12.9375 10.9463 12.9419 10.9419C12.9463 10.9375 12.9534 10.9375 12.9675 10.9375H13.5625C13.8537 10.9375 13.9993 10.9375 14.1142 10.8899C14.2673 10.8265 14.389 10.7048 14.4524 10.5517C14.5 10.4368 14.5 10.2912 14.5 10C14.5 9.70879 14.5 9.56318 14.4524 9.44832C14.389 9.29518 14.2673 9.17351 14.1142 9.11008C13.9993 9.0625 13.8537 9.0625 13.5625 9.0625H12.9675C12.9534 9.0625 12.9463 9.0625 12.9419 9.05811C12.9375 9.05371 12.9375 9.04664 12.9375 9.0325V8.4375C12.9375 8.14629 12.9375 8.00068 12.8899 7.88582C12.8265 7.73268 12.7048 7.61101 12.5517 7.54758C12.4368 7.5 12.2912 7.5 12 7.5C11.7088 7.5 11.5632 7.5 11.4483 7.54758C11.2952 7.61101 11.1735 7.73268 11.1101 7.88582Z" stroke="#22202A"/>
</svg>
