<svg width="24" height="24" viewBox="0 0 24 24" fill="none" xmlns="http://www.w3.org/2000/svg">
<path opacity="0.5" d="M5.66 10.8966C5.21273 8.25604 5.54724 4.57077 8.27 3.21655C9.43442 2.68989 10.7064 2.44444 11.9832 2.50002C15.8652 2.66904 19.7119 5.70097 17.56 9.85655L17.4903 10.0658M9.5 19C9.96518 19.6706 10.2383 20.4555 10.29 21.27M15.5473 11.15C15.4823 10.9348 15.4823 10.7052 15.5473 10.49C15.6307 10.3028 15.7617 10.1407 15.9273 10.02C16.0783 9.90762 16.2525 9.83046 16.4372 9.7942C16.6219 9.75794 16.8123 9.76352 16.9946 9.81052C17.1768 9.85752 17.3462 9.94475 17.4903 10.0658M17.4903 10.0658C17.6344 10.1868 17.7496 10.3386 17.8273 10.51C17.9412 10.7754 18 11.0612 18 11.35C18 11.6388 17.9412 11.9246 17.8273 12.19C17.7073 12.43 17.5273 12.62 17.3873 12.85C17.1573 13.23 17.0773 13.69 16.8673 14.09C16.8002 14.2401 16.6885 14.3658 16.5473 14.45C16.4269 14.5108 16.2892 14.5284 16.1573 14.5M16.1573 14.5C15.9851 14.4678 15.8282 14.3799 15.7108 14.2498C15.5933 14.1197 15.5219 13.9547 15.5073 13.78M16.1573 14.5C16.1573 14.5 16.06 14.6703 16.06 14.93C16.0562 15.8715 16.3897 16.7832 17 17.5" stroke="#22202A" stroke-miterlimit="10" stroke-linecap="round"/>
<path d="M14.24 10.91C13.6866 11.6873 12.8583 12.2758 11.9328 12.5176M14.61 14.75C14.3105 15.2328 13.5903 16 12.9624 16M11.9328 12.5176C11.7772 12.3181 11.5396 12.1773 11.23 12.13C10.3 11.88 9.33 12.02 8.39 11.88C7.49997 11.7475 7.27996 11 6.49997 11C5.99997 11 5.0724 11.3119 5.05 11.56C4.75266 13.8841 5.05208 18.0651 7.79 19C8.64065 19.2905 9.51666 18.9842 10.29 18.6C11.242 18.1818 12.9297 17.3445 13 16.13C12.9984 16.0847 12.9849 16.0414 12.9624 16M11.9328 12.5176C12.1429 12.787 12.2035 13.1633 12.09 13.56C11.9857 14.0999 11.6154 15.2083 12.27 15.52C12.4556 15.6128 12.8406 15.7768 12.9624 16" stroke="#22202A" stroke-miterlimit="10" stroke-linecap="round"/>
<path d="M5.37 12.84C6.94384 13.6734 8.76647 13.9079 10.5 13.5" stroke="#22202A" stroke-miterlimit="10" stroke-linecap="round"/>
<path d="M5.5 14.5C7.07384 15.3334 8.89647 15.5679 10.63 15.16" stroke="#22202A" stroke-miterlimit="10" stroke-linecap="round"/>
<path d="M5.87006 16.533C6.9837 17.1227 8.27339 17.2886 9.50003 17" stroke="#22202A" stroke-miterlimit="10" stroke-linecap="round"/>
</svg>
