<svg width="24" height="24" viewBox="0 0 24 24" fill="none" xmlns="http://www.w3.org/2000/svg">
<path opacity="0.5" d="M18.0782 14.4985C19.7143 14.437 21.5 12.4607 21.5 10C21.5 8.62945 20.9486 7.5 20 7.5C19.3254 7.5 18.9255 8.06211 18.4908 8.49677M18.0782 14.4985V14.4985C18.0303 15.1959 17.5936 15.8066 16.9316 16.0311C15.7441 16.4338 13.7615 17 12 17C10.2385 17 8.25586 16.4338 7.06845 16.0311C6.40644 15.8066 5.96972 15.1959 5.92177 14.4985V14.4985M18.0782 14.4985L18.4908 8.49677M5.50915 8.49677V8.49677C5.50391 8.42045 5.55573 8.35194 5.6306 8.33624L10.9734 7.21537C11.6504 7.07334 12.3496 7.07334 13.0266 7.21537L18.3694 8.33624C18.4443 8.35194 18.4961 8.42045 18.4908 8.49677V8.49677M5.50915 8.49677C5.07449 8.06211 4.67463 7.5 4 7.5C3.05142 7.5 2.5 8.62945 2.5 10C2.5 12.4607 4.28568 14.437 5.92177 14.4985M5.50915 8.49677L5.92177 14.4985" stroke="#22202A"/>
<path d="M8.5 10H15.5" stroke="#22202A" stroke-linecap="round"/>
<path d="M9 12H15" stroke="#22202A" stroke-linecap="round"/>
<path d="M8.5 14H15.5" stroke="#22202A" stroke-linecap="round"/>
</svg>
