<svg width="24" height="24" viewBox="0 0 24 24" fill="none" xmlns="http://www.w3.org/2000/svg">
<path d="M7 20.1C7 19.2163 7.71634 18.5 8.6 18.5H15.4C16.2837 18.5 17 19.2163 17 20.1V20.1C17 20.3209 16.8209 20.5 16.6 20.5H7.4C7.17909 20.5 7 20.3209 7 20.1V20.1Z" stroke="#22202A"/>
<path d="M8.94883 15C8.94883 15 10.3119 16.0216 11.1376 16.1915C11.8733 16.3429 12.636 16.2979 13.3489 16.0611C14.0618 15.8244 14.6998 15.4041 15.1988 14.8426C15.6977 14.2811 16.0401 13.5981 16.1915 12.8624C16.3429 12.1266 16.2979 11.3639 16.0612 10.6511C15.9477 10.3096 15.7922 9.98528 15.5992 9.68521L15.5 9.49995M6.80396 15C6.80396 15 7.53191 16.0562 8.01436 16.4849C8.80164 17.1845 9.7592 17.6646 10.7908 17.8769C11.8224 18.0891 12.8917 18.0261 13.8913 17.6941C14.8908 17.3621 15.7853 16.7729 16.4849 15.9856C17.1846 15.1983 17.6646 14.2407 17.8769 13.2091C18.0891 12.1775 18.0261 11.1082 17.6941 10.1087C17.5199 9.58419 17.2749 9.08861 16.9675 8.63493L16.8939 8.55517M15.5 9.49995C16.1323 9.49995 16.6732 9.10874 16.8939 8.55517M15.5 9.49995C14.9716 9.49995 14.5071 9.22676 14.2399 8.81393M16.8939 8.55517C16.9624 8.38345 17 8.1961 17 7.99995C17 7.61351 16.8539 7.26119 16.6138 6.99526M14.2399 8.81393C14.0881 8.57949 14 8.30001 14 7.99995C14 7.17152 14.6716 6.49995 15.5 6.49995C15.942 6.49995 16.3393 6.69111 16.6138 6.99526M14.2399 8.81393L11.3366 11.0381C11.0574 11.2519 10.6703 11.1824 10.4564 10.9033L9.19719 9.2924C9.09432 9.15812 9.04289 9.09098 9.01011 9.02724C8.85742 8.73034 8.90517 8.36983 9.12989 8.12291C9.17813 8.0699 9.24527 8.01847 9.37954 7.9156L14.3727 4.09045C14.8453 3.7284 15.0816 3.54738 15.3393 3.53961C15.4257 3.537 15.512 3.54843 15.5948 3.57346C15.8417 3.64806 16.0227 3.88435 16.3847 4.35694L17 5.16008C17.2392 5.47238 17.3589 5.62852 17.3987 5.79185C17.4462 5.98637 17.419 6.19163 17.3225 6.36709C17.2415 6.5144 17.0854 6.63402 16.7731 6.87327L16.6138 6.99526" stroke="#22202A"/>
<path d="M6.5 15H10.5" stroke="#22202A" stroke-linecap="round"/>
<path opacity="0.5" d="M16.4632 4.29326C16.2738 4.04591 16.3538 3.71857 16.5947 3.54331C16.9568 3.27974 17.4498 3.3765 17.7157 3.72352L17.9559 4.03709C18.2218 4.38411 18.1868 4.88533 17.8381 5.16639C17.6044 5.35472 17.2727 5.34984 17.0798 5.09803L16.7715 4.69565L16.4632 4.29326Z" stroke="#22202A"/>
<path opacity="0.5" d="M9.43238 11.6873L9.43238 11.6873L10.4564 10.9033L9.19718 9.29242L8.186 10.0607L8.186 10.0607C7.94599 10.2446 7.82598 10.3365 7.7583 10.4462C7.65356 10.616 7.62623 10.8224 7.6832 11.0136C7.72 11.1372 7.81196 11.2572 7.99586 11.4972L7.99586 11.4972C8.17976 11.7372 8.27171 11.8572 8.38142 11.9249C8.55121 12.0296 8.75763 12.057 8.94882 12C9.07236 11.9632 9.19237 11.8712 9.43238 11.6873Z" stroke="#22202A"/>
</svg>
