<svg width="24" height="24" viewBox="0 0 24 24" fill="none" xmlns="http://www.w3.org/2000/svg">
<path opacity="0.5" d="M8.0594 4.13985C8.02022 5.0365 8.31514 5.66243 9.00887 6.69204C11.0957 5.23495 12.9042 5.23495 14.9911 6.69204C15.6848 5.66243 15.9797 5.0365 15.9405 4.13985C14.076 1.8803 9.92394 1.8803 8.0594 4.13985Z" stroke="#22202A" stroke-miterlimit="10"/>
<path d="M8.05942 4.13985C8.02024 5.0365 8.31515 5.66243 9.00888 6.69204C9.95909 8.1023 10.9472 9.49483 12 10.8305M8.05942 4.13985C5.19938 7.35412 7.98651 10.6307 10.0277 13.2092M8.05942 4.13985C8.99169 3.01008 10.4958 2.44519 12 2.44519C13.5041 2.44519 15.0083 3.01008 15.9405 4.13985M15.9405 4.13985C15.9797 5.0365 15.6848 5.66243 14.9911 6.69204C14.0409 8.1023 13.0527 9.49483 12 10.8305M15.9405 4.13985C18.8006 7.35412 16.0135 10.6307 13.9722 13.2092M12 10.8305C11.356 11.6475 10.6985 12.4338 10.0277 13.2092M10.0277 13.2092C9.11758 14.2613 6.58754 17.1147 6.20781 17.5429C6.17832 17.5761 6.17554 17.6219 6.19921 17.6595C6.42651 18.0208 7.57599 19.847 7.99998 20.5C8.02881 20.5462 9.97506 18.1892 12 15.6766M12 15.6766C14.0249 18.1892 15.9711 20.5462 16 20.5C16.3459 19.9673 17.565 18.0337 17.8005 17.6599C17.8242 17.6223 17.8217 17.5762 17.7922 17.5429C17.3996 17.0997 14.7098 14.0618 13.9722 13.2092M12 15.6766C12.6711 14.844 13.3508 13.9942 13.9722 13.2092" stroke="#22202A" stroke-miterlimit="10"/>
</svg>
