<svg width="24" height="24" viewBox="0 0 24 24" fill="none" xmlns="http://www.w3.org/2000/svg">
<path d="M5.5 10.5C5.5 9.11919 8.75 8 12 8C15.25 8 18.5 9.11919 18.5 10.5C18.5 11.9409 16.6545 11.0363 15.6227 10.559C15.5935 10.5455 15.5654 10.5823 15.5852 10.6077C17.5099 13.0668 17.9552 15.5121 15.017 16.9915C15.0068 16.9966 15 17.0054 15.0001 17.0168C15.0017 17.1235 15.0171 17.3001 15.0365 17.5231C15.1459 18.7777 15.3832 21.5 14 21.5C12.7175 21.5 12.8815 19.2525 12.9689 18.0551C12.9847 17.8388 12.998 17.6567 12.9998 17.5284C13 17.5118 12.9866 17.5 12.97 17.5H11.03C11.0134 17.5 11 17.5118 11.0002 17.5284C11.002 17.6567 11.0153 17.8388 11.0311 18.0551C11.1185 19.2525 11.2825 21.5 10 21.5C8.61684 21.5 8.85415 18.7777 8.96351 17.5231C8.98294 17.3001 8.99834 17.1235 8.99987 17.0168C9.00004 17.0054 8.99318 16.9966 8.98304 16.9915C6.04477 15.5121 6.49006 13.0668 8.41481 10.6077C8.43463 10.5823 8.40648 10.5455 8.37728 10.559C7.34545 11.0363 5.5 11.9409 5.5 10.5Z" stroke="#22202A" stroke-linecap="round"/>
<path opacity="0.5" d="M14 4.5C14 5.60457 13.1046 6.5 12 6.5C10.8954 6.5 10 5.60457 10 4.5C10 3.39543 10.8954 2.5 12 2.5C13.1046 2.5 14 3.39543 14 4.5Z" stroke="#22202A"/>
</svg>
