<svg width="24" height="24" viewBox="0 0 24 24" fill="none" xmlns="http://www.w3.org/2000/svg">
<path d="M20.4999 6.30672C20.4992 6.11363 20.3932 5.92687 20.2274 5.82676L16.7662 3.794C16.4567 3.61221 16.0754 3.61462 15.7524 3.77116C13.4025 4.90993 10.6004 4.90886 8.25136 3.76796C7.93198 3.61285 7.55538 3.60841 7.24727 3.78485L3.77248 5.77459C3.60663 5.8747 3.5006 6.06147 3.49997 6.25455C3.47978 12.0469 6.65756 17.5271 11.675 20.4133C11.8726 20.5269 12.1273 20.5269 12.3248 20.4133C17.3264 17.5362 20.5014 12.0807 20.4999 6.30672Z" stroke="#22202A" stroke-miterlimit="10"/>
<g opacity="0.5">
<circle cx="12" cy="11" r="2" stroke="#22202A"/>
<path d="M12 7.5V9M11.5 7.5H12.5" stroke="#22202A" stroke-linecap="round"/>
<path d="M13.5 12.5L14.5 13.5M14.1914 13.8086L14.8027 13.1973" stroke="#22202A" stroke-linecap="round"/>
<path d="M10.5 12.5L9.5 13.5M9.80859 13.8086L9.19727 13.1973" stroke="#22202A" stroke-linecap="round"/>
<path d="M13.5 9.5L14.5 8.5M14.1914 8.19141L14.8027 8.80273" stroke="#22202A" stroke-linecap="round"/>
<path d="M10.5 9.5L9.5 8.5M9.80859 8.19141L9.19727 8.80273" stroke="#22202A" stroke-linecap="round"/>
<path d="M12 13V14.5M11.5 14.5H12.5" stroke="#22202A" stroke-linecap="round"/>
<path d="M14 11H15.5M15.5 10.5V11.5" stroke="#22202A" stroke-linecap="round"/>
<path d="M10 11H8.5M8.5 10.5V11.5" stroke="#22202A" stroke-linecap="round"/>
</g>
</svg>
