<svg width="24" height="24" viewBox="0 0 24 24" fill="none" xmlns="http://www.w3.org/2000/svg">
<path opacity="0.5" d="M16 18C15.5 18 16 18.5 15 19.5C13.8954 20.6046 10.0607 20.5607 9 19.5C8 18.5 8.5 18 8 18" stroke="#22202A" stroke-linecap="round"/>
<path opacity="0.5" d="M17 11C17 11.9273 17.1075 12.8546 17.2228 13.6324M7 11C7 11.9273 6.89251 12.8546 6.77722 13.6324M17.2228 13.6324C17.3562 14.5321 17.5 15.2318 17.5 15.5C17.5 15.9718 15.2738 16.4437 15.0229 16.4953C15.0078 16.4984 14.996 16.5081 14.9891 16.5219L14.5138 17.4724C14.5053 17.4893 14.488 17.5 14.4691 17.5H9.5309C9.51196 17.5 9.49465 17.4893 9.48618 17.4724L9.01093 16.5219C9.00403 16.5081 8.99219 16.4984 8.97708 16.4953C8.7262 16.4437 6.5 15.9718 6.5 15.5C6.5 15.2318 6.64384 14.5321 6.77722 13.6324M17.2228 13.6324L17.5 13C17.5 13 22 3.5 12 3.5C1.99999 3.5 6.49999 13 6.49999 13L6.77722 13.6324" stroke="#22202A" stroke-linecap="round"/>
<path d="M9 12C9 11.4477 9.44772 11 10 11C12.7359 11 9 14.8166 9 12Z" stroke="#22202A"/>
<path d="M15.0016 12C15.0016 11.4477 14.5539 11 14.0016 11C11.2657 11 15.0016 14.8166 15.0016 12Z" stroke="#22202A"/>
<path d="M11.5 15L11.9553 14.0894C11.9737 14.0526 12.0263 14.0526 12.0447 14.0894L12.5 15" stroke="#22202A" stroke-linecap="round"/>
<path d="M11 16.5C11 16.2239 10.7761 16 10.5 16C10.2239 16 10 16.2239 10 16.5H11ZM10 16.5V17H11V16.5H10Z" fill="#22202A"/>
<path d="M12.5 16.5C12.5 16.2239 12.2761 16 12 16C11.7239 16 11.5 16.2239 11.5 16.5H12.5ZM12.5 17V16.5H11.5V17H12.5Z" fill="#22202A"/>
<path d="M14 16.5C14 16.2239 13.7761 16 13.5 16C13.2239 16 13 16.2239 13 16.5H14ZM14 17V16.5H13V17H14Z" fill="#22202A"/>
</svg>
