<svg width="24" height="24" viewBox="0 0 24 24" fill="none" xmlns="http://www.w3.org/2000/svg">
<path opacity="0.5" d="M9.5 5H8.5" stroke="#22202A" stroke-linecap="round"/>
<path opacity="0.5" d="M9.5 7H8.5" stroke="#22202A" stroke-linecap="round"/>
<path opacity="0.5" d="M9.5 9H8.5" stroke="#22202A" stroke-linecap="round"/>
<path opacity="0.5" d="M9.5 11H8.5" stroke="#22202A" stroke-linecap="round"/>
<path d="M12 2.5C10.8954 2.5 10 3.39543 10 4.5V12.9678C8.51828 13.7041 7.5 15.2331 7.5 17C7.5 19.4853 9.51472 21.5 12 21.5C14.4853 21.5 16.5 19.4853 16.5 17C16.5 15.2331 15.4817 13.7041 14 12.9678V4.5C14 3.39543 13.1046 2.5 12 2.5Z" stroke="#22202A"/>
<path opacity="0.5" d="M9.40192 18.5C9.66552 18.9566 10.0448 19.3356 10.5015 19.5989C10.9582 19.8623 11.4763 20.0006 12.0035 20C12.5307 19.9994 13.0484 19.8599 13.5045 19.5955C13.9606 19.3311 14.339 18.9511 14.6016 18.494C14.8641 18.0368 15.0015 17.5185 15 16.9913C14.9984 16.4641 14.858 15.9466 14.5928 15.4909C14.3276 15.0353 13.947 14.6576 13.4894 14.3958C13.0405 14.1391 12.5464 14.0028 12.0302 14C12.0135 13.9999 12 13.9865 12 13.9699V7" stroke="#22202A" stroke-linecap="round"/>
<circle cx="12" cy="17" r="1" stroke="#22202A"/>
</svg>
