<svg width="24" height="24" viewBox="0 0 24 24" fill="none" xmlns="http://www.w3.org/2000/svg">
<circle opacity="0.5" cx="12" cy="12" r="6.25" stroke="#22202A"/>
<path d="M12 5L12 5.5" stroke="#22202A" stroke-linecap="round"/>
<path d="M12 17.5V19.5" stroke="#22202A" stroke-linecap="round"/>
<path d="M7.14645 7.85355C7.34171 8.04882 7.65829 8.04882 7.85355 7.85355C8.04882 7.65829 8.04882 7.34171 7.85355 7.14645L7.14645 7.85355ZM6.64645 7.35355L7.14645 7.85355L7.85355 7.14645L7.35355 6.64645L6.64645 7.35355Z" fill="#22202A"/>
<path d="M15.3964 7.89645C15.2012 8.09171 15.2012 8.40829 15.3964 8.60355C15.5917 8.79882 15.9083 8.79882 16.1036 8.60355L15.3964 7.89645ZM16.6464 6.64645L15.3964 7.89645L16.1036 8.60355L17.3536 7.35355L16.6464 6.64645Z" fill="#22202A"/>
<path d="M16.8536 16.1464C16.6583 15.9512 16.3417 15.9512 16.1464 16.1464C15.9512 16.3417 15.9512 16.6583 16.1464 16.8536L16.8536 16.1464ZM17.3536 16.6464L16.8536 16.1464L16.1464 16.8536L16.6464 17.3536L17.3536 16.6464Z" fill="#22202A"/>
<path d="M4.5 12L5.5 12" stroke="#22202A" stroke-linecap="round"/>
<path d="M17.5 12L19.5 12" stroke="#22202A" stroke-linecap="round"/>
<path d="M8.60355 16.1036C8.79882 15.9083 8.79882 15.5917 8.60355 15.3964C8.40829 15.2012 8.09171 15.2012 7.89645 15.3964L8.60355 16.1036ZM7.35355 17.3536L8.60355 16.1036L7.89645 15.3964L6.64645 16.6464L7.35355 17.3536Z" fill="#22202A"/>
<path d="M12.5 9C12.5 9.55228 12.0523 10 11.5 10C10.9477 10 10.5 9.55228 10.5 9C10.5 8.44772 10.9477 8 11.5 8C12.0523 8 12.5 8.44772 12.5 9Z" stroke="#22202A"/>
<path d="M10.5 13C10.5 13.5523 10.0523 14 9.5 14C8.94772 14 8.5 13.5523 8.5 13C8.5 12.4477 8.94772 12 9.5 12C10.0523 12 10.5 12.4477 10.5 13Z" stroke="#22202A"/>
<path d="M16 14C16 14.5523 15.5523 15 15 15C14.4477 15 14 14.5523 14 14C14 13.4477 14.4477 13 15 13C15.5523 13 16 13.4477 16 14Z" stroke="#22202A"/>
<circle cx="1" cy="1" r="1" transform="matrix(1 0 0 -1 11 4.5)" stroke="#22202A"/>
<path d="M13 20.5C13 19.9477 12.5523 19.5 12 19.5C11.4477 19.5 11 19.9477 11 20.5C11 21.0523 11.4477 21.5 12 21.5C12.5523 21.5 13 21.0523 13 20.5Z" stroke="#22202A"/>
<circle cx="1" cy="1" r="1" transform="matrix(1 0 0 -1 5 7)" stroke="#22202A"/>
<circle cx="1" cy="1" r="1" transform="matrix(1 0 0 -1 17 7)" stroke="#22202A"/>
<circle cx="1" cy="1" r="1" transform="matrix(1 0 0 -1 17 19)" stroke="#22202A"/>
<path d="M4.5 12C4.5 11.4477 4.05228 11 3.5 11C2.94772 11 2.5 11.4477 2.5 12C2.5 12.5523 2.94772 13 3.5 13C4.05228 13 4.5 12.5523 4.5 12Z" stroke="#22202A"/>
<path d="M21.5 12C21.5 11.4477 21.0523 11 20.5 11C19.9477 11 19.5 11.4477 19.5 12C19.5 12.5523 19.9477 13 20.5 13C21.0523 13 21.5 12.5523 21.5 12Z" stroke="#22202A"/>
<circle cx="1" cy="1" r="1" transform="matrix(1 0 0 -1 5 19)" stroke="#22202A"/>
</svg>
