<svg width="24" height="24" viewBox="0 0 24 24" fill="none" xmlns="http://www.w3.org/2000/svg">
<path d="M3.5 9.5C3.5 6.67157 3.5 5.25736 4.37868 4.37868C5.25736 3.5 6.67157 3.5 9.5 3.5H14.5C17.3284 3.5 18.7426 3.5 19.6213 4.37868C20.5 5.25736 20.5 6.67157 20.5 9.5V14.5C20.5 17.3284 20.5 18.7426 19.6213 19.6213C18.7426 20.5 17.3284 20.5 14.5 20.5H9.5C6.67157 20.5 5.25736 20.5 4.37868 19.6213C3.5 18.7426 3.5 17.3284 3.5 14.5V9.5Z" stroke="#22202A"/>
<path opacity="0.5" d="M12 8.5V11M12 11C15.5 11 16.5 12.5794 16.5 10M12 11C8.5 11 7.5 12.5794 7.5 10M16.5 10C16.5 9.1914 16.1931 8.43884 15.6956 7.80962M16.5 10H15.5M7.5 10H8.5M7.5 10C7.5 9.1914 7.80692 8.43884 8.30441 7.80962M12 6V7M12 6C11.189 6 10.3669 6.24138 9.65122 6.65623M12 6C12.811 6 13.6331 6.24138 14.3488 6.65623M13.5 7.5L14.3488 6.65623M15 8.5L15.6956 7.80962M10.5 7.5L9.65122 6.65623M9 8.5L8.30441 7.80962M8.30441 7.80962C8.66709 7.35091 9.13105 6.95775 9.65122 6.65623M14.3488 6.65623C14.869 6.95775 15.3329 7.35091 15.6956 7.80962" stroke="#22202A" stroke-linecap="round"/>
<path opacity="0.5" d="M18.5 16.5C18.5 18 18 18.5 17 18.5" stroke="#22202A" stroke-linecap="round"/>
</svg>
