<svg width="24" height="24" viewBox="0 0 24 24" fill="none" xmlns="http://www.w3.org/2000/svg">
<path d="M18.4098 17.9442V17.9442C19.7905 17.9442 21.0114 16.8296 21.1368 15.4546L21.3184 13.4628M18.4098 17.9442C18.3345 18.7692 17.602 19.438 16.7736 19.438C15.9451 19.438 15.3345 18.7692 15.4098 17.9442M18.4098 17.9442C18.485 17.1192 17.8744 16.4504 17.046 16.4504C16.2176 16.4504 15.485 17.1192 15.4098 17.9442M20.2687 8.98141L19.432 7.28971C19.044 6.50508 18.8499 6.11276 18.5208 5.86385C18.4228 5.78976 18.317 5.72589 18.2047 5.67313C17.8277 5.49587 17.3716 5.49587 16.4595 5.49587V5.49587M20.2687 8.98141L21.0399 10.5409C21.2686 11.0032 21.383 11.2344 21.429 11.4897C21.475 11.7451 21.4506 12.0127 21.4018 12.548L21.3184 13.4628M20.2687 8.98141H18.727C18.4509 8.98141 18.2067 9.20434 18.1816 9.47935L17.9092 12.467C17.8591 13.017 18.2661 13.4628 18.8184 13.4628H21.3184M16.4595 5.49587C16.3065 4.91568 15.7888 4.5 15.1357 4.5H8C8 4.5 5.00003 4.5 4.50004 4.5C3.50004 4.50001 3.50004 5.5 3.50004 5.5M16.4595 5.49587C16.5006 5.65161 16.5154 5.81921 16.4994 5.9938L16 11.4711C15.9248 12.2961 15.1922 12.9649 14.3638 12.9649H3.8638C3.3924 12.9649 3.15669 12.9649 2.99695 13.1107C2.8372 13.2566 2.8158 13.4913 2.77299 13.9608L2.68219 14.9566C2.53174 16.6066 3.75291 17.9442 5.40977 17.9442H6.90977M15.4098 17.9442H9.90977M9.90977 17.9442C9.83454 18.7692 9.10199 19.438 8.27356 19.438C7.44513 19.438 6.83454 18.7692 6.90977 17.9442M9.90977 17.9442C9.985 17.1192 9.37441 16.4504 8.54598 16.4504C7.71755 16.4504 6.985 17.1192 6.90977 17.9442" stroke="#22202A" stroke-linecap="round"/>
<path d="M2.5 11H4.5" stroke="#22202A" stroke-linecap="round"/>
<path d="M2.5 9H5.5" stroke="#22202A" stroke-linecap="round"/>
<path d="M2.5 7H6.5" stroke="#22202A" stroke-linecap="round"/>
<path d="M10.6233 6.80738C10.5768 6.89889 10.5663 7.01489 10.5451 7.2469L10.5019 7.72093C10.5009 7.7322 10.5004 7.73784 10.4965 7.74134C10.4927 7.74484 10.487 7.74484 10.4757 7.74484H9.99971C9.76674 7.74484 9.65026 7.74484 9.55491 7.78274C9.42779 7.83328 9.32162 7.93021 9.25974 8.05222C9.21334 8.14372 9.20276 8.25973 9.18161 8.49174C9.16045 8.72375 9.14987 8.83975 9.17959 8.93126C9.21921 9.05326 9.30771 9.1502 9.42562 9.20074C9.51405 9.23864 9.63053 9.23864 9.8635 9.23864H10.3395C10.3508 9.23864 10.3565 9.23864 10.3597 9.24214C10.3629 9.24564 10.3624 9.25127 10.3613 9.26254L10.3181 9.73657C10.2969 9.96858 10.2864 10.0846 10.3161 10.1761C10.3557 10.2981 10.4442 10.395 10.5621 10.4456C10.6505 10.4835 10.767 10.4835 11 10.4835C11.233 10.4835 11.3495 10.4835 11.4448 10.4456C11.5719 10.395 11.6781 10.2981 11.74 10.1761C11.7864 10.0846 11.7969 9.96858 11.8181 9.73657L11.8613 9.26254C11.8624 9.25127 11.8629 9.24564 11.8667 9.24214C11.8705 9.23864 11.8762 9.23864 11.8875 9.23864H12.3635C12.5965 9.23864 12.713 9.23864 12.8083 9.20074C12.9354 9.1502 13.0416 9.05326 13.1035 8.93126C13.1499 8.83975 13.1605 8.72375 13.1816 8.49174C13.2028 8.25973 13.2133 8.14372 13.1836 8.05222C13.144 7.93021 13.0555 7.83328 12.9376 7.78274C12.8492 7.74484 12.7327 7.74484 12.4997 7.74484H12.0237C12.0124 7.74484 12.0067 7.74484 12.0035 7.74134C12.0004 7.73784 12.0009 7.7322 12.0019 7.72093L12.0451 7.2469C12.0663 7.01489 12.0768 6.89889 12.0471 6.80738C12.0075 6.68538 11.919 6.58844 11.8011 6.5379C11.7127 6.5 11.5962 6.5 11.3632 6.5C11.1302 6.5 11.0138 6.5 10.9184 6.5379C10.7913 6.58844 10.6851 6.68538 10.6233 6.80738Z" stroke="#22202A"/>
</svg>
