<svg width="24" height="24" viewBox="0 0 24 24" fill="none" xmlns="http://www.w3.org/2000/svg">
<path d="M8.46447 12L5.63604 14.8284C4.65973 15.8047 4.65973 17.3877 5.63604 18.364V18.364C6.61235 19.3403 8.19526 19.3403 9.17157 18.364L12 15.5355M8.46447 12L12 15.5355M8.46447 12L12 8.46446M12 15.5355L15.5355 12M12 8.46446L14.8284 5.63604C15.8047 4.65973 17.3876 4.65973 18.364 5.63604V5.63604C19.3403 6.61235 19.3403 8.19527 18.364 9.17158L15.5355 12M12 8.46446L15.5355 12" stroke="#22202A"/>
<path d="M15.9563 12.3885L18.3776 14.8285C19.3475 15.8058 19.3444 17.3835 18.3708 18.3571C17.3918 19.3361 15.8037 19.3331 14.8285 18.3503L12.4149 15.9181C12.1855 15.6869 12.1862 15.3138 12.4165 15.0835L15.1131 12.3869C15.3461 12.1538 15.7242 12.1546 15.9563 12.3885Z" stroke="#22202A"/>
<path d="M9.17154 5.64966L11.5851 8.08187C11.8145 8.31305 11.8138 8.68622 11.5835 8.91652L8.88687 11.6131C8.65385 11.8461 8.27582 11.8454 8.0437 11.6115L5.62244 9.17153C4.65255 8.19414 4.65559 6.61649 5.62923 5.64284C6.6082 4.66388 8.19635 4.66693 9.17154 5.64966Z" stroke="#22202A"/>
<path d="M12 10.49H12.01V10.5H12V10.49Z" stroke="#22202A" stroke-linejoin="round"/>
<path d="M12 12H12.01V12.01H12V12Z" stroke="#22202A" stroke-linejoin="round"/>
<path d="M13.5 12H13.51V12.01H13.5V12Z" stroke="#22202A" stroke-linejoin="round"/>
<path d="M10.5 12H10.51V12.01H10.5V12Z" stroke="#22202A" stroke-linejoin="round"/>
<path d="M12 13.49H12.01V13.5H12V13.49Z" stroke="#22202A" stroke-linejoin="round"/>
</svg>
