<svg width="24" height="24" viewBox="0 0 24 24" fill="none" xmlns="http://www.w3.org/2000/svg">
<path d="M6 8C4.5 8 4.5 10 6 10L8.00052 10C8.5528 10 9 10.4445 9 10.9968V20.5C9 22 11 22 11 20.5C11 19 11 16 12 16C13 16 13 19 13 20.5C13 22 15 22 15 20.5V11C15 10.4477 15.4477 10 16 10H18C19.5 10 19.5 8 18 8H6Z" stroke="#22202A" stroke-linecap="round"/>
<path d="M14 4.5C14 5.60457 13.1046 6.5 12 6.5C10.8954 6.5 10 5.60457 10 4.5C10 3.39543 10.8954 2.5 12 2.5C13.1046 2.5 14 3.39543 14 4.5Z" stroke="#22202A"/>
</svg>
