<svg width="24" height="24" viewBox="0 0 24 24" fill="none" xmlns="http://www.w3.org/2000/svg">
<path d="M14.7386 6.23233C14.5982 5.60568 14.7868 4.90317 15.2962 4.39375C16.066 3.624 17.2766 3.58659 18.0002 4.3102C18.2768 4.58678 18.4422 4.93452 18.498 5.30159C18.518 5.43338 18.624 5.53929 18.7557 5.55933C19.1228 5.61515 19.4706 5.78055 19.7471 6.05714C20.4708 6.78074 20.4333 7.99135 19.6636 8.76109C19.1542 9.27052 18.4517 9.45919 17.825 9.31879C17.2861 9.19805 16.6431 9.16123 16.2525 9.55175L13.0571 12.7472L12.7471 13.0571L9.55172 16.2525C9.1612 16.6431 9.19802 17.2861 9.31876 17.825C9.45916 18.4517 9.27049 19.1542 8.76106 19.6636C7.99132 20.4334 6.78071 20.4708 6.05711 19.7472C5.78052 19.4706 5.61512 19.1228 5.5593 18.7558C5.53926 18.624 5.43335 18.5181 5.30156 18.498C4.93449 18.4422 4.58675 18.2768 4.31017 18.0002C3.58656 17.2766 3.62397 16.066 4.39372 15.2963C4.90314 14.7868 5.60565 14.5982 6.2323 14.7386C6.77122 14.8593 7.41426 14.8961 7.80478 14.5056L11.0002 11.3102L11.3102 11.0002L14.5056 7.80481C14.8961 7.41429 14.8593 6.77125 14.7386 6.23233Z" stroke="#22202A" stroke-linecap="square"/>
</svg>
