<svg width="24" height="24" viewBox="0 0 24 24" fill="none" xmlns="http://www.w3.org/2000/svg">
<path d="M11 21.5V5C11 4.33333 11.1 3 9.49999 3C7.92264 3 7.58931 4.86603 8.49999 5.6547M11 21.5C9.21509 21.5 8.62489 19.9071 9.22939 18.8536M7.864 4.41336C7.41062 4.3306 6.94189 4.37846 6.49933 4.55269C6.05677 4.72692 5.65404 5.02215 5.32682 5.41222C4.9996 5.80229 4.75799 6.27516 4.62339 6.78895C4.48878 7.30274 4.46534 7.84159 4.55514 8.35776C4.64494 8.87393 4.84521 9.3515 5.13821 9.74817C5.4312 10.1448 5.80788 10.4483 6.23488 10.6318M6.21504 17.0344C6.06656 17.322 5.9927 17.6536 6 18C6.0073 18.3463 6.09554 18.6967 6.2569 19.0201C6.41826 19.3434 6.64776 19.6298 6.92508 19.8538C7.20239 20.0778 7.51896 20.2326 7.84674 20.3043C8.17452 20.3761 8.50339 20.3627 8.80423 20.2652M5.15094 9.97724C4.86468 10.0096 4.59247 10.121 4.35842 10.3016C4.12438 10.4823 3.93572 10.7265 3.80916 11.0127C3.6826 11.2989 3.62204 11.6183 3.63285 11.9425C3.64367 12.2667 3.72551 12.5858 3.87115 12.8714C4.01678 13.1571 4.2217 13.4005 4.46776 13.5801C4.71382 13.7598 4.99343 13.8701 5.28181 13.9013M4.73225 13.842C4.45002 14.0354 4.2199 14.2954 4.06226 14.5992C3.90462 14.9029 3.82433 15.2409 3.82851 15.5832C3.83269 15.9256 3.9212 16.2617 4.08621 16.5618C4.25121 16.8619 4.48762 17.1168 4.77449 17.3038C5.06135 17.4909 5.38983 17.6043 5.73081 17.6341" stroke="#22202A" stroke-linecap="round"/>
<path d="M7.63558 12.3097C7.93479 12.3209 8.23179 12.2476 8.50029 12.0961C8.76878 11.9446 9.00048 11.7197 9.17485 11.4413C9.34922 11.1629 9.46089 10.8396 9.49997 10.5C9.53904 10.1604 9.50432 9.81507 9.39887 9.49452C9.29341 9.17397 9.12049 8.88812 8.89542 8.6623" stroke="#22202A" stroke-linecap="round" stroke-linejoin="round"/>
<path d="M10.9561 14.9439C10.6445 14.9442 10.3447 15.0155 10.0833 15.1515C9.82194 15.2874 9.607 15.4839 9.45754 15.7233C9.30809 15.9628 9.22875 16.238 9.22654 16.5244" stroke="#22202A" stroke-linecap="round" stroke-linejoin="round"/>
<path d="M6.5566 14.3706C6.72706 14.3686 6.89032 14.4102 7.0319 14.4917C7.17348 14.5731 7.28902 14.6919 7.36827 14.8374C7.44753 14.983 7.48807 15.1508 7.48628 15.3261" stroke="#22202A" stroke-linecap="round" stroke-linejoin="round"/>
<path d="M7.49998 7C7.37711 6.9621 7.24574 6.95953 7.11752 6.99252C6.98931 7.02552 6.86819 7.09307 6.76491 7.18917C6.66163 7.28528 6.57936 7.40699 6.52541 7.54351C6.47145 7.68003 6.44747 7.82716 6.45559 7.97186C6.4637 8.11656 6.50366 8.25436 6.57193 8.37306" stroke="#22202A" stroke-linecap="round" stroke-linejoin="round"/>
<path d="M13.0012 21.5V5C13.0012 4.33333 12.9012 3 14.5012 3C16.0611 3 16.4044 4.82483 15.5311 5.62805M13.0012 21.5C14.7861 21.5 15.3763 19.9071 14.7718 18.8536M16.1372 4.41336C16.5906 4.3306 17.0593 4.37846 17.5019 4.55269C17.9445 4.72692 18.3472 5.02215 18.6744 5.41222C19.0016 5.80229 19.2432 6.27516 19.3778 6.78895C19.5124 7.30274 19.5359 7.84159 19.4461 8.35776C19.3563 8.87393 19.156 9.3515 18.863 9.74817C18.57 10.1448 18.1933 10.4483 17.7663 10.6318M17.7862 17.0344C17.9347 17.322 18.0086 17.6536 18.0013 18C17.994 18.3463 17.9057 18.6967 17.7444 19.0201C17.583 19.3434 17.3535 19.6298 17.0762 19.8538C16.7989 20.0778 16.4823 20.2326 16.1545 20.3043C15.8267 20.3761 15.4979 20.3627 15.197 20.2652M18.8503 9.97724C19.1365 10.0096 19.4088 10.121 19.6428 10.3016C19.8768 10.4823 20.0655 10.7265 20.1921 11.0127C20.3186 11.2989 20.3792 11.6183 20.3684 11.9425C20.3576 12.2667 20.2757 12.5858 20.1301 12.8714C19.9844 13.1571 19.7795 13.4005 19.5335 13.5801C19.2874 13.7598 19.0078 13.8701 18.7194 13.9013M19.269 13.842C19.5512 14.0354 19.7813 14.2954 19.939 14.5992C20.0966 14.9029 20.1769 15.2409 20.1727 15.5832C20.1685 15.9256 20.08 16.2617 19.915 16.5618C19.75 16.8619 19.5136 17.1168 19.2267 17.3038C18.9399 17.4909 18.6114 17.6043 18.2704 17.6341" stroke="#22202A" stroke-linecap="round"/>
<path d="M16.8883 12.0659C16.5952 12.127 16.2901 12.1044 16 12C15.7099 11.8956 15.4439 11.7127 15.2253 11.4674C15.0068 11.2221 14.8426 10.9221 14.7472 10.5938C14.6518 10.2656 14.6282 9.91932 14.6785 9.58564" stroke="#22202A" stroke-linecap="round" stroke-linejoin="round"/>
<path d="M15.3949 16.6999C15.7062 16.6867 16.0028 16.603 16.2583 16.4564C16.5139 16.3098 16.7205 16.1046 16.86 15.8592C16.9994 15.6137 17.0673 15.3356 17.0577 15.0493" stroke="#22202A" stroke-linecap="round" stroke-linejoin="round"/>
<path d="M14.8345 13.5734C14.7717 13.7319 14.7522 13.8992 14.7776 14.0606C14.8031 14.2219 14.8727 14.3723 14.9803 14.4983C15.0879 14.6244 15.2301 14.7223 15.3945 14.7833" stroke="#22202A" stroke-linecap="round" stroke-linejoin="round"/>
<path d="M16.6948 7.35421C16.8126 7.40582 16.9137 7.48972 16.9892 7.59848C17.0647 7.70724 17.1122 7.83752 17.1276 7.97776C17.1429 8.118 17.1257 8.26388 17.0773 8.40248C17.0289 8.54108 16.9509 8.66812 16.8503 8.77235C16.7496 8.87657 16.6293 8.95477 16.5 9.00001" stroke="#22202A" stroke-linecap="round" stroke-linejoin="round"/>
</svg>
