<svg width="24" height="24" viewBox="0 0 24 24" fill="none" xmlns="http://www.w3.org/2000/svg">
<path d="M8.5 14H8.81399C8.92439 14 9.02173 13.9276 9.05345 13.8218L10.3184 9.60525C10.3638 9.45384 10.5823 9.46661 10.6098 9.62229L11.8776 16.8064C11.9057 16.9658 12.1316 16.9737 12.1708 16.8167L12.9527 13.6894C12.9805 13.5781 13.0805 13.5 13.1952 13.5H15.5" stroke="#22202A" stroke-linecap="round"/>
<path d="M9 4.25V4.25C9 4.94036 9.55964 5.5 10.25 5.5H13.75C14.4404 5.5 15 4.94036 15 4.25V4.25M9 4.25V4.25C9 3.55964 9.55964 3 10.25 3H13.75C14.4404 3 15 3.55964 15 4.25V4.25M9 4.25V4.25C8.53534 4.25 8.30302 4.25 8.10982 4.28843C7.31644 4.44624 6.69624 5.06644 6.53843 5.85982C6.5 6.05302 6.5 6.28534 6.5 6.75V15.5C6.5 17.857 6.5 19.0355 7.23223 19.7678C7.96447 20.5 9.14298 20.5 11.5 20.5H12.5C14.857 20.5 16.0355 20.5 16.7678 19.7678C17.5 19.0355 17.5 17.857 17.5 15.5V6.75C17.5 6.28534 17.5 6.05302 17.4616 5.85982C17.3038 5.06644 16.6836 4.44624 15.8902 4.28843C15.697 4.25 15.4647 4.25 15 4.25V4.25" stroke="#22202A"/>
</svg>
