<svg width="24" height="24" viewBox="0 0 24 24" fill="none" xmlns="http://www.w3.org/2000/svg">
<path d="M21.5 12.5C21.5 13.3284 16.9706 14 12 14C7.02944 14 2.5 13.3284 2.5 12.5M21.5 12.5C21.5 11.6716 16.9706 11 12 11C7.02944 11 2.5 11.6716 2.5 12.5M21.5 12.5C21.5 12.5 19.5 19.5 12 19.5C4.5 19.5 2.5 12.5 2.5 12.5" stroke="#22202A"/>
<path d="M16.1632 17.0272C16.9232 16.6037 17.6743 15.9959 18.3161 15.1235" stroke="#22202A" stroke-linecap="round"/>
<path d="M8 8.5C7.35013 8.22922 7 7.70403 7 7C7 6.29597 8.05138 6.20215 8 5.5C7.96814 5.06454 7.82925 4.78676 7.5 4.5" stroke="#22202A" stroke-linecap="round"/>
<path d="M12.5 8.5C11.8501 8.22922 11.5 7.70403 11.5 7C11.5 6.29597 12.5514 6.20215 12.5 5.5C12.4681 5.06454 12.3292 4.78676 12 4.5" stroke="#22202A" stroke-linecap="round"/>
<path d="M17 8.5C16.3501 8.22922 16 7.70403 16 7C16 6.29597 17.0514 6.20215 17 5.5C16.9681 5.06454 16.8292 4.78676 16.5 4.5" stroke="#22202A" stroke-linecap="round"/>
</svg>
