<svg width="24" height="24" viewBox="0 0 24 24" fill="none" xmlns="http://www.w3.org/2000/svg">
<path d="M12 4.5C12 4.5 12 7.26633 12 10M12 10C10.5 10 10.5 12 10 13M12 10C13.5 10 13.5 12 14 13" stroke="#22202A" stroke-linecap="round"/>
<path d="M10 17C11.4068 14.6553 9.27348 14.0088 9.43584 9.04479C9.45727 8.38953 9.218 7.68622 8.59288 7.48861C6.2035 6.73329 3.60408 10.2575 3.67577 15.18C3.70054 16.8811 5.12808 18.2373 6.82943 18.2371C8.19706 18.2369 9.41943 17.9677 10 17Z" stroke="#22202A" stroke-linecap="round"/>
<path d="M14 17C12.5932 14.6553 14.7265 14.0088 14.5642 9.04479C14.5427 8.38953 14.782 7.68622 15.4071 7.48861C17.7965 6.73329 20.3959 10.2575 20.3242 15.18C20.2995 16.8811 18.8719 18.2373 17.1706 18.2371C15.8029 18.2369 14.5806 17.9677 14 17Z" stroke="#22202A" stroke-linecap="round"/>
</svg>
