<svg width="24" height="24" viewBox="0 0 24 24" fill="none" xmlns="http://www.w3.org/2000/svg">
<path d="M20.4999 6.30672C20.4993 6.11363 20.3932 5.92687 20.2274 5.82676L16.7662 3.794C16.4567 3.61221 16.0754 3.61462 15.7524 3.77116C13.4025 4.90993 10.6004 4.90886 8.25136 3.76796C7.93199 3.61285 7.55538 3.60841 7.24727 3.78485L3.77248 5.77459C3.60664 5.8747 3.5006 6.06147 3.49998 6.25455C3.47978 12.0469 6.65757 17.5271 11.675 20.4133C11.8726 20.5269 12.1273 20.5269 12.3248 20.4133C17.3264 17.5362 20.5014 12.0807 20.4999 6.30672Z" stroke="#22202A" stroke-miterlimit="10"/>
<path d="M10.7541 8.04015C10.6875 8.20095 10.6875 8.4048 10.6875 8.8125V9.6455C10.6875 9.6653 10.6875 9.6752 10.6813 9.68135C10.6752 9.6875 10.6653 9.6875 10.6455 9.6875H9.8125C9.4048 9.6875 9.20095 9.6875 9.04015 9.75411C8.82575 9.84291 8.65541 10.0133 8.56661 10.2277C8.5 10.3885 8.5 10.5923 8.5 11C8.5 11.4077 8.5 11.6115 8.56661 11.7723C8.65541 11.9867 8.82575 12.1571 9.04015 12.2459C9.20095 12.3125 9.4048 12.3125 9.8125 12.3125H10.6455C10.6653 12.3125 10.6752 12.3125 10.6813 12.3187C10.6875 12.3248 10.6875 12.3347 10.6875 12.3545V13.1875C10.6875 13.5952 10.6875 13.799 10.7541 13.9598C10.8429 14.1742 11.0133 14.3446 11.2277 14.4334C11.3885 14.5 11.5923 14.5 12 14.5C12.4077 14.5 12.6115 14.5 12.7723 14.4334C12.9867 14.3446 13.1571 14.1742 13.2459 13.9598C13.3125 13.799 13.3125 13.5952 13.3125 13.1875V12.3545C13.3125 12.3347 13.3125 12.3248 13.3187 12.3187C13.3248 12.3125 13.3347 12.3125 13.3545 12.3125H14.1875C14.5952 12.3125 14.799 12.3125 14.9598 12.2459C15.1742 12.1571 15.3446 11.9867 15.4334 11.7723C15.5 11.6115 15.5 11.4077 15.5 11C15.5 10.5923 15.5 10.3885 15.4334 10.2277C15.3446 10.0133 15.1742 9.84291 14.9598 9.75411C14.799 9.6875 14.5952 9.6875 14.1875 9.6875H13.3545C13.3347 9.6875 13.3248 9.6875 13.3187 9.68135C13.3125 9.6752 13.3125 9.6653 13.3125 9.6455V8.8125C13.3125 8.4048 13.3125 8.20095 13.2459 8.04015C13.1571 7.82575 12.9867 7.65541 12.7723 7.56661C12.6115 7.5 12.4077 7.5 12 7.5C11.5923 7.5 11.3885 7.5 11.2277 7.56661C11.0133 7.65541 10.8429 7.82575 10.7541 8.04015Z" stroke="#22202A"/>
</svg>
