<svg width="24" height="24" viewBox="0 0 24 24" fill="none" xmlns="http://www.w3.org/2000/svg">
<path d="M7 20.1C7 19.2163 7.71634 18.5 8.6 18.5H15.4C16.2837 18.5 17 19.2163 17 20.1V20.1C17 20.3209 16.8209 20.5 16.6 20.5H7.4C7.17909 20.5 7 20.3209 7 20.1V20.1Z" stroke="#22202A"/>
<path d="M8.94883 15C8.94883 15 10.3119 16.0216 11.1376 16.1915C11.8733 16.3429 12.636 16.2979 13.3489 16.0612C14.0618 15.8244 14.6998 15.4041 15.1988 14.8426C15.6977 14.2811 16.0401 13.5982 16.1915 12.8624C16.3429 12.1266 16.2979 11.364 16.0612 10.6511C15.9477 10.3096 15.7922 9.9853 15.5992 9.68524L15.5 9.49998M6.80396 15C6.80396 15 7.53191 16.0562 8.01436 16.4849C8.80164 17.1846 9.7592 17.6646 10.7908 17.8769C11.8224 18.0891 12.8917 18.0261 13.8913 17.6941C14.8908 17.3621 15.7853 16.7729 16.4849 15.9856C17.1846 15.1983 17.6646 14.2408 17.8769 13.2092C18.0891 12.1775 18.0261 11.1082 17.6941 10.1087C17.5199 9.58422 17.2749 9.08864 16.9675 8.63496L16.8939 8.5552M15.5 9.49998C16.1323 9.49998 16.6732 9.10877 16.8939 8.5552M15.5 9.49998C14.9716 9.49998 14.5071 9.22679 14.2399 8.81396M16.8939 8.5552C16.9624 8.38348 17 8.19612 17 7.99998C17 7.61353 16.8539 7.26122 16.6138 6.99529M17.0798 5.09803L17 5.16011M17.0798 5.09803C17.2727 5.34984 17.6044 5.35472 17.8381 5.16639C18.1868 4.88533 18.2218 4.38411 17.9559 4.03709L17.7157 3.72352C17.4498 3.3765 16.9568 3.27974 16.5947 3.54331C16.3538 3.71857 16.2738 4.04591 16.4632 4.29326M17.0798 5.09803L16.7715 4.69565L16.4632 4.29326M16.4632 4.29326L16.3847 4.35697M16.3847 4.35697L17 5.16011M16.3847 4.35697C16.0227 3.88438 15.8417 3.64808 15.5948 3.57349C15.512 3.54846 15.4257 3.53703 15.3393 3.53964C15.0816 3.54741 14.8453 3.72843 14.3727 4.09048L9.37954 7.91563C9.24527 8.01849 9.17813 8.06993 9.12989 8.12294C8.90517 8.36986 8.85742 8.73036 9.01011 9.02727C9.04289 9.09101 9.09432 9.15815 9.19719 9.29242M17 5.16011C17.2392 5.47241 17.3589 5.62855 17.3987 5.79188C17.4462 5.9864 17.419 6.19166 17.3225 6.36711C17.2415 6.51443 17.0854 6.63405 16.7731 6.87329L16.6138 6.99529M9.19719 9.29242L10.444 10.9199M9.19719 9.29242L8.17356 10.0773C7.93354 10.2612 7.81354 10.3531 7.74586 10.4628C7.64111 10.6326 7.61379 10.839 7.67075 11.0302C7.70756 11.1538 7.79951 11.2738 7.98341 11.5138C8.16732 11.7538 8.25927 11.8738 8.36898 11.9415C8.53877 12.0463 8.74518 12.0736 8.93638 12.0166C9.05992 11.9798 9.17993 11.8878 9.41994 11.7039L10.444 10.9199M10.444 10.9199C10.6578 11.199 11.0574 11.252 11.3366 11.0381L14.2399 8.81396M14.2399 8.81396C14.0881 8.57952 14 8.30004 14 7.99998C14 7.17155 14.6716 6.49998 15.5 6.49998C15.942 6.49998 16.3393 6.69114 16.6138 6.99529" stroke="#22202A"/>
<path d="M6.5 15H10.5" stroke="#22202A" stroke-linecap="round"/>
</svg>
