<svg width="24" height="24" viewBox="0 0 24 24" fill="none" xmlns="http://www.w3.org/2000/svg">
<path d="M8.5 11H6.4C5.74003 11 5.41005 11 5.20503 11.205C5 11.4101 5 11.74 5 12.4V12.6C5 13.26 5 13.5899 5.20503 13.795C5.41005 14 5.74003 14 6.4 14H8.5M8.5 11H15.8C15.8943 11 15.9414 11 15.9707 11.0293C16 11.0586 16 11.1057 16 11.2V13.8C16 13.8943 16 13.9414 15.9707 13.9707C15.9414 14 15.8943 14 15.8 14H8.5M8.5 11V14" stroke="#22202A"/>
<path d="M15.5 6C14.5237 6 15.5 6 13.5 6C11.5 6 11.5 8.5 13.5 8.5C13.5 8.5 15.5 8.5 17 8.5C17.5523 8.5 18.5 8.5 18.5 9.5" stroke="#22202A" stroke-linecap="round"/>
<path d="M17.5 11.5V13.5" stroke="#22202A" stroke-linecap="round"/>
<path d="M19 11.5V13.5" stroke="#22202A" stroke-linecap="round"/>
<path d="M5.16527 5.19263C3.48891 6.87644 2.5 9.24605 2.5 12C2.5 17.5228 6.47715 21.5 12 21.5C14.7849 21.5 17.1768 20.4887 18.8639 18.7779M5.16527 5.19263C6.85072 3.49968 9.2311 2.5 12 2.5C17.5228 2.5 21.5 6.47715 21.5 12C21.5 14.7379 20.5226 17.096 18.8639 18.7779M5.16527 5.19263L18.8639 18.7779" stroke="#22202A"/>
</svg>
