<svg width="24" height="24" viewBox="0 0 24 24" fill="none" xmlns="http://www.w3.org/2000/svg">
<path d="M12 10.5C16.3392 10.5 18.9508 6.79576 19.4529 6.96485C19.4762 6.97271 19.4651 6.99999 19.4405 6.99999H4.57699C4.54964 6.99999 4.54256 6.97466 4.56991 6.9747C5.14861 6.97543 7.70711 10.5 12 10.5ZM12 10.5V11M12 20.5H16M12 20.5H8M12 20.5L12 18.5M12 13.5V16" stroke="#22202A" stroke-linecap="round"/>
<path d="M9.5 18.5C10 17 14.5 17.5 14.5 16C14.5 15.5089 14.0292 15.2459 13.341 15.0849M11.6046 4H10.6442C10.5581 4 10.4816 4.05509 10.4544 4.13675L10.0316 5.40513C10.0186 5.44422 10.0558 5.48141 10.0949 5.46838L11.3777 5.04075C11.4522 5.01594 11.5052 4.94988 11.5134 4.87183L11.6046 4ZM11.6046 4C13.4345 2.77681 15.5538 3.78463 16.5 5.36543M10.5677 14.7501C9.19933 14.6047 8.5 14 8.5 13.5C8.5 12.0414 14.5518 12.4666 15.8749 11.1507" stroke="#22202A" stroke-linecap="round"/>
</svg>
