<svg width="24" height="24" viewBox="0 0 24 24" fill="none" xmlns="http://www.w3.org/2000/svg">
<path d="M13 17.5V17.5C15.2091 17.5 17 15.7091 17 13.5V7.5C17 6.57069 17 6.10603 16.9231 5.71964C16.6075 4.13288 15.3671 2.89249 13.7804 2.57686C13.394 2.5 12.9293 2.5 12 2.5V2.5C11.0707 2.5 10.606 2.5 10.2196 2.57686C8.63288 2.89249 7.39249 4.13288 7.07686 5.71964C7 6.10603 7 6.57069 7 7.5V13.5C7 15.7091 8.79086 17.5 11 17.5V17.5M13 17.5V18C13 18.5523 12.5523 19 12 19C11.4477 19 11 18.5523 11 18V17.5M13 17.5H11" stroke="#22202A"/>
<path d="M7 7.5H9" stroke="#22202A" stroke-linecap="round"/>
<path d="M7 9.5H17" stroke="#22202A" stroke-linecap="round"/>
<path d="M7 11.5H9" stroke="#22202A" stroke-linecap="round"/>
<path d="M7.5 13.5H9" stroke="#22202A" stroke-linecap="round"/>
<path d="M12 19C12 20.5 12.5 21.5 13.5 21.5" stroke="#22202A" stroke-linecap="round"/>
</svg>
