<svg width="24" height="24" viewBox="0 0 24 24" fill="none" xmlns="http://www.w3.org/2000/svg">
<path d="M16.8396 14.6793C18.7835 14.6793 20.3594 12.5125 20.3594 9.83964C20.3594 7.16678 18.7835 5 16.8396 5M16.8396 14.6793C14.8957 14.6793 13.3199 12.5125 13.3199 9.83964M16.8396 14.6793H13.3199M13.3199 9.83964C13.3199 7.16678 14.8957 5 16.8396 5M13.3199 9.83964C13.8609 13.5989 13.9481 15.754 13.4601 18.3823C13.3845 18.7897 13.0241 19.0789 12.6097 19.0789H4.69171C4.1438 19.0789 3.7302 18.5831 3.79155 18.0387C4.10799 15.2302 3.69288 12.6262 3.64062 9.83964C3.64062 8.55609 4.01145 7.32511 4.67153 6.4175C5.33161 5.50989 6.22687 5 7.16036 5H16.8396" stroke="#22202A"/>
<path d="M18.1596 9.83964C18.1596 10.8116 17.5686 11.5995 16.8397 11.5995C16.1107 11.5995 15.5198 10.8116 15.5198 9.83964C15.5198 8.86769 16.1107 8.07977 16.8397 8.07977C17.5686 8.07977 18.1596 8.86769 18.1596 9.83964Z" stroke="#22202A"/>
<path d="M5.5 11.5L12 11.5" stroke="#22202A" stroke-linecap="round" stroke-dasharray="2 2"/>
</svg>
