<svg width="24" height="24" viewBox="0 0 24 24" fill="none" xmlns="http://www.w3.org/2000/svg">
<path d="M9.57098 16.489C9.14761 17.4098 9.01002 18.4365 8.65016 19.3785C8.44101 20.1618 7.71657 19.9575 7.24248 19.5161C4.35717 16.3009 2.17153 8.50655 5.59136 4.88885C7.3395 2.94364 9 5.66922 12 5.66923C15 5.66923 16.6825 2.96161 18.4193 4.88885C21.8406 8.53434 19.5923 16.2979 16.6941 19.5161C16.2478 19.998 15.4775 20.1409 15.2758 19.3785C14.9159 18.4365 14.7889 17.4098 14.3656 16.489C13.4233 14.2209 10.5418 14.3099 9.57098 16.489Z" stroke="#22202A" stroke-miterlimit="10"/>
<path d="M17 6C18 6.5 18 7.5 18 8" stroke="#22202A" stroke-linecap="round"/>
</svg>
