<svg width="24" height="24" viewBox="0 0 24 24" fill="none" xmlns="http://www.w3.org/2000/svg">
<path d="M3.5 9.5C3.5 6.67157 3.5 5.25736 4.37868 4.37868C5.25736 3.5 6.67157 3.5 9.5 3.5H14.5C17.3284 3.5 18.7426 3.5 19.6213 4.37868C20.5 5.25736 20.5 6.67157 20.5 9.5V14.5C20.5 17.3284 20.5 18.7426 19.6213 19.6213C18.7426 20.5 17.3284 20.5 14.5 20.5H9.5C6.67157 20.5 5.25736 20.5 4.37868 19.6213C3.5 18.7426 3.5 17.3284 3.5 14.5V9.5Z" stroke="#22202A"/>
<path d="M16.5 10C16.5 12.5794 15.5 11 12 11C8.5 11 7.5 12.5794 7.5 10C7.5 7.79086 9.79086 6 12 6C14.2091 6 16.5 7.79086 16.5 10Z" stroke="#22202A"/>
<path d="M12 6V7M14 7L13.5 7.5M15.5 8L15 8.5M16 10H15.5M10 7L10.5 7.5M8.5 8L9 8.5M8 10H8.5" stroke="#22202A" stroke-linecap="round"/>
<path d="M12 8.5V11" stroke="#22202A" stroke-linecap="round"/>
<path d="M18.5 16.5C18.5 18 18 18.5 17 18.5" stroke="#22202A" stroke-linecap="round"/>
</svg>
