<svg width="24" height="24" viewBox="0 0 24 24" fill="none" xmlns="http://www.w3.org/2000/svg">
<path d="M9.5 19.68C12.2614 19.68 14.5 17.4414 14.5 14.68C14.5 11.9186 12.2614 9.67999 9.5 9.67999C6.73858 9.67999 4.5 11.9186 4.5 14.68C4.5 17.4414 6.73858 19.68 9.5 19.68Z" stroke="#22202A" stroke-miterlimit="10"/>
<path d="M9.49997 17.71C11.1734 17.71 12.53 16.3534 12.53 14.68C12.53 13.0066 11.1734 11.65 9.49997 11.65C7.82655 11.65 6.46997 13.0066 6.46997 14.68C6.46997 16.3534 7.82655 17.71 9.49997 17.71Z" stroke="#22202A" stroke-miterlimit="10"/>
<path d="M17.06 19.68C17.6509 19.68 18.13 19.201 18.13 18.61C18.13 18.0191 17.6509 17.54 17.06 17.54C16.469 17.54 15.99 18.0191 15.99 18.61C15.99 19.201 16.469 19.68 17.06 19.68Z" stroke="#22202A" stroke-miterlimit="10"/>
<path d="M17.06 17.4464V15.82M15.67 12.21H16.56C16.8361 12.21 17.06 12.4339 17.06 12.71V15.82M15.67 12.21V9.71C15.67 8.88157 14.9984 8.21 14.17 8.21H8.32997M15.67 12.21L13.85 12.21M8.32997 8.21V5.5C8.32997 4.94772 7.88226 4.5 7.32997 4.5H6.46997M8.32997 8.21V9.78834M19 15.82H17.06" stroke="#22202A" stroke-miterlimit="10" stroke-linecap="round"/>
</svg>
