<svg width="24" height="24" viewBox="0 0 24 24" fill="none" xmlns="http://www.w3.org/2000/svg">
<path d="M11.0693 8.39297C9.84681 8.34854 8.09053 8.20679 7.28205 7.13853C6.56851 6.03979 7.67006 4.99646 8.75154 5.00001" stroke="#22202A" stroke-miterlimit="10" stroke-linecap="round"/>
<path d="M11.2246 13.2793C7.55682 15.8121 4.61785 12.2758 4.33112 9.82661" stroke="#22202A" stroke-miterlimit="10" stroke-linecap="round"/>
<path d="M3.78156 12.6222C3.97271 14.4262 6.94752 18.9303 11.3082 15.155" stroke="#22202A" stroke-miterlimit="10" stroke-linecap="round"/>
<path d="M11.2246 15.3342C7.64052 21.3077 2.62275 19.002 3.47099 15.3342" stroke="#22202A" stroke-miterlimit="10" stroke-linecap="round"/>
<path d="M12.933 8.39298C14.1554 8.34725 15.9116 8.20691 16.7202 7.13854C17.4291 6.04694 16.3413 5.03024 15.2746 5.00002" stroke="#22202A" stroke-miterlimit="10" stroke-linecap="round"/>
<path d="M12.933 11.1288C15.9078 11.6306 18.1658 10.5434 18.6795 7.54472" stroke="#22202A" stroke-miterlimit="10" stroke-linecap="round"/>
<path d="M11.0693 11.1288C8.09445 11.6306 5.83646 10.5434 5.31079 7.54472" stroke="#22202A" stroke-miterlimit="10" stroke-linecap="round"/>
<path d="M12.7777 13.2793C16.4216 15.8121 19.3844 12.2758 19.6712 9.82661" stroke="#22202A" stroke-miterlimit="10" stroke-linecap="round"/>
<path d="M20.2207 12.6222C20.0176 14.4262 17.1144 18.9303 12.694 15.155" stroke="#22202A" stroke-miterlimit="10" stroke-linecap="round"/>
<path d="M12.7777 15.3342C16.3618 21.3077 21.3676 19.002 20.5313 15.3342" stroke="#22202A" stroke-miterlimit="10" stroke-linecap="round"/>
<path d="M12.0012 5.84825V15.9196" stroke="#22202A" stroke-miterlimit="10" stroke-linecap="round"/>
</svg>
