<svg width="24" height="24" viewBox="0 0 24 24" fill="none" xmlns="http://www.w3.org/2000/svg">
<path d="M21.5 12C21.5 17.5228 17.5228 21.5 12 21.5C6.47715 21.5 2.5 17.5228 2.5 12C2.5 6.47715 6.47715 2.5 12 2.5C17.5228 2.5 21.5 6.47715 21.5 12Z" stroke="#22202A"/>
<path d="M13.5 12C13.5 12.8284 12.8284 13.5 12 13.5C11.1716 13.5 10.5 12.8284 10.5 12C10.5 11.1716 11.1716 10.5 12 10.5C12.8284 10.5 13.5 11.1716 13.5 12Z" stroke="#22202A"/>
<path d="M5.24538 7.71339C4.44267 8.97826 4.01145 10.4427 4.00023 11.94C4.00001 11.9682 3.99991 11.9823 4.00871 11.9911C4.01751 12 4.03167 12 4.06 12L9.06139 12C9.08955 12 9.10363 12 9.11237 11.9914C9.12112 11.9829 9.12142 11.9686 9.12201 11.94C9.13296 11.4146 9.28754 10.9019 9.56951 10.4576C9.85148 10.0133 10.2496 9.65506 10.7203 9.42147C10.7459 9.40876 10.7587 9.40241 10.7628 9.39085C10.7668 9.37928 10.7608 9.36654 10.7488 9.34107L8.61931 4.81568C8.60725 4.79004 8.60122 4.77723 8.58945 4.77304C8.57768 4.76885 8.56497 4.77495 8.53955 4.78715C7.18959 5.4348 6.04809 6.44852 5.24538 7.71339Z" stroke="#22202A"/>
<path d="M18.7546 7.71339C19.5573 8.97826 19.9885 10.4427 19.9998 11.94C20 11.9682 20.0001 11.9823 19.9913 11.9911C19.9825 12 19.9683 12 19.94 12L14.9386 12C14.9105 12 14.8964 12 14.8876 11.9914C14.8789 11.9829 14.8786 11.9686 14.878 11.94C14.867 11.4146 14.7125 10.9019 14.4305 10.4576C14.1485 10.0133 13.7504 9.65506 13.2797 9.42147C13.2541 9.40876 13.2413 9.40241 13.2372 9.39085C13.2332 9.37928 13.2392 9.36654 13.2512 9.34107L15.3807 4.81568C15.3928 4.79004 15.3988 4.77723 15.4106 4.77304C15.4223 4.76885 15.435 4.77495 15.4605 4.78715C16.8104 5.4348 17.9519 6.44852 18.7546 7.71339Z" stroke="#22202A"/>
<path d="M12.0249 20C10.5268 20.0046 9.05793 19.5886 7.7853 18.7997C7.76134 18.7849 7.74936 18.7774 7.74655 18.7653C7.74374 18.7531 7.75129 18.7411 7.7664 18.7172L10.4331 14.486C10.4481 14.4622 10.4557 14.4503 10.4676 14.4475C10.4795 14.4446 10.4917 14.452 10.5162 14.4667C10.9665 14.7376 11.4827 14.8802 12.0089 14.8786C12.5352 14.877 13.0505 14.7311 13.4991 14.4575C13.5235 14.4426 13.5357 14.4351 13.5476 14.4379C13.5595 14.4407 13.5671 14.4525 13.5823 14.4762L16.2753 18.6907C16.2905 18.7146 16.2982 18.7265 16.2954 18.7387C16.2927 18.7509 16.2808 18.7584 16.2569 18.7734C14.9892 19.5701 13.5229 19.9953 12.0249 20Z" stroke="#22202A"/>
</svg>
