<svg width="24" height="24" viewBox="0 0 24 24" fill="none" xmlns="http://www.w3.org/2000/svg">
<path opacity="0.5" d="M21.3184 13.4628L21.1368 15.4545C21.0114 16.8295 19.7905 17.9442 18.4098 17.9442C18.485 17.1192 17.8744 16.4504 17.046 16.4504C16.2176 16.4504 15.485 17.1192 15.4098 17.9442H9.90979C9.98502 17.1192 9.37443 16.4504 8.546 16.4504C7.71758 16.4504 6.98502 17.1192 6.90979 17.9442H5.40979C3.75294 17.9442 2.53176 16.6066 2.68221 14.9566L2.77302 13.9607C2.81583 13.4913 2.83723 13.2565 2.99698 13.1107C3.15672 12.9649 3.39242 12.9649 3.86383 12.9649H14.3638C15.1923 12.9649 15.9248 12.2961 16 11.4711L16.4995 5.99378C16.5154 5.81919 16.5006 5.65159 16.4595 5.49585C17.3717 5.49585 17.8277 5.49585 18.2048 5.67311C18.317 5.72587 18.4228 5.78974 18.5208 5.86383C18.85 6.11274 19.044 6.50506 19.4321 7.28969L21.04 10.5408C21.2687 11.0032 21.383 11.2344 21.429 11.4897C21.4751 11.745 21.4507 12.0127 21.4018 12.548L21.3184 13.4628Z" fill="#22202A"/>
<path fill-rule="evenodd" clip-rule="evenodd" d="M4.45464 4.99794H15.0903C15.5249 4.99794 15.8708 5.27435 15.973 5.66181C16.0002 5.765 16.0101 5.87653 15.9995 5.99381L15.5 11.4711C15.4499 12.0211 14.9615 12.467 14.4092 12.467H3.90921L3.882 12.467C3.66997 12.4669 3.46391 12.4669 3.29188 12.4896C3.09794 12.5153 2.8736 12.5778 2.67551 12.7586C2.47741 12.9395 2.39479 13.1572 2.35163 13.348C2.31335 13.5173 2.29468 13.7225 2.27547 13.9337L2.273 13.9608L2.18219 14.9566C2.00666 16.8816 3.43137 18.4422 5.36437 18.4422H6.42738C6.57107 19.3012 7.29624 19.936 8.22816 19.936C9.16008 19.936 10.001 19.3012 10.3014 18.4422H14.9274C15.0711 19.3012 15.7962 19.936 16.7282 19.936C17.6719 19.936 18.5222 19.2851 18.8125 18.4095C20.2778 18.1953 21.5001 16.9539 21.6368 15.4546L21.9018 12.548L21.9074 12.4864C21.951 12.0103 21.9812 11.68 21.9235 11.3598C21.8658 11.0396 21.7246 10.7543 21.521 10.3432L21.4947 10.29L19.8868 7.03883L19.841 6.94604C19.498 6.25165 19.2602 5.7701 18.8474 5.45791C18.7249 5.3653 18.5926 5.28547 18.4523 5.21952C18.0215 5.01699 17.5188 4.9992 16.8226 4.99796C16.5312 4.40302 15.9219 4.00208 15.1811 4.00208H4.54544C4.20819 4.00208 3.91305 4.08787 3.66868 4.25079C3.24025 4.53641 3.00087 5.06207 2.99799 5.54293C2.99719 5.81143 3.22805 6.0203 3.50004 5.9959C3.77716 5.97105 4.00184 5.72913 4.0021 5.45545L4.00209 5.45673L4.00209 5.45815L4.00207 5.46014C4.00207 5.46014 4.00229 5.4542 4.00279 5.44725C4.02305 5.16356 4.17088 4.99795 4.45464 4.99794ZM16.9992 5.99698L16.5 11.4711C16.3997 12.5711 15.423 13.4628 14.3184 13.4628H3.8184C3.56857 13.4628 3.43139 13.4639 3.33513 13.4766L3.33145 13.4771L3.33062 13.4807C3.3092 13.5754 3.29569 13.712 3.273 13.9608L3.18219 14.9566C3.05682 16.3316 4.07447 17.4463 5.45518 17.4463H6.51819C6.81854 16.5873 7.65947 15.9525 8.59139 15.9525C9.52331 15.9525 10.2485 16.5873 10.3922 17.4463H15.0182C15.3185 16.5873 16.1595 15.9525 17.0914 15.9525C18.007 15.9525 18.723 16.5652 18.8841 17.4013C19.8023 17.2073 20.5497 16.4094 20.6368 15.4546L20.773 13.9608H18.773C17.9446 13.9608 17.334 13.292 17.4092 12.467L17.6816 9.47935C17.7318 8.92935 18.2202 8.48348 18.7724 8.48348H19.4436L18.9773 7.54062C18.5694 6.71587 18.4216 6.44171 18.1942 6.26979C18.1207 6.21423 18.0414 6.16633 17.9572 6.12676C17.7588 6.03351 17.5237 6.00518 16.9992 5.99698ZM19.9361 9.47935H18.6816L18.4092 12.467C18.3841 12.742 18.5877 12.9649 18.8638 12.9649H20.8638L20.9018 12.548C20.953 11.9869 20.9664 11.7966 20.9345 11.6197C20.9026 11.4428 20.8249 11.2764 20.5852 10.7918L19.9361 9.47935Z" fill="#22202A"/>
<path d="M10.6233 6.80738C10.5768 6.89889 10.5663 7.01489 10.5451 7.2469L10.5019 7.72093C10.5009 7.7322 10.5004 7.73784 10.4965 7.74134C10.4927 7.74484 10.487 7.74484 10.4757 7.74484H9.99971C9.76674 7.74484 9.65026 7.74484 9.55491 7.78274C9.42779 7.83328 9.32162 7.93021 9.25974 8.05222C9.21334 8.14372 9.20276 8.25973 9.18161 8.49174C9.16045 8.72375 9.14987 8.83975 9.17959 8.93126C9.21921 9.05326 9.30771 9.1502 9.42562 9.20074C9.51405 9.23864 9.63053 9.23864 9.8635 9.23864H10.3395C10.3508 9.23864 10.3565 9.23864 10.3597 9.24214C10.3629 9.24564 10.3624 9.25127 10.3613 9.26254L10.3181 9.73657C10.2969 9.96858 10.2864 10.0846 10.3161 10.1761C10.3557 10.2981 10.4442 10.395 10.5621 10.4456C10.6505 10.4835 10.767 10.4835 11 10.4835C11.233 10.4835 11.3495 10.4835 11.4448 10.4456C11.5719 10.395 11.6781 10.2981 11.74 10.1761C11.7864 10.0846 11.7969 9.96858 11.8181 9.73657L11.8613 9.26254C11.8624 9.25127 11.8629 9.24564 11.8667 9.24214C11.8705 9.23864 11.8762 9.23864 11.8875 9.23864H12.3635C12.5965 9.23864 12.713 9.23864 12.8083 9.20074C12.9354 9.1502 13.0416 9.05326 13.1035 8.93126C13.1499 8.83975 13.1605 8.72375 13.1816 8.49174C13.2028 8.25973 13.2133 8.14372 13.1836 8.05222C13.144 7.93021 13.0555 7.83328 12.9376 7.78274C12.8492 7.74484 12.7327 7.74484 12.4997 7.74484H12.0237C12.0124 7.74484 12.0067 7.74484 12.0035 7.74134C12.0004 7.73784 12.0009 7.7322 12.0019 7.72093L12.0451 7.2469C12.0663 7.01489 12.0768 6.89889 12.0471 6.80738C12.0075 6.68538 11.919 6.58844 11.8011 6.5379C11.7127 6.5 11.5962 6.5 11.3632 6.5C11.1302 6.5 11.0138 6.5 10.9184 6.5379C10.7913 6.58844 10.6851 6.68538 10.6233 6.80738Z" fill="#22202A"/>
<path opacity="0.5" fill-rule="evenodd" clip-rule="evenodd" d="M2 11C2 10.7239 2.22386 10.5 2.5 10.5H4.5C4.77614 10.5 5 10.7239 5 11C5 11.2761 4.77614 11.5 4.5 11.5H2.5C2.22386 11.5 2 11.2761 2 11Z" fill="#22202A"/>
<path fill-rule="evenodd" clip-rule="evenodd" d="M2 9C2 8.72386 2.22386 8.5 2.5 8.5H5.5C5.77614 8.5 6 8.72386 6 9C6 9.27614 5.77614 9.5 5.5 9.5H2.5C2.22386 9.5 2 9.27614 2 9Z" fill="#22202A"/>
<path opacity="0.5" fill-rule="evenodd" clip-rule="evenodd" d="M2 7C2 6.72386 2.22386 6.5 2.5 6.5H6.5C6.77614 6.5 7 6.72386 7 7C7 7.27614 6.77614 7.5 6.5 7.5H2.5C2.22386 7.5 2 7.27614 2 7Z" fill="#22202A"/>
</svg>
