<svg width="24" height="24" viewBox="0 0 24 24" fill="none" xmlns="http://www.w3.org/2000/svg">
<path opacity="0.5" d="M21.5 15.5C21.5 16.8807 20.3807 18 19 18C19 17.1716 18.3284 16.5 17.5 16.5C16.6716 16.5 16 17.1716 16 18H10.5C10.5 17.1716 9.82843 16.5 9 16.5C8.17157 16.5 7.5 17.1716 7.5 18H6C4.34315 18 3 16.6569 3 15V13H14.5C15.3284 13 16 12.3284 16 11.5V6C16 5.82468 15.9699 5.65639 15.9146 5.5C16.8268 5.5 17.2829 5.5 17.6761 5.67799C17.7931 5.73097 17.9047 5.7951 18.0095 5.8695C18.3613 6.11945 18.5911 6.51339 19.0507 7.30128L20.9551 10.5659C21.226 11.0302 21.3614 11.2624 21.4307 11.5187C21.5 11.7751 21.5 12.0439 21.5 12.5814V15.5Z" fill="#22202A"/>
<path fill-rule="evenodd" clip-rule="evenodd" d="M5.5 4C3.84315 4 2.5 5.34315 2.5 7V15C2.5 16.933 4.067 18.5 6 18.5H7.06301C7.28503 19.3626 8.06808 20 9 20C9.93192 20 10.715 19.3626 10.937 18.5H15.563C15.785 19.3626 16.5681 20 17.5 20C18.4437 20 19.2347 19.3464 19.4451 18.4672C20.8909 18.2522 22 17.0056 22 15.5L22 12.5195C22.0002 12.0415 22.0003 11.7097 21.9134 11.3882C21.8265 11.0668 21.6592 10.7803 21.4182 10.3674L19.4283 6.95618C19.0221 6.25892 18.7403 5.77536 18.299 5.46188C18.1681 5.36888 18.0285 5.28872 17.8823 5.22249C17.433 5.01913 16.9286 5.00126 16.2323 5.00001C15.8867 4.40261 15.2408 4 14.5 4H5.5ZM9 16C8.06808 16 7.28503 16.6374 7.06301 17.5H6C4.61929 17.5 3.5 16.3807 3.5 15V13.5H14.5C15.6046 13.5 16.5 12.6046 16.5 11.5V6.00318C17.0252 6.01142 17.263 6.03986 17.4699 6.13349C17.5576 6.17323 17.6414 6.22133 17.7199 6.27713C17.963 6.44976 18.1358 6.72505 18.6189 7.55322L19.1711 8.5H18.5C17.9477 8.5 17.5 8.94772 17.5 9.5V12.5C17.5 13.3284 18.1716 14 19 14H21V15.5C21 16.4588 20.3253 17.26 19.4248 17.4548C19.1874 16.6152 18.4156 16 17.5 16C16.5681 16 15.785 16.6374 15.563 17.5H10.937C10.715 16.6374 9.93192 16 9 16ZM14.5 12.5H3.5V7C3.5 5.89543 4.39543 5 5.5 5H14.5C14.9346 5 15.3057 5.27755 15.4432 5.66662C15.4799 5.77024 15.5 5.88223 15.5 6V11.5C15.5 12.0523 15.0523 12.5 14.5 12.5ZM18.5 9.5H19.7545L20.5232 10.8178C20.8071 11.3045 20.9 11.4716 20.948 11.6492C20.996 11.8268 21 12.018 21 12.5814V13H19C18.7239 13 18.5 12.7761 18.5 12.5V9.5Z" fill="#22202A"/>
<path d="M9.28806 6.80866C9.25 6.90054 9.25 7.01703 9.25 7.25V7.726C9.25 7.73731 9.25 7.74297 9.24649 7.74649C9.24297 7.75 9.23731 7.75 9.226 7.75H8.75C8.51703 7.75 8.40054 7.75 8.30866 7.78806C8.18614 7.83881 8.08881 7.93614 8.03806 8.05866C8 8.15054 8 8.26703 8 8.5C8 8.73297 8 8.84946 8.03806 8.94134C8.08881 9.06386 8.18614 9.16119 8.30866 9.21194C8.40054 9.25 8.51703 9.25 8.75 9.25H9.226C9.23731 9.25 9.24297 9.25 9.24649 9.25351C9.25 9.25703 9.25 9.26269 9.25 9.274V9.75C9.25 9.98297 9.25 10.0995 9.28806 10.1913C9.33881 10.3139 9.43614 10.4112 9.55866 10.4619C9.65054 10.5 9.76703 10.5 10 10.5C10.233 10.5 10.3495 10.5 10.4413 10.4619C10.5639 10.4112 10.6612 10.3139 10.7119 10.1913C10.75 10.0995 10.75 9.98297 10.75 9.75V9.274C10.75 9.26269 10.75 9.25703 10.7535 9.25351C10.757 9.25 10.7627 9.25 10.774 9.25H11.25C11.483 9.25 11.5995 9.25 11.6913 9.21194C11.8139 9.16119 11.9112 9.06386 11.9619 8.94134C12 8.84946 12 8.73297 12 8.5C12 8.26703 12 8.15054 11.9619 8.05866C11.9112 7.93614 11.8139 7.83881 11.6913 7.78806C11.5995 7.75 11.483 7.75 11.25 7.75H10.774C10.7627 7.75 10.757 7.75 10.7535 7.74649C10.75 7.74297 10.75 7.73731 10.75 7.726V7.25C10.75 7.01703 10.75 6.90054 10.7119 6.80866C10.6612 6.68614 10.5639 6.58881 10.4413 6.53806C10.3495 6.5 10.233 6.5 10 6.5C9.76703 6.5 9.65054 6.5 9.55866 6.53806C9.43614 6.58881 9.33881 6.68614 9.28806 6.80866Z" fill="#22202A"/>
</svg>
