<svg width="24" height="24" viewBox="0 0 24 24" fill="none" xmlns="http://www.w3.org/2000/svg">
<path opacity="0.5" d="M18.9749 5.02519C17.608 3.65835 15.392 3.65835 14.0251 5.02518L5.02512 14.0252C3.65829 15.392 3.65829 17.6081 5.02513 18.9749C6.39196 20.3418 8.60803 20.3418 9.97487 18.9749L18.9749 9.97493C20.3417 8.6081 20.3417 6.39202 18.9749 5.02519Z" fill="#22202A"/>
<path d="M11.2932 7.75758L12.0003 7.05048L16.9495 11.9997L16.2424 12.7068L11.2932 7.75758Z" fill="#22202A"/>
<path d="M7.05051 12.0002L7.75761 11.2931L12.7068 16.2424L11.9997 16.9495L7.05051 12.0002Z" fill="#22202A"/>
<path d="M12 10.5858C11.8047 10.7811 11.4882 10.7811 11.2929 10.5858C11.0976 10.3905 11.0976 10.074 11.2929 9.8787C11.4882 9.68344 11.8047 9.68344 12 9.8787C12.1953 10.074 12.1953 10.3905 12 10.5858Z" fill="#22202A"/>
<path d="M10.5858 12C10.3905 12.1953 10.0739 12.1953 9.87869 12C9.68342 11.8047 9.68342 11.4881 9.87869 11.2929C10.0739 11.0976 10.3905 11.0976 10.5858 11.2929C10.7811 11.4881 10.7811 11.8047 10.5858 12Z" fill="#22202A"/>
<path d="M13.0606 11.6465C12.8654 11.8417 12.5488 11.8417 12.3535 11.6465C12.1583 11.4512 12.1583 11.1346 12.3535 10.9394C12.5488 10.7441 12.8654 10.7441 13.0606 10.9394C13.2559 11.1346 13.2559 11.4512 13.0606 11.6465Z" fill="#22202A"/>
<path d="M11.6465 13.0607C11.4512 13.2559 11.1346 13.2559 10.9394 13.0607C10.7441 12.8654 10.7441 12.5488 10.9394 12.3536C11.1346 12.1583 11.4512 12.1583 11.6465 12.3536C11.8417 12.5488 11.8417 12.8654 11.6465 13.0607Z" fill="#22202A"/>
<path d="M14.1213 12.7071C13.9261 12.9023 13.6095 12.9023 13.4142 12.7071C13.2189 12.5118 13.2189 12.1952 13.4142 12C13.6095 11.8047 13.9261 11.8047 14.1213 12C14.3166 12.1952 14.3166 12.5118 14.1213 12.7071Z" fill="#22202A"/>
<path d="M12.7071 14.1213C12.5118 14.3166 12.1953 14.3166 12 14.1213C11.8047 13.9261 11.8047 13.6095 12 13.4142C12.1953 13.219 12.5118 13.219 12.7071 13.4142C12.9024 13.6095 12.9024 13.9261 12.7071 14.1213Z" fill="#22202A"/>
</svg>
