<svg width="24" height="24" viewBox="0 0 24 24" fill="none" xmlns="http://www.w3.org/2000/svg">
<g opacity="0.5">
<path d="M5.27565 5.28926C6.4504 4.1145 8.35619 4.11817 9.52641 5.29744L11.94 7.72965C12.3633 8.15631 12.362 8.84501 11.937 9.27005L9.24039 11.9667C8.81157 12.3955 8.11591 12.3941 7.68875 11.9637L5.26749 9.52369C4.10362 8.35082 4.10727 6.45763 5.27565 5.28926Z" fill="#22202A"/>
<path d="M14.7595 12.0333C15.1884 11.6045 15.884 11.6058 16.3112 12.0363L18.7324 14.4762C19.8963 15.6491 19.8927 17.5423 18.7243 18.7107C17.5495 19.8854 15.6437 19.8818 14.4735 18.7025L12.06 16.2703C11.6366 15.8436 11.6379 15.1549 12.0629 14.7299L14.7595 12.0333Z" fill="#22202A"/>
</g>
<path fill-rule="evenodd" clip-rule="evenodd" d="M14.4749 5.28251C15.6464 4.11094 17.5459 4.11094 18.7175 5.28251C19.8891 6.45409 19.8891 8.35358 18.7175 9.52516L9.52513 18.7175C8.35355 19.8891 6.45406 19.8891 5.28249 18.7175C4.11091 17.546 4.11091 15.6465 5.28248 14.4749L14.4749 5.28251ZM18.0104 5.98962C17.2294 5.20857 15.963 5.20857 15.182 5.98962L12.7071 8.46449L15.5355 11.2929L18.0104 8.81805C18.7915 8.037 18.7915 6.77067 18.0104 5.98962ZM14.8284 12L12 9.1716L9.17157 12L12 14.8285L14.8284 12ZM11.2929 15.5356L8.46447 12.7071L5.98959 15.182C5.20854 15.9631 5.20854 17.2294 5.98959 18.0104C6.77064 18.7915 8.03697 18.7915 8.81802 18.0104L11.2929 15.5356Z" fill="#22202A"/>
<path opacity="0.5" d="M12.5 12C12.5 12.2761 12.2761 12.5 12 12.5C11.7239 12.5 11.5 12.2761 11.5 12C11.5 11.7239 11.7239 11.5 12 11.5C12.2761 11.5 12.5 11.7239 12.5 12Z" fill="#22202A"/>
<path opacity="0.5" d="M12.5 10.5C12.5 10.7761 12.2761 11 12 11C11.7239 11 11.5 10.7761 11.5 10.5C11.5 10.2239 11.7239 10 12 10C12.2761 10 12.5 10.2239 12.5 10.5Z" fill="#22202A"/>
<path opacity="0.5" d="M12.5 13.5C12.5 13.7761 12.2761 14 12 14C11.7239 14 11.5 13.7761 11.5 13.5C11.5 13.2239 11.7239 13 12 13C12.2761 13 12.5 13.2239 12.5 13.5Z" fill="#22202A"/>
<path opacity="0.5" d="M11 12C11 12.2761 10.7761 12.5 10.5 12.5C10.2239 12.5 10 12.2761 10 12C10 11.7239 10.2239 11.5 10.5 11.5C10.7761 11.5 11 11.7239 11 12Z" fill="#22202A"/>
<path opacity="0.5" d="M14 12C14 12.2761 13.7761 12.5 13.5 12.5C13.2239 12.5 13 12.2761 13 12C13 11.7239 13.2239 11.5 13.5 11.5C13.7761 11.5 14 11.7239 14 12Z" fill="#22202A"/>
</svg>
