<svg width="24" height="24" viewBox="0 0 24 24" fill="none" xmlns="http://www.w3.org/2000/svg">
<path fill-rule="evenodd" clip-rule="evenodd" d="M12 19.5C12.2761 19.5 12.5 19.7239 12.5 20V21.5C12.5 21.7761 12.2761 22 12 22C11.7239 22 11.5 21.7761 11.5 21.5V20C11.5 19.7239 11.7239 19.5 12 19.5Z" fill="#22202A"/>
<path opacity="0.5" d="M15 18.5C15.9319 18.5 16.3978 18.5 16.7654 18.3478C17.2554 18.1448 17.6448 17.7554 17.8478 17.2654C18 16.8978 18 16.4319 18 15.5V15C17 15 16.3076 13.5769 15 13.5C13.5155 13.4127 12.9445 14.6469 11.5 15C9.41355 15.51 8.08645 15.51 6 15V15.5C6 16.4319 6 16.8978 6.15224 17.2654C6.35523 17.7554 6.74458 18.1448 7.23463 18.3478C7.60218 18.5 8.06812 18.5 9 18.5H15Z" fill="#22202A"/>
<path fill-rule="evenodd" clip-rule="evenodd" d="M13.3185 14.6335C12.8793 14.9366 12.3385 15.3098 11.6187 15.4857C9.45427 16.0148 8.04572 16.0148 5.88127 15.4857C5.61302 15.4201 5.44872 15.1495 5.51429 14.8813C5.57987 14.613 5.85048 14.4487 6.11872 14.5143C8.12717 15.0053 9.37282 15.0053 11.3813 14.5143C11.91 14.3851 12.2916 14.1238 12.7352 13.8201C12.807 13.771 12.8803 13.7208 12.9562 13.6698C13.4897 13.3115 14.1188 12.9473 15.0294 13.0009C15.8594 13.0497 16.4734 13.5288 16.9257 13.8868C16.9467 13.9035 16.9673 13.9198 16.9876 13.9359C17.2015 14.1055 17.3752 14.2433 17.5491 14.3469C17.7323 14.456 17.8732 14.5 18 14.5C18.2761 14.5 18.5 14.7239 18.5 15C18.5 15.2762 18.2761 15.5 18 15.5C17.6267 15.5 17.3061 15.3661 17.0374 15.206C16.8022 15.0659 16.5746 14.885 16.3722 14.7242C16.3494 14.7061 16.327 14.6883 16.305 14.6709C15.8342 14.2982 15.4482 14.0272 14.9706 13.9991C14.3967 13.9654 13.9981 14.1747 13.5138 14.4999C13.4509 14.5422 13.3859 14.587 13.3185 14.6335Z" fill="#22202A"/>
<path fill-rule="evenodd" clip-rule="evenodd" d="M10.165 2.99334C11.1057 1.81741 12.8942 1.81741 13.835 2.99334C14.0912 3.31356 14.479 3.49998 14.8891 3.49998H15.2984C15.3259 3.49998 15.353 3.49997 15.3797 3.49996C15.9536 3.49976 16.3453 3.49962 16.6801 3.59426C17.516 3.83058 18.1694 4.48393 18.4057 5.3199C18.5003 5.65465 18.5002 6.04638 18.5 6.62029C18.5 6.64698 18.5 6.67405 18.5 6.70154V15.5177C18.5 15.9686 18.5 16.3323 18.4798 16.6283C18.459 16.9327 18.4152 17.2018 18.3097 17.4567C18.0559 18.0693 17.5693 18.5559 16.9567 18.8097C16.7018 18.9152 16.4327 18.959 16.1283 18.9798C15.9461 18.9922 15.7381 18.997 15.5 18.9988V19.25C15.5 19.2563 15.5 19.2628 15.5 19.2696C15.5002 19.3978 15.5005 19.6109 15.439 19.8115C15.3628 20.0605 15.1926 20.2955 14.8827 20.4239C14.7656 20.4723 14.6528 20.4876 14.5576 20.4941C14.4705 20.5 14.3682 20.5 14.2632 20.5H9.73674C9.63171 20.5 9.5294 20.5 9.44236 20.4941C9.34717 20.4876 9.23431 20.4723 9.11729 20.4239C8.80734 20.2955 8.63718 20.0605 8.56091 19.8115C8.49946 19.6109 8.49977 19.3978 8.49996 19.2696C8.49997 19.2628 8.49998 19.2563 8.49998 19.25V18.9988C8.26183 18.997 8.05389 18.9922 7.87163 18.9798C7.56726 18.959 7.29812 18.9152 7.04327 18.8097C6.4307 18.5559 5.94401 18.0693 5.69028 17.4567C5.58471 17.2018 5.54093 16.9327 5.52017 16.6283C5.49997 16.3323 5.49997 15.9686 5.49998 15.5177L5.49998 6.70154C5.49998 6.67406 5.49997 6.64698 5.49996 6.62029C5.49976 6.04638 5.49962 5.65465 5.59425 5.3199C5.83058 4.48393 6.48393 3.83058 7.3199 3.59426C7.65465 3.49962 8.04638 3.49976 8.62029 3.49996C8.64698 3.49997 8.67405 3.49998 8.70154 3.49998H9.11085C9.52094 3.49998 9.90879 3.31356 10.165 2.99334ZM9.49998 19V19.25C9.49998 19.324 9.50025 19.3788 9.50374 19.4287C9.50586 19.4589 9.50882 19.4809 9.51178 19.4965C9.56044 19.4997 9.62779 19.5 9.74998 19.5H14.25C14.3722 19.5 14.4395 19.4997 14.4882 19.4965C14.4911 19.4809 14.4941 19.4589 14.4962 19.4287C14.4997 19.3788 14.5 19.324 14.5 19.25V19H9.49998ZM13.0541 3.61803C12.5137 2.94251 11.4863 2.94251 10.9458 3.61803C10.4999 4.17547 9.82472 4.49998 9.11085 4.49998H8.70154C8.01505 4.49998 7.77522 4.50473 7.59193 4.55654C7.09035 4.69834 6.69834 5.09035 6.55654 5.59193C6.50473 5.77522 6.49998 6.01505 6.49998 6.70154V15.5C6.49998 15.9728 6.50025 16.3023 6.51785 16.5603C6.53514 16.8137 6.56748 16.9613 6.61416 17.074C6.7664 17.4415 7.05841 17.7336 7.42595 17.8858C7.53864 17.9325 7.68624 17.9648 7.9397 17.9821C8.19765 17.9997 8.52719 18 8.99998 18H15C15.4728 18 15.8023 17.9997 16.0603 17.9821C16.3137 17.9648 16.4613 17.9325 16.574 17.8858C16.9415 17.7336 17.2336 17.4415 17.3858 17.074C17.4325 16.9613 17.4648 16.8137 17.4821 16.5603C17.4997 16.3023 17.5 15.9728 17.5 15.5V6.70154C17.5 6.01505 17.4952 5.77522 17.4434 5.59193C17.3016 5.09035 16.9096 4.69834 16.408 4.55654C16.2247 4.50473 15.9849 4.49998 15.2984 4.49998H14.8891C14.1752 4.49998 13.5001 4.17547 13.0541 3.61803Z" fill="#22202A"/>
</svg>
