<svg width="24" height="24" viewBox="0 0 24 24" fill="none" xmlns="http://www.w3.org/2000/svg">
<path opacity="0.5" d="M6 8C4.5 8 4.5 10 6 10L8.00052 10C8.5528 10 9 10.4445 9 10.9968V20.5C9 22 11 22 11 20.5C11 19 11 16 12 16C13 16 13 19 13 20.5C13 22 15 22 15 20.5V11C15 10.4477 15.4477 10 16 10H18C19.5 10 19.5 8 18 8H6Z" fill="#22202A"/>
<path fill-rule="evenodd" clip-rule="evenodd" d="M5.5098 9.33395C5.5927 9.41685 5.74146 9.5 6 9.5L8.00052 9.5C8.82717 9.5 9.5 10.1666 9.5 10.9968V20.5C9.5 20.7585 9.58316 20.9073 9.66605 20.9902C9.75366 21.0778 9.87368 21.125 10 21.125C10.1263 21.125 10.2463 21.0778 10.3339 20.9902C10.4168 20.9073 10.5 20.7585 10.5 20.5V20.4866C10.5 19.7431 10.5 18.5919 10.6294 17.6214C10.6938 17.138 10.7954 16.6564 10.9679 16.2827C11.1321 15.9269 11.4465 15.5 12 15.5C12.5535 15.5 12.8679 15.9269 13.0321 16.2827C13.2046 16.6564 13.3062 17.138 13.3706 17.6214C13.5 18.5919 13.5 19.7431 13.5 20.4866V20.5C13.5 20.7585 13.5832 20.9073 13.6661 20.9902C13.7537 21.0778 13.8737 21.125 14 21.125C14.1263 21.125 14.2463 21.0778 14.3339 20.9902C14.4168 20.9073 14.5 20.7585 14.5 20.5V11C14.5 10.1716 15.1716 9.5 16 9.5H18C18.2585 9.5 18.4073 9.41685 18.4902 9.33395C18.5778 9.24634 18.625 9.12632 18.625 9C18.625 8.87368 18.5778 8.75366 18.4902 8.66605C18.4073 8.58316 18.2585 8.5 18 8.5H6C5.74146 8.5 5.5927 8.58316 5.5098 8.66605C5.4222 8.75366 5.375 8.87368 5.375 9C5.375 9.12632 5.4222 9.24635 5.5098 9.33395ZM4.8027 7.95895C5.0948 7.66685 5.50854 7.5 6 7.5H18C18.4915 7.5 18.9052 7.66684 19.1973 7.95895C19.4847 8.24634 19.625 8.62632 19.625 9C19.625 9.37368 19.4847 9.75366 19.1973 10.0411C18.9052 10.3332 18.4915 10.5 18 10.5H16C15.7239 10.5 15.5 10.7239 15.5 11V20.5C15.5 20.9915 15.3332 21.4052 15.0411 21.6973C14.7537 21.9847 14.3737 22.125 14 22.125C13.6263 22.125 13.2463 21.9847 12.9589 21.6973C12.6668 21.4052 12.5 20.9915 12.5 20.5C12.5 19.743 12.4992 18.6523 12.3794 17.7536C12.3188 17.2995 12.2329 16.9373 12.1241 16.7017C12.0672 16.5782 12.0236 16.5272 12 16.5073C11.9764 16.5272 11.9328 16.5782 11.8759 16.7017C11.7671 16.9373 11.6812 17.2995 11.6206 17.7536C11.5008 18.6523 11.5 19.743 11.5 20.5C11.5 20.9915 11.3332 21.4052 11.0411 21.6973C10.7537 21.9847 10.3737 22.125 10 22.125C9.62632 22.125 9.24634 21.9847 8.95895 21.6973C8.66684 21.4052 8.5 20.9915 8.5 20.5V10.9968C8.5 10.7224 8.27843 10.5 8.00052 10.5L6 10.5C5.50854 10.5 5.0948 10.3332 4.8027 10.0411C4.5153 9.75366 4.375 9.37368 4.375 9C4.375 8.62632 4.5153 8.24635 4.8027 7.95895ZM12.0196 16.4958C12.0197 16.4964 12.017 16.4981 12.0111 16.4991C12.0166 16.4958 12.0195 16.4953 12.0196 16.4958ZM11.9889 16.4991C11.983 16.4981 11.9803 16.4964 11.9804 16.4958C11.9805 16.4953 11.9834 16.4958 11.9889 16.4991Z" fill="#22202A"/>
<path opacity="0.5" d="M14 4.5C14 5.60457 13.1046 6.5 12 6.5C10.8954 6.5 10 5.60457 10 4.5C10 3.39543 10.8954 2.5 12 2.5C13.1046 2.5 14 3.39543 14 4.5Z" fill="#22202A"/>
<path fill-rule="evenodd" clip-rule="evenodd" d="M12 3C11.1716 3 10.5 3.67157 10.5 4.5C10.5 5.32843 11.1716 6 12 6C12.8284 6 13.5 5.32843 13.5 4.5C13.5 3.67157 12.8284 3 12 3ZM9.5 4.5C9.5 3.11929 10.6193 2 12 2C13.3807 2 14.5 3.11929 14.5 4.5C14.5 5.88071 13.3807 7 12 7C10.6193 7 9.5 5.88071 9.5 4.5Z" fill="#22202A"/>
</svg>
