<svg width="24" height="24" viewBox="0 0 24 24" fill="none" xmlns="http://www.w3.org/2000/svg">
<path opacity="0.5" d="M11.5132 11.9164C10.6264 11.1856 9.9267 10.2505 9.14083 8.86902L4.84383 13.8067C3.54938 15.2942 3.70585 17.5494 5.19331 18.8438C6.68078 20.1383 8.93597 19.9818 10.2304 18.4944L10.6656 17.9943C10.2422 17.2601 10 16.4084 10 15.5C10 14.0947 10.5798 12.8248 11.5132 11.9164Z" fill="#22202A"/>
<path fill-rule="evenodd" clip-rule="evenodd" d="M17.3654 4.85676C16.0863 3.74358 14.1469 3.87814 13.0337 5.15729L9.75252 8.92776C10.3496 9.94104 10.8924 10.6688 11.5105 11.2485C12.4599 10.4684 13.6753 10 15 10C15.6003 10 16.1789 10.0963 16.7207 10.2747L17.666 9.18846C18.7791 7.9093 18.6446 5.96993 17.3654 4.85676ZM10.5 15.5C10.5 13.0147 12.5147 11 15 11C15.5967 11 16.1651 11.1159 16.6848 11.3259L17.0153 11.4594L18.4203 9.84493C19.8961 8.14915 19.7177 5.57814 18.0219 4.1024C16.3261 2.62667 13.7551 2.80505 12.2794 4.50083L4.46666 13.4785C2.99093 15.1743 3.16931 17.7453 4.86508 19.221C5.90908 20.1295 7.08606 20.361 8.19764 20.1181C9.28857 19.8798 10.2845 19.1939 11.0428 18.3225L11.2769 18.0534L11.0988 17.7445C10.718 17.0843 10.5 16.3184 10.5 15.5ZM10.798 11.9511C9.98823 12.909 9.50002 14.1475 9.50002 15.5C9.50002 16.3659 9.70044 17.186 10.0576 17.9156C9.4463 18.5375 8.72018 18.9804 7.98418 19.1412C7.17382 19.3182 6.32122 19.1626 5.52155 18.4666C4.2424 17.3535 4.10784 15.4141 5.22101 14.1349L9.06225 9.72096" fill="#22202A"/>
<path fill-rule="evenodd" clip-rule="evenodd" d="M16.4445 5.61062C16.5135 5.34324 16.3526 5.07055 16.0852 5.00157C14.4962 4.59163 13.5268 5.70696 13.1402 6.15182C13.1343 6.15862 13.1285 6.16527 13.1228 6.17174C12.9416 6.38005 12.9635 6.69588 13.1718 6.87716C13.3801 7.05843 13.6959 7.03652 13.8772 6.82821C14.284 6.36078 14.8719 5.7213 15.8354 5.96987C16.1028 6.03885 16.3755 5.87801 16.4445 5.61062Z" fill="#22202A"/>
<path fill-rule="evenodd" clip-rule="evenodd" d="M15 11C12.5147 11 10.5 13.0147 10.5 15.5C10.5 17.9853 12.5147 20 15 20C17.4853 20 19.5 17.9853 19.5 15.5C19.5 13.0147 17.4853 11 15 11ZM9.5 15.5C9.5 12.4624 11.9624 10 15 10C18.0376 10 20.5 12.4624 20.5 15.5C20.5 18.5376 18.0376 21 15 21C11.9624 21 9.5 18.5376 9.5 15.5Z" fill="#22202A"/>
<path fill-rule="evenodd" clip-rule="evenodd" d="M11.1363 16.5353C11.0648 16.2685 11.2231 15.9944 11.4899 15.9229L18.2513 14.1112C18.5181 14.0397 18.7922 14.198 18.8637 14.4647C18.9352 14.7315 18.7769 15.0056 18.5102 15.0771L11.7487 16.8888C11.4819 16.9603 11.2078 16.802 11.1363 16.5353Z" fill="#22202A"/>
</svg>
