<svg width="24" height="24" viewBox="0 0 24 24" fill="none" xmlns="http://www.w3.org/2000/svg">
<path opacity="0.5" fill-rule="evenodd" clip-rule="evenodd" d="M15.875 10.7263V17.625C15.875 19.7651 14.1401 21.5 12 21.5C9.8599 21.5 8.125 19.7651 8.125 17.625V10.7322L8.79054 10.9657C10.1065 11.4274 11.0842 11.6416 12.0317 11.6408C12.9783 11.64 13.9339 11.4245 15.2058 10.967L15.875 10.7263Z" fill="#22202A"/>
<path fill-rule="evenodd" clip-rule="evenodd" d="M8.125 6.375C8.125 4.2349 9.8599 2.5 12 2.5C14.1401 2.5 15.875 4.2349 15.875 6.375V17.625C15.875 19.7651 14.1401 21.5 12 21.5C9.8599 21.5 8.125 19.7651 8.125 17.625V6.375ZM12 3.5C10.4122 3.5 9.125 4.78718 9.125 6.375V17.625C9.125 19.2128 10.4122 20.5 12 20.5C13.5878 20.5 14.875 19.2128 14.875 17.625V6.375C14.875 4.78718 13.5878 3.5 12 3.5Z" fill="#22202A"/>
<path fill-rule="evenodd" clip-rule="evenodd" d="M11.8847 4.46388C11.7612 4.21689 11.4609 4.11678 11.2139 4.24027C9.81117 4.94164 9.81213 6.35435 9.8125 6.91149C9.81251 6.92038 9.81251 6.92904 9.81251 6.93749C9.81251 7.21363 10.0364 7.43749 10.3125 7.43749C10.5887 7.43749 10.8125 7.21363 10.8125 6.93749C10.8125 6.35039 10.8362 5.54715 11.6611 5.1347C11.9081 5.01121 12.0082 4.71087 11.8847 4.46388Z" fill="#22202A"/>
</svg>
