<svg width="24" height="24" viewBox="0 0 24 24" fill="none" xmlns="http://www.w3.org/2000/svg">
<path fill-rule="evenodd" clip-rule="evenodd" d="M8.57198 3.75171C8.78657 3.02796 9.45664 2.5 10.25 2.5H13.75C14.5434 2.5 15.2135 3.02796 15.4281 3.75171C15.6491 3.75525 15.8265 3.76595 15.9877 3.79804C16.9795 3.9953 17.7547 4.77055 17.952 5.76227C18.0002 6.00468 18.0001 6.28332 18 6.69213C18 6.71114 18 6.73042 18 6.75V15.5374C18 16.6842 18 17.5957 17.904 18.3098C17.805 19.046 17.5958 19.6468 17.1213 20.1213C16.6468 20.5958 16.0461 20.805 15.3098 20.904C14.5957 21 13.6842 21 12.5374 21H11.4626C10.3158 21 9.40431 21 8.69022 20.904C7.95399 20.805 7.3532 20.5958 6.8787 20.1213C6.4042 19.6468 6.19499 19.046 6.09601 18.3098C6 17.5957 6.00001 16.6842 6.00002 15.5374L6.00002 6.75C6.00002 6.73042 6.00001 6.71113 6.00001 6.69212C5.99991 6.28332 5.99984 6.00468 6.04806 5.76227C6.24532 4.77055 7.02057 3.9953 8.01229 3.79804C8.17359 3.76595 8.35093 3.75525 8.57198 3.75171ZM8.57311 4.7521C8.38966 4.75509 8.29089 4.76221 8.20738 4.77882C7.61235 4.89718 7.1472 5.36233 7.02884 5.95736C7.00244 6.09009 7.00002 6.26138 7.00002 6.75V15.5C7.00002 16.6926 7.00108 17.5368 7.08709 18.1766C7.17116 18.8019 7.32807 19.1565 7.58581 19.4142C7.84354 19.6719 8.19812 19.8289 8.82346 19.9129C9.46319 19.9989 10.3074 20 11.5 20H12.5C13.6927 20 14.5368 19.9989 15.1766 19.9129C15.8019 19.8289 16.1565 19.6719 16.4142 19.4142C16.672 19.1565 16.8289 18.8019 16.9129 18.1766C16.999 17.5368 17 16.6926 17 15.5V6.75C17 6.26138 16.9976 6.09009 16.9712 5.95736C16.8528 5.36233 16.3877 4.89718 15.7927 4.77882C15.7092 4.76221 15.6104 4.75509 15.4269 4.7521C15.2111 5.47389 14.542 6 13.75 6H10.25C9.45803 6 8.78892 5.47389 8.57311 4.7521ZM10.25 3.5C9.8358 3.5 9.50002 3.83579 9.50002 4.25C9.50002 4.66421 9.8358 5 10.25 5H13.75C14.1642 5 14.5 4.66421 14.5 4.25C14.5 3.83579 14.1642 3.5 13.75 3.5H10.25Z" fill="#22202A"/>
<path opacity="0.5" d="M15 4.25C15 4.94036 14.4404 5.5 13.75 5.5H10.25C9.55964 5.5 9 4.94036 9 4.25C8.53534 4.25 8.30302 4.25 8.10982 4.28843C7.31644 4.44624 6.69624 5.06644 6.53843 5.85982C6.5 6.05302 6.5 6.28534 6.5 6.75V15.5C6.5 17.857 6.5 19.0355 7.23223 19.7678C7.96447 20.5 9.14298 20.5 11.5 20.5H12.5C14.857 20.5 16.0355 20.5 16.7678 19.7678C17.5 19.0355 17.5 17.857 17.5 15.5V6.75C17.5 6.28534 17.5 6.05302 17.4616 5.85982C17.3038 5.06644 16.6836 4.44624 15.8902 4.28843C15.697 4.25 15.4647 4.25 15 4.25Z" fill="#22202A"/>
<path fill-rule="evenodd" clip-rule="evenodd" d="M10.3737 11.1612L9.53236 13.9655C9.43719 14.2828 9.1452 14.5 8.81399 14.5H8.5C8.22386 14.5 8 14.2761 8 14C8 13.7239 8.22386 13.5 8.5 13.5H8.62798L9.83951 9.46158C10.0364 8.80545 10.9832 8.8608 11.1022 9.5354L12.0844 15.101L12.4676 13.5681C12.5511 13.2342 12.851 13 13.1952 13H15.5C15.7761 13 16 13.2239 16 13.5C16 13.7761 15.7761 14 15.5 14H13.3904L12.6559 16.9379C12.4858 17.6185 11.5071 17.5841 11.3852 16.8933L10.3737 11.1612Z" fill="#22202A"/>
</svg>
