<svg width="24" height="24" viewBox="0 0 24 24" fill="none" xmlns="http://www.w3.org/2000/svg">
<path opacity="0.5" fill-rule="evenodd" clip-rule="evenodd" d="M8.73165 3.00072C8.4559 2.98605 8.22047 3.1977 8.20579 3.47345C8.13012 4.89568 8.43634 6.08398 9.08053 7.03929C9.72273 7.99166 10.6727 8.67096 11.8149 9.12785C12.5197 9.40981 13.279 9.74151 13.8632 10.2139C14.4324 10.6742 14.8017 11.2389 14.8056 12.0078C14.8095 12.7887 14.4426 13.3563 13.8759 13.8141C13.2932 14.2849 12.5309 14.6116 11.8215 14.8836C10.6686 15.3257 9.71853 16.0079 9.07826 16.9639C8.43686 17.9216 8.13363 19.1134 8.20574 20.5255C8.21982 20.8013 8.45481 21.0134 8.73059 20.9994C9.00637 20.9853 9.21852 20.7503 9.20444 20.4745C9.14131 19.2383 9.40792 18.2687 9.90913 17.5204C10.4115 16.7703 11.1767 16.2019 12.1796 15.8173C12.8926 15.5439 13.7877 15.171 14.5044 14.5919C15.237 14 15.8114 13.1677 15.8056 12.0028C15.7998 10.8501 15.2208 10.0256 14.492 9.43632C13.7782 8.85915 12.8898 8.48084 12.1863 8.19939C11.1829 7.79801 10.4143 7.22855 9.90963 6.4802C9.40699 5.73479 9.1382 4.77042 9.20438 3.52658C9.21905 3.25083 9.00741 3.01539 8.73165 3.00072Z" fill="#22202A"/>
<path fill-rule="evenodd" clip-rule="evenodd" d="M15.2684 3.00072C15.5442 2.98605 15.7796 3.1977 15.7943 3.47345C15.8699 4.89568 15.5637 6.08398 14.9195 7.03929C14.2773 7.99166 13.3273 8.67096 12.1852 9.12785C11.4804 9.40981 10.7211 9.74151 10.1369 10.2139C9.56768 10.6742 9.19836 11.2389 9.19449 12.0078C9.19056 12.7887 9.55746 13.3563 10.1241 13.8141C10.7068 14.2849 11.4692 14.6116 12.1785 14.8836C13.3315 15.3257 14.2815 16.0079 14.9218 16.9639C15.5632 17.9216 15.8664 19.1134 15.7943 20.5255C15.7802 20.8013 15.5453 21.0134 15.2695 20.9994C14.9937 20.9853 14.7815 20.7503 14.7956 20.4745C14.8588 19.2383 14.5921 18.2687 14.0909 17.5204C13.5886 16.7703 12.8233 16.2019 11.8205 15.8173C11.1074 15.5439 10.2123 15.171 9.49569 14.5919C8.76302 14 8.18863 13.1677 8.1945 12.0028C8.20031 10.8501 8.7793 10.0256 9.50809 9.43632C10.2219 8.85915 11.1102 8.48084 11.8138 8.19939C12.8171 7.79801 13.5858 7.22855 14.0904 6.4802C14.5931 5.73479 14.8619 4.77042 14.7957 3.52658C14.781 3.25083 14.9927 3.01539 15.2684 3.00072Z" fill="#22202A"/>
<path fill-rule="evenodd" clip-rule="evenodd" d="M9.5 19.5C9.5 19.2239 9.72386 19 10 19H14C14.2761 19 14.5 19.2239 14.5 19.5C14.5 19.7761 14.2761 20 14 20H10C9.72386 20 9.5 19.7761 9.5 19.5Z" fill="#22202A"/>
<path fill-rule="evenodd" clip-rule="evenodd" d="M10.5 6C10.5 5.72386 10.7239 5.5 11 5.5H13C13.2761 5.5 13.5 5.72386 13.5 6C13.5 6.27614 13.2761 6.5 13 6.5H11C10.7239 6.5 10.5 6.27614 10.5 6Z" fill="#22202A"/>
<path fill-rule="evenodd" clip-rule="evenodd" d="M9.5 4.5C9.5 4.22386 9.72386 4 10 4H14C14.2761 4 14.5 4.22386 14.5 4.5C14.5 4.77614 14.2761 5 14 5H10C9.72386 5 9.5 4.77614 9.5 4.5Z" fill="#22202A"/>
<path fill-rule="evenodd" clip-rule="evenodd" d="M10.5 18C10.5 17.7239 10.7239 17.5 11 17.5H13C13.2761 17.5 13.5 17.7239 13.5 18C13.5 18.2761 13.2761 18.5 13 18.5H11C10.7239 18.5 10.5 18.2761 10.5 18Z" fill="#22202A"/>
<path fill-rule="evenodd" clip-rule="evenodd" d="M10.5555 10.6666C10.5555 10.3905 10.7794 10.1666 11.0555 10.1666H12.9444C13.2206 10.1666 13.4444 10.3905 13.4444 10.6666C13.4444 10.9428 13.2206 11.1666 12.9444 11.1666H11.0555C10.7794 11.1666 10.5555 10.9428 10.5555 10.6666ZM9.61108 12.0833C9.61108 11.8072 9.83494 11.5833 10.1111 11.5833H13.8889C14.165 11.5833 14.3889 11.8072 14.3889 12.0833C14.3889 12.3594 14.165 12.5833 13.8889 12.5833H10.1111C9.83494 12.5833 9.61108 12.3594 9.61108 12.0833ZM10.5555 13.5C10.5555 13.2238 10.7794 13 11.0555 13H12.9444C13.2206 13 13.4444 13.2238 13.4444 13.5C13.4444 13.7761 13.2206 14 12.9444 14H11.0555C10.7794 14 10.5555 13.7761 10.5555 13.5Z" fill="#22202A"/>
</svg>
