<svg width="24" height="24" viewBox="0 0 24 24" fill="none" xmlns="http://www.w3.org/2000/svg">
<path opacity="0.5" d="M6.5 9H17.5V18H6.5V9Z" fill="#22202A"/>
<path d="M11.1101 11.3858C11.0625 11.5007 11.0625 11.6463 11.0625 11.9375V12.5325C11.0625 12.5466 11.0625 12.5537 11.0581 12.5581C11.0537 12.5625 11.0466 12.5625 11.0325 12.5625H10.4375C10.1463 12.5625 10.0007 12.5625 9.88582 12.6101C9.73268 12.6735 9.61101 12.7952 9.54758 12.9483C9.5 13.0632 9.5 13.2088 9.5 13.5C9.5 13.7912 9.5 13.9368 9.54758 14.0517C9.61101 14.2048 9.73268 14.3265 9.88582 14.3899C10.0007 14.4375 10.1463 14.4375 10.4375 14.4375H11.0325C11.0466 14.4375 11.0537 14.4375 11.0581 14.4419C11.0625 14.4463 11.0625 14.4534 11.0625 14.4675V15.0625C11.0625 15.3537 11.0625 15.4993 11.1101 15.6142C11.1735 15.7673 11.2952 15.889 11.4483 15.9524C11.5632 16 11.7088 16 12 16C12.2912 16 12.4368 16 12.5517 15.9524C12.7048 15.889 12.8265 15.7673 12.8899 15.6142C12.9375 15.4993 12.9375 15.3537 12.9375 15.0625V14.4675C12.9375 14.4534 12.9375 14.4463 12.9419 14.4419C12.9463 14.4375 12.9534 14.4375 12.9675 14.4375H13.5625C13.8537 14.4375 13.9993 14.4375 14.1142 14.3899C14.2673 14.3265 14.389 14.2048 14.4524 14.0517C14.5 13.9368 14.5 13.7912 14.5 13.5C14.5 13.2088 14.5 13.0632 14.4524 12.9483C14.389 12.7952 14.2673 12.6735 14.1142 12.6101C13.9993 12.5625 13.8537 12.5625 13.5625 12.5625H12.9675C12.9534 12.5625 12.9463 12.5625 12.9419 12.5581C12.9375 12.5537 12.9375 12.5466 12.9375 12.5325V11.9375C12.9375 11.6463 12.9375 11.5007 12.8899 11.3858C12.8265 11.2327 12.7048 11.111 12.5517 11.0476C12.4368 11 12.2912 11 12 11C11.7088 11 11.5632 11 11.4483 11.0476C11.2952 11.111 11.1735 11.2327 11.1101 11.3858Z" fill="#22202A"/>
<path fill-rule="evenodd" clip-rule="evenodd" d="M9.45123 4.5H14.5488C15.2259 4.49998 15.7842 4.49997 16.2261 4.55938C16.69 4.62175 17.0997 4.75773 17.4278 5.08579C17.7558 5.41384 17.8918 5.82355 17.9542 6.28747C18.0136 6.72935 18.0136 7.28766 18.0135 7.96473V18.0259C18.0135 18.5289 18.0136 18.944 17.9796 19.279C17.9442 19.6282 17.8678 19.9454 17.6784 20.2298C17.5316 20.4504 17.3424 20.6397 17.1217 20.7865C16.8373 20.9759 16.5201 21.0522 16.171 21.0877C15.8359 21.1216 15.4209 21.1216 14.9179 21.1216H9.0822C8.57919 21.1216 8.16416 21.1216 7.82909 21.0877C7.47996 21.0522 7.16278 20.9759 6.87832 20.7865C6.65769 20.6397 6.46846 20.4504 6.32161 20.2298C6.13227 19.9454 6.05589 19.6282 6.02048 19.279C5.98649 18.944 5.9865 18.5289 5.98651 18.0259L5.98651 7.96472C5.98649 7.28766 5.98648 6.72935 6.04589 6.28747C6.10826 5.82355 6.24424 5.41384 6.5723 5.08579C6.90035 4.75773 7.31007 4.62175 7.77398 4.55938C8.21586 4.49997 8.77417 4.49998 9.45123 4.5ZM7.90723 5.55046C7.5542 5.59792 7.39069 5.68161 7.27941 5.79289C7.16812 5.90418 7.08443 6.06769 7.03697 6.42072C6.98757 6.78813 6.98651 7.27876 6.98651 8V8.5H17.0135V8C17.0135 7.27876 17.0125 6.78813 16.9631 6.42072C16.9156 6.06769 16.8319 5.90418 16.7206 5.79289C16.6094 5.68161 16.4458 5.59792 16.0928 5.55046C15.7254 5.50106 15.2348 5.5 14.5135 5.5H9.48651C8.76527 5.5 8.27464 5.50106 7.90723 5.55046ZM17.0135 9.5H6.98651V17.5H17.0135V9.5ZM17.0122 18.5H6.98787C6.99027 18.7783 6.99694 18.9964 7.01538 19.1781C7.04279 19.4485 7.09208 19.5826 7.15406 19.6757C7.22749 19.786 7.3221 19.8806 7.43241 19.9541C7.52553 20.0161 7.65967 20.0653 7.93 20.0928C8.20864 20.121 8.57269 20.1216 9.10813 20.1216H14.8919C15.4274 20.1216 15.7914 20.121 16.0701 20.0928C16.3404 20.0653 16.4745 20.0161 16.5676 19.9541C16.6779 19.8806 16.7726 19.786 16.846 19.6757C16.908 19.5826 16.9573 19.4485 16.9847 19.1781C17.0031 18.9964 17.0098 18.7783 17.0122 18.5Z" fill="#22202A"/>
<path opacity="0.5" d="M8.32434 4.31083C8.32434 4.13481 8.32434 4.04679 8.34626 3.97523C8.39488 3.81646 8.51916 3.69218 8.67793 3.64356C8.74949 3.62164 8.83751 3.62164 9.01353 3.62164H14.9865C15.1625 3.62164 15.2505 3.62164 15.3221 3.64356C15.4809 3.69218 15.6052 3.81646 15.6538 3.97523C15.6757 4.04679 15.6757 4.13481 15.6757 4.31083C15.6757 4.48685 15.6757 4.57487 15.6538 4.64643C15.6052 4.8052 15.4809 4.92948 15.3221 4.9781C15.2505 5.00002 15.1625 5.00002 14.9865 5.00002H9.01353C8.83751 5.00002 8.74949 5.00002 8.67793 4.9781C8.51916 4.92948 8.39488 4.8052 8.34626 4.64643C8.32434 4.57487 8.32434 4.48685 8.32434 4.31083Z" fill="#22202A"/>
<path fill-rule="evenodd" clip-rule="evenodd" d="M8.97522 3.12156C8.9883 3.1216 9.00108 3.12164 9.01353 3.12164H14.9865C14.999 3.12164 15.0117 3.1216 15.0248 3.12156C15.1581 3.1211 15.3217 3.12053 15.4685 3.16548C15.7861 3.26273 16.0346 3.51128 16.1319 3.82882C16.1768 3.97559 16.1762 4.13925 16.1758 4.27252C16.1757 4.2856 16.1757 4.29839 16.1757 4.31083C16.1757 4.32328 16.1757 4.33607 16.1758 4.34915C16.1762 4.48242 16.1768 4.64608 16.1319 4.79285C16.0346 5.11039 15.7861 5.35894 15.4685 5.45619C15.3217 5.50114 15.1581 5.50057 15.0248 5.50011C15.0117 5.50007 14.999 5.50002 14.9865 5.50002H9.01353C9.00108 5.50002 8.9883 5.50007 8.97522 5.50011C8.84194 5.50057 8.67829 5.50114 8.53152 5.45619C8.21397 5.35894 7.96542 5.11039 7.86818 4.79285C7.82323 4.64608 7.82379 4.48242 7.82425 4.34915C7.8243 4.33607 7.82434 4.32328 7.82434 4.31083C7.82434 4.29839 7.8243 4.2856 7.82425 4.27252C7.82379 4.13925 7.82323 3.97559 7.86818 3.82882C7.96542 3.51128 8.21397 3.26273 8.53152 3.16548C8.67829 3.12053 8.84194 3.1211 8.97522 3.12156ZM8.82673 4.12403C8.82663 4.12578 8.82652 4.12767 8.82641 4.1297C8.8245 4.16673 8.82434 4.21767 8.82434 4.31083C8.82434 4.404 8.8245 4.45493 8.82641 4.49197C8.82652 4.494 8.82663 4.49588 8.82673 4.49763C8.82848 4.49774 8.83037 4.49785 8.83239 4.49795C8.86943 4.49987 8.92037 4.50002 9.01353 4.50002H14.9865C15.0797 4.50002 15.1306 4.49987 15.1676 4.49795C15.1697 4.49785 15.1716 4.49774 15.1733 4.49763C15.1734 4.49588 15.1735 4.494 15.1736 4.49197C15.1755 4.45493 15.1757 4.404 15.1757 4.31083C15.1757 4.21767 15.1755 4.16673 15.1736 4.1297C15.1735 4.12767 15.1734 4.12578 15.1733 4.12403C15.1716 4.12393 15.1697 4.12382 15.1676 4.12372C15.1306 4.1218 15.0797 4.12164 14.9865 4.12164H9.01353C8.92037 4.12164 8.86943 4.1218 8.83239 4.12372C8.83037 4.12382 8.82848 4.12393 8.82673 4.12403Z" fill="#22202A"/>
</svg>
