<svg width="24" height="24" viewBox="0 0 24 24" fill="none" xmlns="http://www.w3.org/2000/svg">
<path d="M6.5 17C5.67157 17 5 17.6716 5 18.5C5 19.0523 5.44771 19.5 6 19.5H17.9392C18.4915 19.5 18.9392 19.0523 18.9392 18.5C18.9392 17.6716 18.2676 17 17.4392 17H6.5Z" fill="#22202A"/>
<path opacity="0.5" d="M11.9392 5.5C8.34934 5.5 5.43919 8.41015 5.43919 12L5.43917 14.7919C5.43902 14.9823 5.43889 15.1462 5.46801 15.2926C5.58637 15.8877 6.05152 16.3528 6.64656 16.4712C6.79298 16.5003 6.95689 16.5002 7.14724 16.5H16.7311C16.9215 16.5002 17.0854 16.5003 17.2318 16.4712C17.8269 16.3528 18.292 15.8877 18.4104 15.2926C18.4395 15.1462 18.4394 14.9823 18.4392 14.792L18.4392 12C18.4392 8.41015 15.529 5.5 11.9392 5.5Z" fill="#22202A"/>
<path fill-rule="evenodd" clip-rule="evenodd" d="M15.87 8.35116C15.1746 7.58621 14.1734 7 13 7C12.7239 7 12.5 7.22386 12.5 7.5C12.5 7.77614 12.7239 8 13 8C13.8266 8 14.5754 8.41379 15.13 9.02384C15.6907 9.64058 16 10.4004 16 11C16 11.2761 16.2239 11.5 16.5 11.5C16.7761 11.5 17 11.2761 17 11C17 10.0996 16.5593 9.10942 15.87 8.35116Z" fill="#22202A"/>
<path d="M12.75 3.75C12.75 4.16421 12.4142 4.5 12 4.5C11.5858 4.5 11.25 4.16421 11.25 3.75C11.25 3.33579 11.5858 3 12 3C12.4142 3 12.75 3.33579 12.75 3.75Z" fill="#22202A"/>
<path d="M18.75 6.25C18.75 6.66421 18.4142 7 18 7C17.5858 7 17.25 6.66421 17.25 6.25C17.25 5.83579 17.5858 5.5 18 5.5C18.4142 5.5 18.75 5.83579 18.75 6.25Z" fill="#22202A"/>
<path d="M6.75 6.25C6.75 6.66421 6.41421 7 6 7C5.58579 7 5.25 6.66421 5.25 6.25C5.25 5.83579 5.58579 5.5 6 5.5C6.41421 5.5 6.75 5.83579 6.75 6.25Z" fill="#22202A"/>
<path d="M4.5 12C4.5 12.4142 4.16421 12.75 3.75 12.75C3.33579 12.75 3 12.4142 3 12C3 11.5858 3.33579 11.25 3.75 11.25C4.16421 11.25 4.5 11.5858 4.5 12Z" fill="#22202A"/>
<path d="M21 12C21 12.4142 20.6642 12.75 20.25 12.75C19.8358 12.75 19.5 12.4142 19.5 12C19.5 11.5858 19.8358 11.25 20.25 11.25C20.6642 11.25 21 11.5858 21 12Z" fill="#22202A"/>
</svg>
