<svg width="24" height="24" viewBox="0 0 24 24" fill="none" xmlns="http://www.w3.org/2000/svg">
<path opacity="0.5" d="M5.08769 17.7723C4.7333 18.2786 4.7928 18.9175 5.38272 19.1016C8.09689 19.9486 15.9031 19.9486 18.6173 19.1016C19.2072 18.9175 19.2667 18.2786 18.9123 17.7723L16 13.6118C14.5 14.6118 13.8324 12.3625 11.5 14.1118C9.5 15.6118 8.5 13.6118 8 13.6118L5.08769 17.7723Z" fill="#22202A"/>
<path fill-rule="evenodd" clip-rule="evenodd" d="M15.0606 13.3705C15.2515 13.397 15.4511 13.3768 15.7227 13.1958C15.9524 13.0426 16.2628 13.1047 16.416 13.3345C16.5692 13.5642 16.5071 13.8747 16.2773 14.0278C15.7989 14.3468 15.3526 14.4205 14.9235 14.3611C14.635 14.3211 14.337 14.2121 14.096 14.1239C14.0259 14.0982 13.9606 14.0743 13.9018 14.0544C13.6084 13.9551 13.3427 13.8951 13.037 13.9326C12.7309 13.9701 12.3324 14.1125 11.8 14.5118C11.2406 14.9314 10.7117 15.1349 10.2102 15.1656C9.70808 15.1963 9.28522 15.0506 8.94468 14.8614C8.63791 14.691 8.38153 14.4747 8.19791 14.3199C8.18312 14.3074 8.1688 14.2953 8.15497 14.2837C8.05391 14.1988 7.98827 14.146 7.93815 14.1132C7.93436 14.1107 7.93093 14.1085 7.92785 14.1066C7.68589 14.0717 7.5 13.8634 7.5 13.6118C7.5 13.3357 7.72386 13.1118 8 13.1118C8.2152 13.1118 8.3892 13.2133 8.48568 13.2764C8.59376 13.3471 8.7039 13.4388 8.79816 13.518C8.80907 13.5272 8.81996 13.5363 8.83082 13.5455C9.02417 13.7081 9.2116 13.8657 9.43032 13.9872C9.65228 14.1105 9.88567 14.1836 10.1491 14.1674C10.4133 14.1513 10.7594 14.0422 11.2 13.7118C11.8338 13.2365 12.3934 13.004 12.9153 12.94C13.4377 12.876 13.8699 12.9879 14.2225 13.1072C14.3371 13.146 14.4358 13.182 14.5245 13.2143C14.7336 13.2906 14.8868 13.3465 15.0606 13.3705ZM7.90665 14.0949C7.90662 14.0948 7.90805 14.0954 7.91105 14.0969C7.90818 14.0958 7.90668 14.095 7.90665 14.0949Z" fill="#22202A"/>
<path fill-rule="evenodd" clip-rule="evenodd" d="M10.8739 4.90292C10.9375 5.09573 10.9704 5.27144 10.985 5.36171C10.9968 5.43435 11 5.50154 11 5.55918V8.14052C11 8.79584 10.816 9.43798 10.469 9.99388L5.43666 18.0556C5.33273 18.2221 5.31489 18.3714 5.33224 18.4589C5.34026 18.4993 5.3549 18.5255 5.37117 18.544C5.38692 18.5618 5.41743 18.5875 5.48002 18.6078C6.73652 19.0166 9.33273 19.2368 12 19.2368C14.6673 19.2368 17.2635 19.0166 18.52 18.6078C18.5826 18.5875 18.6131 18.5618 18.6288 18.544C18.6451 18.5255 18.6597 18.4993 18.6678 18.4589C18.6851 18.3714 18.6673 18.2221 18.5633 18.0556L13.531 9.99388C13.184 9.43798 13 8.79584 13 8.14052V5.57029C13 5.50181 13.0045 5.42289 13.0205 5.33821C13.0377 5.24734 13.0729 5.0841 13.135 4.90425C12.7964 4.89357 12.3875 4.88815 11.9769 4.88818C11.5857 4.88822 11.1983 4.8932 10.8739 4.90292ZM13.8547 4.9509C13.8546 4.95092 13.8532 4.95066 13.8507 4.95005C13.8535 4.95058 13.8547 4.95089 13.8547 4.9509ZM14.2341 4.94184C14.2632 4.92645 14.32 4.89347 14.3749 4.83487C14.4345 4.77114 14.5262 4.63725 14.5112 4.44723C14.497 4.2658 14.3941 4.15326 14.3406 4.1058C14.2852 4.05672 14.2311 4.03016 14.2042 4.018C14.1127 3.97671 14.0103 3.96218 13.967 3.95604L13.9665 3.95596C13.8431 3.93845 13.6669 3.926 13.471 3.91662C13.071 3.89745 12.5205 3.88814 11.9768 3.88818C11.4332 3.88823 10.8864 3.89763 10.4938 3.91684C10.3024 3.92621 10.129 3.93871 10.0092 3.95674C9.97792 3.96144 9.94255 3.96763 9.90735 3.97617C9.88179 3.98237 9.81672 3.99869 9.74876 4.03624C9.71717 4.05371 9.6407 4.09925 9.57665 4.18846C9.49724 4.29906 9.44762 4.46695 9.50761 4.64563C9.55566 4.78876 9.65171 4.86693 9.6904 4.89548C9.73032 4.92494 9.76782 4.94388 9.79294 4.95516C9.79659 4.95866 9.80347 4.96593 9.81313 4.97893C9.8383 5.01283 9.86723 5.06569 9.89576 5.1375C9.95325 5.28221 9.98485 5.44103 9.99792 5.52169C9.99876 5.52686 10 5.538 10 5.55918V8.14052C10 8.6086 9.86859 9.06728 9.62073 9.46435L4.58837 17.526C4.38027 17.8594 4.27436 18.2652 4.35134 18.6534C4.43324 19.0664 4.716 19.4108 5.17066 19.5588C6.59279 20.0214 9.33192 20.2368 12 20.2368C14.6681 20.2368 17.4072 20.0214 18.8293 19.5588C19.284 19.4108 19.5668 19.0664 19.6487 18.6534C19.7256 18.2652 19.6197 17.8594 19.4116 17.526L14.3793 9.46435C14.1314 9.06728 14 8.6086 14 8.14052V5.57029C14 5.54518 14.0017 5.53122 14.0031 5.52394C14.0189 5.44026 14.0538 5.28674 14.1127 5.14478C14.1418 5.07441 14.1718 5.01938 14.1996 4.98113C14.2194 4.95381 14.2318 4.94368 14.2341 4.94184Z" fill="#22202A"/>
<circle cx="8.5" cy="16.1118" r="0.5" fill="#22202A"/>
<circle cx="7.25" cy="17.8618" r="0.25" fill="#22202A"/>
<circle cx="12.25" cy="16.8618" r="0.25" fill="#22202A"/>
<circle cx="14.25" cy="17.8618" r="0.25" fill="#22202A"/>
<path d="M10 17.6118C10 17.888 9.77614 18.1118 9.5 18.1118C9.22386 18.1118 9 17.888 9 17.6118C9 17.3357 9.22386 17.1118 9.5 17.1118C9.77614 17.1118 10 17.3357 10 17.6118Z" fill="#22202A"/>
<circle cx="13.5" cy="15.1118" r="0.5" fill="#22202A"/>
<circle cx="15.75" cy="16.3618" r="0.75" fill="#22202A"/>
</svg>
