<svg width="24" height="24" viewBox="0 0 24 24" fill="none" xmlns="http://www.w3.org/2000/svg">
<path d="M19 17.2475C19 18.3397 18.0272 19.3231 17.0696 19.715C14.8608 20.634 12.3392 19.252 10.5724 17.9675C8.8283 16.6955 7.28505 15.1595 6.01302 13.415C4.73821 11.6454 3.38345 9.17156 4.2704 6.9575C4.65292 5.98673 5.59019 5 6.69654 5C8.30881 5 10.7747 8.66042 9.37807 10.055C9.00861 10.4385 8.57888 10.6985 8.76965 11.27C9.20947 12.0751 9.92028 12.7667 10.5573 13.415C11.2129 14.0574 11.9003 14.7739 12.7206 15.2075C13.278 15.4301 13.5577 14.9669 13.9224 14.6075C15.1776 13.3542 19 15.4846 19 17.2475Z" fill="#22202A"/>
<path opacity="0.5" fill-rule="evenodd" clip-rule="evenodd" d="M16.5 4.5C14.567 4.5 13 6.067 13 8V11.1667C13 11.3508 13.1492 11.5 13.3333 11.5H16.5C18.433 11.5 20 9.933 20 8C20 6.067 18.433 4.5 16.5 4.5ZM16.5 6C16.7761 6 17 6.22386 17 6.5V7.5H18C18.2761 7.5 18.5 7.72386 18.5 8C18.5 8.27614 18.2761 8.5 18 8.5H17V9.5C17 9.77614 16.7761 10 16.5 10C16.2239 10 16 9.77614 16 9.5V8.5H15C14.7239 8.5 14.5 8.27614 14.5 8C14.5 7.72386 14.7239 7.5 15 7.5H16V6.5C16 6.22386 16.2239 6 16.5 6Z" fill="#22202A"/>
</svg>
