<svg width="24" height="24" viewBox="0 0 24 24" fill="none" xmlns="http://www.w3.org/2000/svg">
<path opacity="0.5" fill-rule="evenodd" clip-rule="evenodd" d="M16 5C15.7238 5 15.5 5.22386 15.5 5.5V7.02912C15.416 7.05883 15.334 7.09626 15.2551 7.1414L11.9965 8.93142L8.6391 7.13975C8.59368 7.1139 8.54724 7.0906 8.49998 7.06984V5.5C8.49998 5.22386 8.27612 5 7.99998 5C7.72383 5 7.49998 5.22386 7.49998 5.5V6.99685C7.37807 7.0303 7.25941 7.07946 7.14707 7.14432L4.24995 8.81697C4.16334 8.86698 4.08292 8.92492 4.00941 8.98956L3.24312 8.5631C3.00183 8.42882 2.69736 8.51556 2.56308 8.75686C2.42879 8.99815 2.51554 9.30262 2.75683 9.4369L3.52151 9.86246C3.50729 9.94543 3.49995 10.0302 3.49995 10.116V13.4613C3.49995 13.5252 3.50402 13.5885 3.51197 13.6509L2.76043 14.0611C2.51804 14.1934 2.4288 14.4972 2.5611 14.7396C2.6934 14.9819 2.99714 15.0712 3.23953 14.9389L3.9622 14.5444C4.04805 14.6267 4.1444 14.6994 4.24995 14.7603L7.14707 16.433C7.25941 16.4979 7.37807 16.547 7.49998 16.5805V18C7.49998 18.2761 7.72383 18.5 7.99998 18.5C8.27612 18.5 8.49998 18.2761 8.49998 18V16.5075C8.54862 16.4861 8.5964 16.4621 8.64308 16.4353L11.9964 14.5738L15.25 16.433C15.2504 16.4332 15.2508 16.4335 15.2512 16.4337C15.3313 16.4798 15.4146 16.518 15.5 16.5482V18C15.5 18.2761 15.7238 18.5 16 18.5C16.2761 18.5 16.5 18.2761 16.5 18V16.5482C16.5858 16.5179 16.6695 16.4795 16.75 16.433L19.6471 14.7603C19.7737 14.6873 19.887 14.5973 19.9848 14.4942L20.7512 14.9337C20.9908 15.0711 21.2963 14.9883 21.4337 14.7488C21.5711 14.5092 21.4883 14.2037 21.2487 14.0663L20.3928 13.5754C20.3956 13.5376 20.3971 13.4995 20.3971 13.4613V10.116C20.3971 10.0553 20.3934 9.995 20.3862 9.93554L21.2514 9.43218C21.4901 9.29332 21.571 8.98725 21.4322 8.74856C21.2933 8.50988 20.9872 8.42896 20.7485 8.56782L19.9402 9.03808C19.853 8.95368 19.7549 8.87919 19.6471 8.81697L16.75 7.14432C16.6695 7.09787 16.5858 7.05947 16.5 7.02912V5.5C16.5 5.22386 16.2761 5 16 5ZM11.5 13.7057L8.14703 15.5669C8.085 15.6027 8.01742 15.6242 7.94857 15.6313C7.84532 15.642 7.73977 15.6205 7.64707 15.567L4.74995 13.8943C4.66211 13.8436 4.59343 13.7685 4.5504 13.6802C4.51771 13.6131 4.49995 13.5385 4.49995 13.4613V10.116C4.49995 10.0289 4.52254 9.94522 4.56368 9.87173C4.60699 9.7944 4.67063 9.72879 4.74995 9.683L7.64707 8.01035C7.73977 7.95682 7.84532 7.93534 7.94857 7.94601C8.01742 7.95313 8.08504 7.97453 8.14707 8.01035L8.1543 8.01452L11.5 9.79992V13.7057ZM12.5 9.79581L15.75 8.01044C15.8274 7.96578 15.9136 7.94336 16 7.94336C16.0864 7.94336 16.1726 7.96568 16.25 8.01035L19.1471 9.683C19.2378 9.73537 19.3081 9.81371 19.3508 9.90583C19.3808 9.97065 19.3971 10.0421 19.3971 10.116V13.4613C19.3971 13.5251 19.385 13.587 19.3624 13.6444C19.3215 13.7482 19.2466 13.8369 19.1471 13.8943L16.25 15.567C16.1726 15.6116 16.0864 15.634 16 15.634C15.9136 15.634 15.8273 15.6116 15.75 15.567L15.748 15.5659L12.5 13.7098V9.79581Z" fill="#22202A"/>
<path d="M8 3C7.17157 3 6.5 3.67157 6.5 4.5C6.5 5.32843 7.17157 6 8 6C8.82843 6 9.5 5.32843 9.5 4.5C9.5 3.67157 8.82843 3 8 3Z" fill="#22202A"/>
<path d="M8 17.5C7.17157 17.5 6.5 18.1716 6.5 19C6.5 19.8284 7.17157 20.5 8 20.5C8.82843 20.5 9.5 19.8284 9.5 19C9.5 18.1716 8.82843 17.5 8 17.5Z" fill="#22202A"/>
<path d="M16 3C15.1716 3 14.5 3.67157 14.5 4.5C14.5 5.32843 15.1716 6 16 6C16.8284 6 17.5 5.32843 17.5 4.5C17.5 3.67157 16.8284 3 16 3Z" fill="#22202A"/>
<path d="M16 17.5C15.1716 17.5 14.5 18.1716 14.5 19C14.5 19.8284 15.1716 20.5 16 20.5C16.8284 20.5 17.5 19.8284 17.5 19C17.5 18.1716 16.8284 17.5 16 17.5Z" fill="#22202A"/>
</svg>
