<svg width="24" height="24" viewBox="0 0 24 24" fill="none" xmlns="http://www.w3.org/2000/svg">
<path fill-rule="evenodd" clip-rule="evenodd" d="M3.17693 12.5C3.30872 12.5629 3.48668 12.6298 3.71325 12.6977C4.22308 12.8504 4.92359 12.9919 5.77038 13.1122C7.46045 13.3522 9.67856 13.5 12 13.5C14.3214 13.5 16.5395 13.3522 18.2296 13.1122C19.0764 12.9919 19.7769 12.8504 20.2867 12.6977C20.5133 12.6298 20.6913 12.5629 20.8231 12.5C20.7496 12.465 20.6581 12.4269 20.5464 12.387C20.088 12.2232 19.4025 12.0674 18.5375 11.9335C16.8149 11.6668 14.4663 11.5 12 11.5C9.53371 11.5 7.1851 11.6668 5.46252 11.9335C4.59747 12.0674 3.91204 12.2232 3.45361 12.387C3.34186 12.4269 3.25037 12.465 3.17693 12.5ZM2.08742 12.8491C2.03524 12.7491 2 12.6314 2 12.5C2 12.1531 2.23424 11.922 2.40924 11.7941C2.59918 11.6552 2.84716 11.5417 3.11717 11.4453C3.66334 11.2501 4.42093 11.0828 5.30956 10.9452C7.09433 10.669 9.49573 10.5 12 10.5C14.5043 10.5 16.9057 10.669 18.6904 10.9452C19.5791 11.0828 20.3367 11.2501 20.8828 11.4453C21.1528 11.5417 21.4008 11.6552 21.5908 11.7941C21.7658 11.922 22 12.1531 22 12.5C22 12.6314 21.9648 12.7491 21.9126 12.8491C21.5174 13.9984 19.1162 20 12 20C4.88379 20 2.48262 13.9984 2.08742 12.8491Z" fill="#22202A"/>
<path opacity="0.5" fill-rule="evenodd" clip-rule="evenodd" d="M7.12296 4.17162C7.30432 3.96338 7.62016 3.9416 7.82839 4.12297C8.02784 4.29668 8.19218 4.48754 8.30873 4.72064C8.42528 4.95374 8.47936 5.19973 8.49867 5.46352C8.54456 6.09068 8.08563 6.44414 7.85615 6.62088C7.8456 6.629 7.83554 6.63675 7.82603 6.64414C7.52336 6.8793 7.5 6.93298 7.5 7.00001C7.5 7.26714 7.56551 7.47491 7.67232 7.63513C7.77913 7.79534 7.94572 7.93572 8.19231 8.03847C8.44721 8.14468 8.56775 8.43741 8.46154 8.69231C8.35533 8.94722 8.06259 9.06775 7.80769 8.96155C7.40441 8.79351 7.071 8.53591 6.84027 8.18983C6.60955 7.84374 6.5 7.4369 6.5 7.00001C6.5 6.39999 6.9457 6.05883 7.1731 5.88477C7.18711 5.87404 7.2003 5.86395 7.2125 5.85447C7.50782 5.62502 7.50474 5.583 7.50137 5.53705L7.50133 5.5365C7.48877 5.36483 7.45748 5.2542 7.41431 5.16785C7.37113 5.08151 7.3014 4.99009 7.17161 4.87705C6.96338 4.69568 6.94159 4.37985 7.12296 4.17162Z" fill="#22202A"/>
<path opacity="0.5" fill-rule="evenodd" clip-rule="evenodd" d="M11.623 4.17162C11.8043 3.96338 12.1202 3.9416 12.3284 4.12297C12.5278 4.29668 12.6922 4.48754 12.8087 4.72064C12.9253 4.95374 12.9794 5.19973 12.9987 5.46352C13.0446 6.09068 12.5856 6.44414 12.3562 6.62088C12.3456 6.629 12.3355 6.63675 12.326 6.64414C12.0234 6.8793 12 6.93298 12 7.00001C12 7.26714 12.0655 7.47491 12.1723 7.63513C12.2791 7.79534 12.4457 7.93572 12.6923 8.03847C12.9472 8.14468 13.0677 8.43741 12.9615 8.69231C12.8553 8.94722 12.5626 9.06775 12.3077 8.96155C11.9044 8.79351 11.571 8.53591 11.3403 8.18983C11.1096 7.84374 11 7.4369 11 7.00001C11 6.39999 11.4457 6.05883 11.6731 5.88477C11.6871 5.87404 11.7003 5.86395 11.7125 5.85447C12.0078 5.62502 12.0047 5.583 12.0014 5.53705L12.0013 5.5365C11.9888 5.36483 11.9575 5.2542 11.9143 5.16785C11.8711 5.08151 11.8014 4.99009 11.6716 4.87705C11.4634 4.69568 11.4416 4.37985 11.623 4.17162Z" fill="#22202A"/>
<path opacity="0.5" fill-rule="evenodd" clip-rule="evenodd" d="M16.123 4.17162C16.3043 3.96338 16.6202 3.9416 16.8284 4.12297C17.0278 4.29668 17.1922 4.48754 17.3087 4.72064C17.4253 4.95374 17.4794 5.19973 17.4987 5.46352C17.5446 6.09068 17.0856 6.44414 16.8562 6.62088C16.8456 6.629 16.8355 6.63675 16.826 6.64414C16.5234 6.8793 16.5 6.93298 16.5 7.00001C16.5 7.26714 16.5655 7.47491 16.6723 7.63513C16.7791 7.79534 16.9457 7.93572 17.1923 8.03847C17.4472 8.14468 17.5677 8.43741 17.4615 8.69231C17.3553 8.94722 17.0626 9.06775 16.8077 8.96155C16.4044 8.79351 16.071 8.53591 15.8403 8.18983C15.6096 7.84374 15.5 7.4369 15.5 7.00001C15.5 6.39999 15.9457 6.05883 16.1731 5.88477C16.1871 5.87404 16.2003 5.86395 16.2125 5.85447C16.5078 5.62502 16.5047 5.583 16.5014 5.53705L16.5013 5.5365C16.4888 5.36483 16.4575 5.2542 16.4143 5.16785C16.3711 5.08151 16.3014 4.99009 16.1716 4.87705C15.9634 4.69568 15.9416 4.37985 16.123 4.17162Z" fill="#22202A"/>
</svg>
