<svg width="24" height="24" viewBox="0 0 24 24" fill="none" xmlns="http://www.w3.org/2000/svg">
<path opacity="0.5" d="M10.2071 15.8211C10.5977 16.2116 11.2308 16.2116 11.6214 15.8211L15.5104 11.932L11.9749 8.39648L8.08583 12.2856C7.6953 12.6761 7.6953 13.3093 8.08583 13.6998L10.2071 15.8211Z" fill="#22202A"/>
<path fill-rule="evenodd" clip-rule="evenodd" d="M17.8398 4.19501C17.7721 3.70468 18.3664 3.40931 18.7164 3.7593L20.1476 5.19051C20.4976 5.54053 20.2022 6.13482 19.7119 6.06711C19.5863 6.04976 19.4698 5.99186 19.3801 5.9022L19.046 5.56806L17.9853 6.62871L20.1066 8.75003C20.3019 8.94529 20.3019 9.26188 20.1066 9.45714C19.9114 9.6524 19.5948 9.6524 19.3995 9.45714L19.046 9.10358L11.9749 16.1747C11.5131 16.6365 10.8251 16.7342 10.2675 16.4679L10.2071 16.5282C9.42609 17.3093 8.15976 17.3093 7.37871 16.5282C6.59766 15.7472 6.59766 14.4808 7.37871 13.6998L7.43906 13.6394C7.17271 13.0819 7.27045 12.3938 7.73226 11.932L14.8033 4.86094L14.4498 4.50739C14.2545 4.31213 14.2545 3.99555 14.4498 3.80028C14.645 3.60502 14.9616 3.60502 15.1569 3.80028L15.8639 4.50731L17.2782 5.9216L18.3389 4.86095L18.0047 4.5268C17.915 4.43714 17.8571 4.32063 17.8398 4.19501ZM15.5104 5.56805L12.682 8.39648L15.5104 11.2249L18.3389 8.39648L15.5104 5.56805ZM14.8033 11.932L11.9749 9.10358L8.43937 12.6391C8.24411 12.8344 8.24411 13.151 8.43937 13.3462L10.5607 15.4675C10.756 15.6628 11.0725 15.6628 11.2678 15.4675L14.8033 11.932ZM8.08582 14.4069C7.69529 14.7974 7.69529 15.4306 8.08582 15.8211C8.47634 16.2116 9.10951 16.2116 9.50003 15.8211L8.08582 14.4069Z" fill="#22202A"/>
<path fill-rule="evenodd" clip-rule="evenodd" d="M8.08579 15.8211C8.28105 16.0163 8.28105 16.3329 8.08579 16.5282L5.18198 19.432C4.98672 19.6273 4.67014 19.6273 4.47488 19.432C4.27961 19.2367 4.27961 18.9202 4.47488 18.7249L7.37869 15.8211C7.57395 15.6258 7.89053 15.6258 8.08579 15.8211Z" fill="#22202A"/>
</svg>
