<svg width="24" height="24" viewBox="0 0 24 24" fill="none" xmlns="http://www.w3.org/2000/svg">
<path d="M16.3601 11.6636C16.8695 11.1542 17.0582 10.4517 16.9178 9.82504C16.797 9.28611 16.7602 8.64308 17.1507 8.25255L19.1376 6.26569C19.3363 6.067 19.3323 5.74365 19.1287 5.54994L18.0631 4.53585C17.8666 4.34881 17.5568 4.35265 17.3649 4.5445L15.4038 6.50562C15.0133 6.89614 14.3702 6.85932 13.8313 6.73858C13.2046 6.59818 12.5021 6.78685 11.9927 7.29627C11.223 8.06602 11.1856 9.27663 11.9092 10.0002C12.1858 10.2768 12.5335 10.4422 12.9006 10.498C13.0324 10.5181 13.1383 10.624 13.1583 10.7558C13.2141 11.1228 13.3795 11.4706 13.6561 11.7472C14.3797 12.4708 15.5903 12.4334 16.3601 11.6636Z" fill="#22202A"/>
<path d="M7.28813 12.0009C6.77954 12.5095 6.59154 13.2112 6.73225 13.8375C6.85332 14.3763 6.89014 15.0193 6.49962 15.4098L4.55083 17.3586C4.3596 17.5498 4.35508 17.8584 4.54063 18.0552L5.55001 19.1255C5.74341 19.3305 6.068 19.3353 6.26732 19.136L8.24656 17.1567C8.63708 16.7662 9.28004 16.803 9.81889 16.9241C10.4451 17.0648 11.1469 16.8768 11.6555 16.3682C12.424 15.5996 12.4605 14.39 11.7369 13.6664C11.4603 13.3898 11.1126 13.2242 10.7457 13.1682C10.614 13.1481 10.5083 13.0423 10.4882 12.9107C10.4321 12.5438 10.2666 12.1961 9.98995 11.9195C9.26635 11.1959 8.0567 11.2323 7.28813 12.0009Z" fill="#22202A"/>
<path opacity="0.5" fill-rule="evenodd" clip-rule="evenodd" d="M7.64645 7.64645C7.84171 7.45118 8.15829 7.45118 8.35355 7.64645L8.85355 8.14645C9.04882 8.34171 9.04882 8.65829 8.85355 8.85355C8.65829 9.04882 8.34171 9.04882 8.14645 8.85355L7.64645 8.35355C7.45118 8.15829 7.45118 7.84171 7.64645 7.64645Z" fill="#22202A"/>
<path opacity="0.5" fill-rule="evenodd" clip-rule="evenodd" d="M10 7.00001C10.2761 7.00001 10.5 7.22387 10.5 7.50001L10.5 8.00001C10.5 8.27616 10.2761 8.50001 10 8.50001C9.72386 8.50001 9.5 8.27616 9.5 8.00001L9.5 7.50001C9.5 7.22387 9.72386 7.00001 10 7.00001Z" fill="#22202A"/>
<path opacity="0.5" fill-rule="evenodd" clip-rule="evenodd" d="M7.00002 10C7.00002 9.72386 7.22388 9.5 7.50002 9.5L8.00002 9.5C8.27616 9.5 8.50002 9.72386 8.50002 10C8.50002 10.2761 8.27616 10.5 8.00002 10.5L7.50002 10.5C7.22388 10.5 7.00002 10.2761 7.00002 10Z" fill="#22202A"/>
<path opacity="0.5" fill-rule="evenodd" clip-rule="evenodd" d="M16.3536 16.3535C16.1583 16.5488 15.8417 16.5488 15.6464 16.3535L15.1464 15.8535C14.9512 15.6583 14.9512 15.3417 15.1464 15.1464C15.3417 14.9512 15.6583 14.9512 15.8536 15.1464L16.3536 15.6464C16.5488 15.8417 16.5488 16.1583 16.3536 16.3535Z" fill="#22202A"/>
<path opacity="0.5" fill-rule="evenodd" clip-rule="evenodd" d="M14 17C13.7239 17 13.5 16.7761 13.5 16.5L13.5 16C13.5 15.7238 13.7239 15.5 14 15.5C14.2761 15.5 14.5 15.7238 14.5 16L14.5 16.5C14.5 16.7761 14.2761 17 14 17Z" fill="#22202A"/>
<path opacity="0.5" fill-rule="evenodd" clip-rule="evenodd" d="M17 14C17 14.2761 16.7761 14.5 16.5 14.5L16 14.5C15.7238 14.5 15.5 14.2761 15.5 14C15.5 13.7238 15.7238 13.5 16 13.5L16.5 13.5C16.7761 13.5 17 13.7238 17 14Z" fill="#22202A"/>
</svg>
