<svg width="24" height="24" viewBox="0 0 24 24" fill="none" xmlns="http://www.w3.org/2000/svg">
<path fill-rule="evenodd" clip-rule="evenodd" d="M19.0131 8.61361C17.3152 1.33431 6.69454 1.3314 4.98689 8.61384C4.76151 9.58014 4.89136 10.8392 5.30138 12.2241C5.70849 13.5992 6.37731 15.0496 7.17305 16.3733C7.96947 17.6982 8.88166 18.8774 9.76464 19.7183C10.2061 20.1387 10.6305 20.4651 11.0198 20.684C11.4128 20.9049 11.7412 21 12 21C12.2588 21 12.5872 20.9048 12.9801 20.6839C13.3694 20.4649 13.7937 20.1384 14.2352 19.7178C15.1181 18.8767 16.0303 17.6972 16.8266 16.372C17.6223 15.048 18.2911 13.5975 18.6983 12.2225C19.1084 10.8376 19.2383 9.57899 19.0131 8.61364L19.0131 8.61361ZM19.9869 8.38646C18.048 0.0739703 5.96125 0.0767775 4.01321 8.38591L4.01309 8.38644C3.73121 9.59465 3.9102 11.0478 4.34252 12.508C4.77779 13.9782 5.48489 15.506 6.31598 16.8885C7.14641 18.27 8.11196 19.5254 9.07503 20.4425C9.55655 20.901 10.0473 21.2845 10.5298 21.5557C11.0087 21.8249 11.5089 22 12 22C12.4912 22 12.9914 21.8248 13.4703 21.5555C13.9528 21.2841 14.4435 20.9006 14.925 20.4419C15.888 19.5245 16.8534 18.2688 17.6838 16.8871C18.5148 15.5043 19.2218 13.9764 19.6571 12.5065C20.0895 11.0465 20.2686 9.59381 19.9869 8.38646Z" fill="#22202A"/>
<path opacity="0.5" d="M4.50002 8.50004C6.32775 0.704091 17.6816 0.704088 19.5 8.50004C20.5138 12.8454 15 21.5 12 21.5C9.00004 21.5 3.48535 12.8491 4.50002 8.50004Z" fill="#22202A"/>
<path fill-rule="evenodd" clip-rule="evenodd" d="M12 6C9.79086 6 8 7.79086 8 10C8 12.2091 9.79086 14 12 14C14.2091 14 16 12.2091 16 10C16 7.79086 14.2091 6 12 6ZM7 10C7 7.23858 9.23858 5 12 5C14.7614 5 17 7.23858 17 10C17 12.7614 14.7614 15 12 15C9.23858 15 7 12.7614 7 10Z" fill="#22202A"/>
<path d="M11.1101 7.88582C11.0625 8.00068 11.0625 8.14629 11.0625 8.4375V9.0325C11.0625 9.04664 11.0625 9.05371 11.0581 9.05811C11.0537 9.0625 11.0466 9.0625 11.0325 9.0625H10.4375C10.1463 9.0625 10.0007 9.0625 9.88582 9.11008C9.73268 9.17351 9.61101 9.29518 9.54758 9.44832C9.5 9.56318 9.5 9.70879 9.5 10C9.5 10.2912 9.5 10.4368 9.54758 10.5517C9.61101 10.7048 9.73268 10.8265 9.88582 10.8899C10.0007 10.9375 10.1463 10.9375 10.4375 10.9375H11.0325C11.0466 10.9375 11.0537 10.9375 11.0581 10.9419C11.0625 10.9463 11.0625 10.9534 11.0625 10.9675V11.5625C11.0625 11.8537 11.0625 11.9993 11.1101 12.1142C11.1735 12.2673 11.2952 12.389 11.4483 12.4524C11.5632 12.5 11.7088 12.5 12 12.5C12.2912 12.5 12.4368 12.5 12.5517 12.4524C12.7048 12.389 12.8265 12.2673 12.8899 12.1142C12.9375 11.9993 12.9375 11.8537 12.9375 11.5625V10.9675C12.9375 10.9534 12.9375 10.9463 12.9419 10.9419C12.9463 10.9375 12.9534 10.9375 12.9675 10.9375H13.5625C13.8537 10.9375 13.9993 10.9375 14.1142 10.8899C14.2673 10.8265 14.389 10.7048 14.4524 10.5517C14.5 10.4368 14.5 10.2912 14.5 10C14.5 9.70879 14.5 9.56318 14.4524 9.44832C14.389 9.29518 14.2673 9.17351 14.1142 9.11008C13.9993 9.0625 13.8537 9.0625 13.5625 9.0625H12.9675C12.9534 9.0625 12.9463 9.0625 12.9419 9.05811C12.9375 9.05371 12.9375 9.04664 12.9375 9.0325V8.4375C12.9375 8.14629 12.9375 8.00068 12.8899 7.88582C12.8265 7.73268 12.7048 7.61101 12.5517 7.54758C12.4368 7.5 12.2912 7.5 12 7.5C11.7088 7.5 11.5632 7.5 11.4483 7.54758C11.2952 7.61101 11.1735 7.73268 11.1101 7.88582Z" fill="#22202A"/>
</svg>
