<svg width="24" height="24" viewBox="0 0 24 24" fill="none" xmlns="http://www.w3.org/2000/svg">
<path opacity="0.5" fill-rule="evenodd" clip-rule="evenodd" d="M12 4C12.2761 4 12.5 4.22386 12.5 4.5H12H11.5C11.5 4.22386 11.7238 4 12 4ZM12.5 9.56361V4.5H12H11.5V9.56361C11.2228 9.63827 10.9849 9.77587 10.7848 9.96173C10.4878 10.2375 10.2977 10.597 10.1607 10.9393C10.0379 11.2464 9.94347 11.5789 9.85991 11.873C9.85038 11.9065 9.841 11.9396 9.83173 11.972C9.7361 12.3067 9.65369 12.5746 9.55277 12.7764C9.42928 13.0234 9.52939 13.3237 9.77638 13.4472C10.0234 13.5707 10.3237 13.4706 10.4472 13.2236C10.5963 12.9254 10.7014 12.5683 10.7932 12.2467C10.8025 12.2142 10.8117 12.1819 10.8208 12.1499C10.9069 11.8476 10.9869 11.5665 11.0892 11.3107C11.2023 11.028 11.3247 10.825 11.4652 10.6945C11.5911 10.5776 11.7507 10.5 12 10.5C12.2493 10.5 12.4089 10.5776 12.5348 10.6945C12.6753 10.825 12.7977 11.028 12.9107 11.3107C13.0131 11.5665 13.0931 11.8476 13.1791 12.1499C13.1883 12.182 13.1974 12.2142 13.2067 12.2467C13.2986 12.5683 13.4037 12.9254 13.5528 13.2236C13.6763 13.4706 13.9766 13.5707 14.2236 13.4472C14.4706 13.3237 14.5707 13.0234 14.4472 12.7764C14.3463 12.5746 14.2639 12.3067 14.1682 11.972C14.159 11.9396 14.1496 11.9065 14.1401 11.873C14.0565 11.5789 13.962 11.2464 13.8392 10.9393C13.7023 10.597 13.5122 10.2375 13.2152 9.96173C13.0151 9.77587 12.7772 9.63827 12.5 9.56361Z" fill="#22202A"/>
<path d="M8.74359 7.01188C7.23486 6.53495 5.78703 7.44814 4.79607 8.92677C3.79023 10.4276 3.13877 12.6434 3.17582 15.1873C3.20473 17.1723 4.86547 18.7374 6.8295 18.7371C8.2088 18.7369 9.69722 18.4765 10.4288 17.2573C10.8178 16.6089 10.9821 16.0411 10.9825 15.4663C10.983 14.9119 10.8288 14.3878 10.6617 13.855L10.6059 13.6782C10.2781 12.6415 9.86155 11.3242 9.93557 9.06116C9.95921 8.33851 9.70176 7.31478 8.74359 7.01188Z" fill="#22202A"/>
<path d="M15.2564 7.01188C16.7651 6.53495 18.213 7.44814 19.2039 8.92677C20.2098 10.4276 20.8612 12.6434 20.8242 15.1873C20.7953 17.1723 19.1345 18.7374 17.1705 18.7371C15.7912 18.7369 14.3028 18.4765 13.5712 17.2573C13.1822 16.6089 13.0179 16.0411 13.0175 15.4663C13.017 14.9119 13.1712 14.3878 13.3383 13.855L13.3941 13.6782C13.7219 12.6415 14.1384 11.3242 14.0644 9.06116C14.0408 8.33851 14.2982 7.31478 15.2564 7.01188Z" fill="#22202A"/>
</svg>
