<svg width="24" height="24" viewBox="0 0 24 24" fill="none" xmlns="http://www.w3.org/2000/svg">
<path d="M8.48956 3.67597C9.58023 3.18426 10.7711 2.9552 11.9664 3.00724C13.8004 3.08709 15.597 3.84522 16.669 5.02695C17.2002 5.61259 17.5488 6.29565 17.652 7.0529C17.7454 7.73894 17.6414 8.51542 17.2494 9.37127C17.2083 9.35735 17.1666 9.34493 17.1244 9.33405C16.8699 9.2684 16.6038 9.26061 16.3459 9.31125C16.0888 9.36173 15.8462 9.46898 15.6358 9.62515C15.4004 9.79724 15.2141 10.028 15.0955 10.2945L15.0828 10.323L15.0738 10.353C14.9801 10.6626 14.9801 10.9929 15.0738 11.3025C15.1537 11.5668 15.4328 11.7163 15.6971 11.6363C15.9614 11.5564 16.1109 11.2773 16.0309 11.013C15.9974 10.9021 15.9947 10.7845 16.0226 10.6725C16.0705 10.5773 16.1404 10.4948 16.2268 10.4319L16.231 10.4287C16.322 10.3609 16.4271 10.3144 16.5385 10.2925C16.6499 10.2707 16.7648 10.274 16.8747 10.3024C16.9846 10.3307 17.0868 10.3833 17.1737 10.4563C17.2594 10.5283 17.3281 10.6183 17.375 10.7199C17.4608 10.9216 17.505 11.1385 17.505 11.3577C17.505 11.5737 17.4621 11.7875 17.3788 11.9866C17.3394 12.0626 17.2874 12.1388 17.2159 12.2368L17.1818 12.2834C17.1168 12.3716 17.0362 12.4812 16.9652 12.5977L16.9646 12.5988C16.8198 12.8381 16.7276 13.0934 16.6534 13.3038L16.6374 13.3491C16.5656 13.5528 16.5083 13.7155 16.4296 13.8653L16.4224 13.8792L16.416 13.8934C16.3938 13.9431 16.3586 13.9856 16.3143 14.0166C16.2993 14.0214 16.2832 14.0221 16.2677 14.0188L16.2544 14.0163C16.1898 14.0042 16.1309 13.9712 16.0869 13.9224C16.0429 13.8736 16.0161 13.8118 16.0106 13.7463C15.9877 13.4711 15.7461 13.2665 15.4709 13.2894C15.1957 13.3123 14.9912 13.554 15.0141 13.8292C15.0377 14.113 15.1538 14.3812 15.3446 14.5925C15.4162 14.6718 15.4967 14.7414 15.5842 14.8002C15.5719 14.8433 15.5652 14.8887 15.565 14.9357C15.5608 15.9966 15.9366 17.024 16.6243 17.8318C16.8033 18.0421 17.1189 18.0674 17.3292 17.8884C17.5394 17.7094 17.5648 17.3938 17.3857 17.1836C16.8626 16.5691 16.5725 15.7907 16.5651 14.9848C16.6381 14.9655 16.7093 14.9386 16.7776 14.9041L16.7934 14.8961L16.8087 14.887C17.0332 14.7529 17.212 14.5543 17.3218 14.3172C17.4325 14.1033 17.5115 13.8783 17.577 13.6917L17.5963 13.6366C17.672 13.4224 17.7348 13.2578 17.8198 13.1172C17.8659 13.0414 17.9164 12.9726 17.9809 12.8848L18.0238 12.8261C18.1034 12.717 18.1997 12.5811 18.2796 12.4213L18.2861 12.4083L18.2918 12.3949C18.4325 12.0672 18.505 11.7143 18.505 11.3577C18.505 11.0011 18.4326 10.6482 18.2919 10.3205L18.2877 10.3111C18.231 10.1861 18.16 10.0685 18.0764 9.96064C18.6023 8.89132 18.7719 7.86541 18.6428 6.91794C18.5086 5.93266 18.0564 5.068 17.4097 4.35508C16.1257 2.93969 14.058 2.09735 12.0099 2.00819C10.6548 1.94919 9.30481 2.2097 8.06895 2.76868L8.06057 2.77247L8.05234 2.77656C6.52063 3.53839 5.68842 4.94652 5.29722 6.45648C4.92149 7.90676 4.93815 9.49547 5.14705 10.8343C5.2367 10.7905 5.33091 10.7516 5.42374 10.7175C5.63367 10.6405 5.87861 10.5736 6.11344 10.535C5.94129 9.3279 5.94493 7.94372 6.26526 6.70728C6.6094 5.37896 7.30346 4.26937 8.48956 3.67597Z" fill="#22202A"/>
<path d="M9.24446 19.5264C9.58524 19.4483 9.90883 19.3265 10.2051 19.1935C10.5465 19.8251 10.7483 20.5252 10.794 21.2461C10.8115 21.5217 10.6022 21.7593 10.3266 21.7767C10.051 21.7942 9.81347 21.585 9.79599 21.3094C9.75598 20.6784 9.56635 20.0675 9.24446 19.5264Z" fill="#22202A"/>
<path opacity="0.5" fill-rule="evenodd" clip-rule="evenodd" d="M14.53 10.5027C14.7549 10.6629 14.8075 10.9751 14.6473 11.2C14.1399 11.9126 13.4256 12.4848 12.6091 12.818C12.6686 13.094 12.6555 13.3886 12.5769 13.6754C12.5573 13.7747 12.5348 13.8728 12.5124 13.9705C12.4605 14.1973 12.409 14.4221 12.3945 14.6565C12.3726 15.009 12.4596 15.0565 12.4849 15.0686L12.4936 15.0728C12.5075 15.0798 12.526 15.0887 12.5479 15.0993C12.6337 15.1407 12.7723 15.2076 12.8967 15.282C12.967 15.324 13.0574 15.382 13.1466 15.4577C13.2667 15.4099 13.416 15.3194 13.5851 15.1754C13.84 14.9582 14.0615 14.6857 14.1851 14.4864C14.3307 14.2517 14.639 14.1796 14.8736 14.3252C15.1083 14.4707 15.1804 14.779 15.0349 15.0136C14.859 15.2971 14.5706 15.6495 14.2336 15.9366C14.0263 16.1133 13.7632 16.2973 13.4685 16.4051C13.3314 17.1195 12.7988 17.6702 12.2762 18.0632C11.6824 18.5097 10.9843 18.8408 10.5018 19.0531C9.71589 19.4424 8.68003 19.8323 7.62841 19.4732C6.02546 18.9258 5.1953 17.4463 4.79804 15.9275C4.39856 14.4001 4.3995 12.7097 4.55331 11.5022C4.57249 11.3302 4.66001 11.2056 4.72334 11.1339C4.79184 11.0562 4.87138 10.9956 4.94175 10.9495C5.0835 10.8567 5.25588 10.7791 5.42374 10.7175C5.7544 10.5963 6.17189 10.5 6.49996 10.5C7.0684 10.5 7.43746 10.7848 7.69789 10.9857L7.70908 10.9944C7.97726 11.2012 8.16171 11.3405 8.46365 11.3855C8.82315 11.439 9.18507 11.4479 9.58285 11.4576C9.66308 11.4596 9.74476 11.4616 9.82817 11.464C10.3008 11.4776 10.817 11.5049 11.3341 11.6403C11.6138 11.6874 11.8637 11.7942 12.0693 11.9534C12.7711 11.7073 13.398 11.2306 13.8327 10.62C13.9928 10.3951 14.305 10.3425 14.53 10.5027Z" fill="#22202A"/>
<path fill-rule="evenodd" clip-rule="evenodd" d="M4.9281 12.606C5.05733 12.3619 5.35992 12.2688 5.60396 12.3981C7.07088 13.1749 8.76969 13.3934 10.3855 13.0132C10.6543 12.95 10.9234 13.1166 10.9867 13.3854C11.0499 13.6542 10.8833 13.9234 10.6145 13.9867C8.76319 14.4223 6.81674 14.1718 5.13599 13.2818C4.89195 13.1526 4.79887 12.85 4.9281 12.606Z" fill="#22202A"/>
<path fill-rule="evenodd" clip-rule="evenodd" d="M5.05811 14.266C5.18733 14.022 5.48992 13.9289 5.73396 14.0581C7.20088 14.8349 8.89969 15.0534 10.5155 14.6733C10.7843 14.61 11.0534 14.7767 11.1167 15.0455C11.1799 15.3143 11.0133 15.5834 10.7445 15.6467C8.8932 16.0823 6.94675 15.8319 5.26599 14.9418C5.02195 14.8126 4.92888 14.51 5.05811 14.266Z" fill="#22202A"/>
<path fill-rule="evenodd" clip-rule="evenodd" d="M5.42816 16.299C5.55739 16.0549 5.85998 15.9618 6.10402 16.0911C7.11074 16.6242 8.27661 16.7742 9.38549 16.5132C9.65429 16.45 9.92347 16.6166 9.98672 16.8854C10.05 17.1542 9.88333 17.4234 9.61453 17.4867C8.27012 17.803 6.85661 17.6211 5.63605 16.9748C5.39201 16.8456 5.29894 16.543 5.42816 16.299Z" fill="#22202A"/>
</svg>
