<svg width="24" height="24" viewBox="0 0 24 24" fill="none" xmlns="http://www.w3.org/2000/svg">
<path opacity="0.5" fill-rule="evenodd" clip-rule="evenodd" d="M13.1293 6.726C12.3845 6.56977 11.6155 6.56977 10.8707 6.726L5.57101 7.83784C5.44309 7.70447 5.30119 7.56271 5.16082 7.44809C4.86959 7.21028 4.49239 6.99998 4 6.99998C3.2918 6.99998 2.77414 7.43244 2.459 7.99C2.14818 8.53992 2 9.25661 2 9.99998C2 11.3507 2.48946 12.5692 3.20773 13.4623C3.82055 14.2243 4.6328 14.7862 5.49006 14.9506C5.67089 15.6583 6.17971 16.2576 6.90786 16.5046C8.10596 16.9109 10.1529 17.5 12 17.5C13.8471 17.5 15.894 16.9109 17.0921 16.5046C17.8203 16.2576 18.3291 15.6583 18.5099 14.9506C19.3672 14.7862 20.1795 14.2243 20.7923 13.4623C21.5105 12.5692 22 11.3507 22 9.99998C22 9.25661 21.8518 8.53992 21.541 7.99C21.2259 7.43244 20.7082 6.99998 20 6.99998C19.5076 6.99998 19.1304 7.21028 18.8392 7.44809C18.6988 7.56271 18.5569 7.70447 18.429 7.83784L13.1293 6.726ZM4.90687 8.59162C4.94363 8.63076 4.98198 8.67158 5.02294 8.71444L5.37845 13.8855C4.90173 13.7158 4.40855 13.3598 3.98698 12.8356C3.40338 12.11 3 11.11 3 9.99998C3 9.3728 3.12753 8.8395 3.32957 8.48205C3.52728 8.13225 3.75963 7.99998 4 7.99998C4.18224 7.99998 4.34229 8.07074 4.52832 8.22265C4.66564 8.33479 4.77629 8.45259 4.90687 8.59162ZM20.013 12.8356C19.5915 13.3598 19.0983 13.7158 18.6215 13.8855L18.9771 8.71444C19.018 8.67158 19.0564 8.63076 19.0931 8.59161C19.2237 8.45258 19.3344 8.33478 19.4717 8.22265C19.6577 8.07074 19.8178 7.99998 20 7.99998C20.2404 7.99998 20.4727 8.13225 20.6704 8.48205C20.8725 8.8395 21 9.3728 21 9.99998C21 11.11 20.5966 12.11 20.013 12.8356Z" fill="#22202A"/>
<path fill-rule="evenodd" clip-rule="evenodd" d="M8 10C8 9.72386 8.22386 9.5 8.5 9.5H15.5C15.7761 9.5 16 9.72386 16 10C16 10.2761 15.7761 10.5 15.5 10.5H8.5C8.22386 10.5 8 10.2761 8 10Z" fill="#22202A"/>
<path fill-rule="evenodd" clip-rule="evenodd" d="M8.5 12C8.5 11.7239 8.72386 11.5 9 11.5H15C15.2761 11.5 15.5 11.7239 15.5 12C15.5 12.2761 15.2761 12.5 15 12.5H9C8.72386 12.5 8.5 12.2761 8.5 12Z" fill="#22202A"/>
<path fill-rule="evenodd" clip-rule="evenodd" d="M8 14C8 13.7239 8.22386 13.5 8.5 13.5H15.5C15.7761 13.5 16 13.7239 16 14C16 14.2761 15.7761 14.5 15.5 14.5H8.5C8.22386 14.5 8 14.2761 8 14Z" fill="#22202A"/>
</svg>
