<svg width="24" height="24" viewBox="0 0 24 24" fill="none" xmlns="http://www.w3.org/2000/svg">
<path opacity="0.5" d="M16 19.5C17.8856 19.5 18.8284 19.5 19.4142 18.9142C20 18.3284 20 17.3856 20 15.5V12C20 10.1144 20 9.17157 19.4142 8.58579C18.8284 8 17.8856 8 16 8H15.5H8.5H8C6.11438 8 5.17157 8 4.58579 8.58579C4 9.17157 4 10.1144 4 12V15.5C4 17.3856 4 18.3284 4.58579 18.9142C5.17157 19.5 6.11438 19.5 8 19.5H16Z" fill="#22202A"/>
<path fill-rule="evenodd" clip-rule="evenodd" d="M11.4647 4H12.5353C13.2123 3.99998 13.7707 3.99997 14.2125 4.05938C14.6764 4.12175 15.0862 4.25773 15.4142 4.58579C15.7423 4.91384 15.8783 5.32355 15.9406 5.78747C16 6.22935 16 6.78766 16 7.46473V7.5L16.0366 7.5C16.9483 7.49999 17.6832 7.49998 18.2612 7.57768C18.8612 7.65836 19.3665 7.83096 19.7678 8.23223C20.169 8.63351 20.3416 9.13876 20.4223 9.73883C20.5 10.3168 20.5 11.0517 20.5 11.9634V15.5366C20.5 16.4483 20.5 17.1832 20.4223 17.7612C20.3416 18.3612 20.169 18.8665 19.7678 19.2678C19.3665 19.669 18.8612 19.8416 18.2612 19.9223C17.6832 20 16.9483 20 16.0366 20H7.96343C7.0517 20 6.31681 20 5.73883 19.9223C5.13876 19.8416 4.63351 19.669 4.23223 19.2678C3.83096 18.8665 3.65836 18.3612 3.57768 17.7612C3.49998 17.1832 3.49999 16.4483 3.5 15.5366V11.9634C3.49999 11.0517 3.49998 10.3168 3.57768 9.73883C3.65836 9.13876 3.83096 8.63351 4.23223 8.23223C4.63351 7.83096 5.13876 7.65836 5.73883 7.57768C6.31681 7.49998 7.05169 7.49999 7.96342 7.5L8 7.5L8 7.46471C7.99998 6.78765 7.99997 6.22935 8.05938 5.78747C8.12175 5.32355 8.25773 4.91384 8.58579 4.58579C8.91384 4.25773 9.32355 4.12175 9.78747 4.05938C10.2293 3.99997 10.7877 3.99998 11.4647 4ZM9 7.5H15C15 6.77876 14.9989 6.28813 14.9495 5.92072C14.9021 5.56769 14.8184 5.40418 14.7071 5.29289C14.5958 5.18161 14.4323 5.09792 14.0793 5.05046C13.7119 5.00106 13.2212 5 12.5 5H11.5C10.7788 5 10.2881 5.00106 9.92072 5.05046C9.56769 5.09792 9.40418 5.18161 9.29289 5.29289C9.18161 5.40418 9.09792 5.56769 9.05046 5.92072C9.00106 6.28813 9 6.77876 9 7.5ZM5.87208 8.56877C5.3829 8.63454 5.12385 8.75483 4.93934 8.93934C4.75483 9.12385 4.63453 9.3829 4.56877 9.87208C4.50106 10.3756 4.5 11.0431 4.5 12V15.5C4.5 16.4569 4.50106 17.1244 4.56877 17.6279C4.63453 18.1171 4.75483 18.3762 4.93934 18.5607C5.12385 18.7452 5.3829 18.8655 5.87208 18.9312C6.37565 18.9989 7.04306 19 8 19H16C16.9569 19 17.6244 18.9989 18.1279 18.9312C18.6171 18.8655 18.8762 18.7452 19.0607 18.5607C19.2452 18.3762 19.3655 18.1171 19.4312 17.6279C19.4989 17.1244 19.5 16.4569 19.5 15.5V12C19.5 11.0431 19.4989 10.3756 19.4312 9.87208C19.3655 9.3829 19.2452 9.12385 19.0607 8.93934C18.8762 8.75483 18.6171 8.63454 18.1279 8.56877C17.6244 8.50106 16.9569 8.5 16 8.5H8C7.04306 8.5 6.37565 8.50106 5.87208 8.56877Z" fill="#22202A"/>
<path d="M10.9321 10.963C10.875 11.1008 10.875 11.2755 10.875 11.625V12.339C10.875 12.356 10.875 12.3645 10.8697 12.3697C10.8645 12.375 10.856 12.375 10.839 12.375H10.125C9.77554 12.375 9.60082 12.375 9.46299 12.4321C9.27922 12.5082 9.13321 12.6542 9.05709 12.838C9 12.9758 9 13.1505 9 13.5C9 13.8495 9 14.0242 9.05709 14.162C9.13321 14.3458 9.27922 14.4918 9.46299 14.5679C9.60082 14.625 9.77554 14.625 10.125 14.625H10.839C10.856 14.625 10.8645 14.625 10.8697 14.6303C10.875 14.6355 10.875 14.644 10.875 14.661V15.375C10.875 15.7245 10.875 15.8992 10.9321 16.037C11.0082 16.2208 11.1542 16.3668 11.338 16.4429C11.4758 16.5 11.6505 16.5 12 16.5C12.3495 16.5 12.5242 16.5 12.662 16.4429C12.8458 16.3668 12.9918 16.2208 13.0679 16.037C13.125 15.8992 13.125 15.7245 13.125 15.375V14.661C13.125 14.644 13.125 14.6355 13.1303 14.6303C13.1355 14.625 13.144 14.625 13.161 14.625H13.875C14.2245 14.625 14.3992 14.625 14.537 14.5679C14.7208 14.4918 14.8668 14.3458 14.9429 14.162C15 14.0242 15 13.8495 15 13.5C15 13.1505 15 12.9758 14.9429 12.838C14.8668 12.6542 14.7208 12.5082 14.537 12.4321C14.3992 12.375 14.2245 12.375 13.875 12.375H13.161C13.144 12.375 13.1355 12.375 13.1303 12.3697C13.125 12.3645 13.125 12.356 13.125 12.339V11.625C13.125 11.2755 13.125 11.1008 13.0679 10.963C12.9918 10.7792 12.8458 10.6332 12.662 10.5571C12.5242 10.5 12.3495 10.5 12 10.5C11.6505 10.5 11.4758 10.5 11.338 10.5571C11.1542 10.6332 11.0082 10.7792 10.9321 10.963Z" fill="#22202A"/>
</svg>
