<svg width="24" height="24" viewBox="0 0 24 24" fill="none" xmlns="http://www.w3.org/2000/svg">
<path d="M8.6 18C7.4402 18 6.5 18.9402 6.5 20.1C6.5 20.5971 6.90294 21 7.4 21H16.6C17.0971 21 17.5 20.5971 17.5 20.1C17.5 18.9402 16.5598 18 15.4 18H8.6Z" fill="#22202A"/>
<path d="M15.5867 10.8087C15.4891 10.5149 15.3563 10.2356 15.1919 9.9764C15.2924 9.99193 15.3952 9.99998 15.5 9.99998C15.7718 9.99998 16.031 9.94576 16.2672 9.84755C16.372 10.0553 16.4618 10.2711 16.5357 10.4935C16.8001 11.2896 16.8503 12.1414 16.6813 12.9631C16.5122 13.7849 16.1298 14.5476 15.5725 15.1747C15.0152 15.8018 14.3027 16.2712 13.5065 16.5356C12.7103 16.8001 11.8586 16.8503 11.0368 16.6812C10.5263 16.5762 9.91042 16.2313 9.46916 15.9564C9.23773 15.8122 9.03394 15.674 8.88808 15.5719C8.85019 15.5454 8.8161 15.5213 8.78634 15.5H10.5C10.5527 15.5 10.6035 15.4918 10.6512 15.4767C10.8723 15.5864 11.0768 15.6685 11.2384 15.7018C11.8882 15.8354 12.5617 15.7957 13.1913 15.5866C13.8209 15.3775 14.3843 15.0064 14.825 14.5105C15.2657 14.0146 15.5681 13.4114 15.7018 12.7616C15.8355 12.1118 15.7958 11.4383 15.5867 10.8087Z" fill="#22202A"/>
<path d="M6.54547 15.5C6.62074 15.6044 6.71945 15.7391 6.83071 15.8849C7.07231 16.2016 7.40083 16.6086 7.68224 16.8587C8.53512 17.6166 9.57249 18.1367 10.6901 18.3666C11.8076 18.5965 12.9661 18.5283 14.0489 18.1686C15.1317 17.8089 16.1008 17.1706 16.8587 16.3177C17.6166 15.4648 18.1367 14.4275 18.3666 13.3099C18.5966 12.1923 18.5283 11.0339 18.1686 9.95108C17.9927 9.42128 17.75 8.9187 17.4481 8.45477C17.3578 8.84302 17.1544 9.18788 16.8746 9.45275C17.0107 9.71329 17.1263 9.98526 17.2196 10.2663C17.5239 11.1825 17.5817 12.1627 17.3872 13.1084C17.1926 14.054 16.7525 14.9318 16.1112 15.6534C15.4699 16.3751 14.6499 16.9153 13.7337 17.2196C12.8174 17.5239 11.8372 17.5817 10.8916 17.3871C9.94595 17.1926 9.06818 16.7525 8.34651 16.1112C8.19197 15.9738 7.99272 15.7438 7.79843 15.5H6.54547Z" fill="#22202A"/>
<path opacity="0.5" fill-rule="evenodd" clip-rule="evenodd" d="M6 15C6 14.7239 6.22386 14.5 6.5 14.5H10.5C10.7761 14.5 11 14.7239 11 15C11 15.2761 10.7761 15.5 10.5 15.5H6.5C6.22386 15.5 6 15.2761 6 15Z" fill="#22202A"/>
<path opacity="0.5" fill-rule="evenodd" clip-rule="evenodd" d="M7.89119 9.78466C7.89478 9.78191 7.89838 9.77915 7.902 9.77638L9.52068 8.53611L11.3753 10.9566L9.74578 12.2051C9.63505 12.29 9.53421 12.3672 9.44544 12.4267C9.35042 12.4904 9.24185 12.553 9.11168 12.5918C8.78393 12.6894 8.43008 12.6426 8.13901 12.463C8.02341 12.3917 7.93486 12.3031 7.85969 12.2168C7.78946 12.1363 7.71219 12.0354 7.62735 11.9247C7.6246 11.9211 7.62184 11.9175 7.61907 11.9139C7.6163 11.9103 7.61354 11.9067 7.61078 11.9031C7.52594 11.7924 7.44866 11.6915 7.38915 11.6027C7.32545 11.5077 7.26289 11.3992 7.22411 11.269C7.12646 10.9412 7.1733 10.5874 7.35286 10.2963C7.42417 10.1807 7.51282 10.0922 7.59905 10.017C7.6796 9.94677 7.78045 9.8695 7.89119 9.78466ZM8.20303 10.8227L8.20394 10.8214C8.20636 10.8182 8.21842 10.8037 8.25621 10.7707C8.30997 10.7239 8.38517 10.666 8.5102 10.5702L9.33511 9.9381L9.97329 10.771L9.14838 11.403C9.02335 11.4989 8.94786 11.5564 8.88862 11.5961C8.84697 11.624 8.82903 11.6321 8.82533 11.6337C8.77121 11.6495 8.7129 11.6418 8.66477 11.6124C8.66159 11.61 8.64638 11.5975 8.61344 11.5597C8.56657 11.5059 8.50865 11.4307 8.41285 11.3057C8.31704 11.1807 8.2595 11.1052 8.21978 11.0459C8.19187 11.0043 8.18375 10.9863 8.18224 10.9826C8.16637 10.9285 8.17362 10.8709 8.20303 10.8227Z" fill="#22202A"/>
<path opacity="0.5" fill-rule="evenodd" clip-rule="evenodd" d="M16.2524 3.17535C16.2532 3.17469 16.2541 3.17405 16.2549 3.17342C16.2561 3.17249 16.2573 3.17156 16.2585 3.17064C16.2733 3.15932 16.2873 3.14859 16.3004 3.13905C16.8608 2.7312 17.6427 2.83475 18.0776 3.37444C18.0878 3.38706 18.0985 3.40107 18.1098 3.41584L18.3556 3.73666C18.3669 3.75142 18.3776 3.76542 18.3872 3.77853C18.795 4.33895 18.6915 5.12081 18.1518 5.55572C18.1391 5.5659 18.1251 5.57663 18.1104 5.58795L18.1042 5.59265C18.0955 5.59936 18.0848 5.60753 18.0746 5.61495C17.6435 5.92869 17.0421 5.84903 16.7075 5.43388C16.4791 5.15039 16.2563 4.8596 16.0421 4.56521C15.7283 4.13411 15.808 3.53269 16.2231 3.19814C16.2329 3.19022 16.2436 3.18206 16.2524 3.17535ZM16.851 3.9773L17.4858 4.80586L17.4986 4.79688L17.5243 4.77709C17.6488 4.67672 17.6727 4.4963 17.5786 4.36697L17.559 4.34117L17.3187 4.02761L17.299 4.00192C17.1986 3.87738 17.0182 3.85348 16.8888 3.9476L16.863 3.96725L16.851 3.9773Z" fill="#22202A"/>
<path d="M8.83685 7.74408C9.01589 7.56433 9.26315 7.37494 9.54119 7.16198L13.9626 3.77479C14.2406 3.56178 14.4879 3.37235 14.708 3.24627C14.9473 3.10924 15.2179 3.00868 15.5341 3.05056C15.8503 3.09244 16.0854 3.25998 16.2808 3.45458C16.4605 3.63362 16.6499 3.8809 16.8629 4.15893L17.1861 4.58084C17.3991 4.85885 17.5885 5.10607 17.7146 5.32624C17.8516 5.56553 17.9522 5.83613 17.9103 6.15233C17.8684 6.46853 17.7009 6.70362 17.5063 6.89899C17.4413 6.96423 17.3673 7.03075 17.2861 7.0992C17.2099 6.94825 17.115 6.80828 17.0046 6.6823C17.0042 6.68186 17.0038 6.68141 17.0034 6.68097C16.9124 6.57733 16.8109 6.48318 16.7005 6.4002C16.3661 6.14892 15.9505 6.00002 15.5 6.00002C14.3955 6.00002 13.5 6.89545 13.5 8.00002C13.5 8.28949 13.5615 8.56459 13.6722 8.81298C13.6765 8.82269 13.6809 8.83236 13.6854 8.84199C13.6884 8.84861 13.6915 8.8552 13.6947 8.86178C13.7375 8.95135 13.7868 9.03723 13.842 9.11882C13.936 9.25791 14.0471 9.38452 14.1722 9.49568L12.3805 10.8683C12.1025 11.0813 11.8553 11.2707 11.6351 11.3968C11.3958 11.5338 11.1252 11.6344 10.809 11.5925C10.4928 11.5506 10.2578 11.3831 10.0624 11.1885C9.88264 11.0094 9.69325 10.7622 9.48028 10.4841L9.15706 10.0622C8.94404 9.78422 8.75462 9.53699 8.62854 9.31683C8.4915 9.07753 8.39094 8.80694 8.43282 8.49074C8.4747 8.17453 8.64224 7.93945 8.83685 7.74408Z" fill="#22202A"/>
<path opacity="0.5" fill-rule="evenodd" clip-rule="evenodd" d="M15.5 7C14.9477 7 14.5 7.44772 14.5 8C14.5 8.55228 14.9477 9 15.5 9C16.0523 9 16.5 8.55228 16.5 8C16.5 7.44772 16.0523 7 15.5 7ZM13.5 8C13.5 6.89543 14.3954 6 15.5 6C16.6046 6 17.5 6.89543 17.5 8C17.5 9.10457 16.6046 10 15.5 10C14.3954 10 13.5 9.10457 13.5 8Z" fill="#22202A"/>
</svg>
