<svg width="24" height="24" viewBox="0 0 24 24" fill="none" xmlns="http://www.w3.org/2000/svg">
<path opacity="0.5" d="M21.5 12C21.5 14.7379 20.5226 17.096 18.8639 18.7779C17.1768 20.4887 14.7849 21.5 12 21.5C6.47715 21.5 2.5 17.5228 2.5 12C2.5 9.24605 3.48891 6.87644 5.16527 5.19263C6.85072 3.49968 9.2311 2.5 12 2.5C17.5228 2.5 21.5 6.47715 21.5 12Z" fill="#22202A"/>
<path fill-rule="evenodd" clip-rule="evenodd" d="M16.3243 10.6757C16.2012 10.5527 16.059 10.5192 15.9764 10.5081C15.9139 10.4997 15.8458 10.4999 15.8094 10.5L15.8 10.5L6.36976 10.5C6.06583 10.4999 5.78955 10.4999 5.56529 10.5301C5.31923 10.5631 5.06237 10.6406 4.85148 10.8514C4.64058 11.0623 4.56317 11.3192 4.53009 11.5653C4.49994 11.7895 4.49997 12.0658 4.5 12.3697V12.6302C4.49997 12.9342 4.49994 13.2104 4.53009 13.4347C4.56317 13.6808 4.64058 13.9376 4.85148 14.1485C5.06237 14.3594 5.31923 14.4368 5.56529 14.4699C5.78955 14.5 6.06583 14.5 6.36976 14.5L15.8 14.5L15.8094 14.5C15.8458 14.5001 15.9139 14.5003 15.9764 14.4919C16.059 14.4807 16.2012 14.4473 16.3243 14.3242C16.4473 14.2012 16.4808 14.059 16.4919 13.9763C16.5003 13.9139 16.5001 13.8458 16.5 13.8093L16.5 13.8V11.2L16.5 11.1906C16.5001 11.1542 16.5003 11.0861 16.4919 11.0236C16.4808 10.9409 16.4473 10.7987 16.3243 10.6757ZM9 11.5H15.5V13.5H9V11.5Z" fill="#22202A"/>
<path fill-rule="evenodd" clip-rule="evenodd" d="M15.5 6.5L13.5 6.5C13.107 6.5 12.8607 6.62067 12.717 6.7554C12.5707 6.89251 12.5 7.07166 12.5 7.25C12.5 7.42835 12.5707 7.60749 12.717 7.74461C12.8607 7.87933 13.107 8 13.5 8V8.5V9C12.893 9 12.3893 8.80817 12.033 8.47415C11.6793 8.14251 11.5 7.69666 11.5 7.25C11.5 6.80335 11.6793 6.35749 12.033 6.02586C12.3893 5.69183 12.893 5.5 13.5 5.5C14.7179 5.5 14.8321 5.5 14.9557 5.5C15.035 5.5 15.1182 5.5 15.5 5.5C15.7761 5.5 16 5.72386 16 6C16 6.27614 15.7761 6.5 15.5 6.5ZM13.5 8.5V9L17 9C17.2968 9 17.569 9.00655 17.768 9.08786C17.8543 9.12313 17.9026 9.16384 17.9324 9.20672C17.9611 9.24824 18 9.33125 18 9.5C18 9.77614 18.2239 10 18.5 10C18.7761 10 19 9.77614 19 9.5C19 9.16875 18.9204 8.87676 18.7542 8.63703C18.589 8.39866 18.3659 8.25187 18.1462 8.16214C17.7478 7.99936 17.2889 7.99976 17.0276 7.99998C17.0182 7.99999 17.0089 8 17 8L13.5 8V8.5Z" fill="#22202A"/>
<path fill-rule="evenodd" clip-rule="evenodd" d="M17.5 11C17.7761 11 18 11.2239 18 11.5V13.5C18 13.7761 17.7761 14 17.5 14C17.2239 14 17 13.7761 17 13.5V11.5C17 11.2239 17.2239 11 17.5 11Z" fill="#22202A"/>
<path fill-rule="evenodd" clip-rule="evenodd" d="M19 11C19.2761 11 19.5 11.2239 19.5 11.5V13.5C19.5 13.7761 19.2761 14 19 14C18.7239 14 18.5 13.7761 18.5 13.5V11.5C18.5 11.2239 18.7239 11 19 11Z" fill="#22202A"/>
<path fill-rule="evenodd" clip-rule="evenodd" d="M5.88391 5.20114L18.8491 18.059C20.2029 16.5073 21 14.419 21 12C21 6.75329 17.2467 3 12 3C9.55134 3 7.44142 3.81671 5.88391 5.20114ZM18.1471 18.7712L5.17829 5.90973C3.80778 7.46464 3 9.56479 3 12C3 17.2467 6.75329 21 12 21C14.4649 21 16.5865 20.1724 18.1471 18.7712ZM4.81093 4.83986C6.59659 3.04626 9.10743 2 12 2C17.799 2 22 6.20101 22 12C22 14.8601 20.9771 17.3472 19.2199 19.129C17.4325 20.9416 14.9094 22 12 22C6.20101 22 2 17.799 2 12C2 9.12309 3.03495 6.62374 4.81093 4.83986Z" fill="#22202A"/>
</svg>
