<svg width="24" height="24" viewBox="0 0 24 24" fill="none" xmlns="http://www.w3.org/2000/svg">
<g opacity="0.5">
<path d="M14.5 15C14.5001 15.1007 14.4699 15.2024 14.4069 15.2906L11.9069 18.7906C11.7464 19.0153 11.4341 19.0673 11.2094 18.9068C10.9847 18.7463 10.9326 18.434 11.0931 18.2093L11.4719 17.679L9.14645 15.3535C9.04883 15.2559 9.00001 15.1279 9 15H8.5C7.86838 15 7.01107 15.3008 6.31265 15.8596C5.59839 16.431 5 17.3141 5 18.5C5 19.036 5.0659 19.5582 5.29128 20.0286C5.52244 20.511 5.90116 20.8973 6.45221 21.1912C7.51119 21.756 9.25201 22 12 22C14.748 22 16.4888 21.756 17.5478 21.1912C18.0988 20.8973 18.4776 20.511 18.7087 20.0286C18.9341 19.5582 19 19.036 19 18.5C19 17.3141 18.4016 16.431 17.6873 15.8596C16.9889 15.3008 16.1316 15 15.5 15H14.5Z" fill="#22202A"/>
<path d="M10.5515 15.3444L10.6384 15.4312L10.6166 15.4093C10.596 15.3885 10.5743 15.3667 10.5515 15.3444Z" fill="#22202A"/>
</g>
<path fill-rule="evenodd" clip-rule="evenodd" d="M8.25 16.75C8.52614 16.75 8.75 16.9739 8.75 17.25V17.5H9C9.27614 17.5 9.5 17.7239 9.5 18C9.5 18.2761 9.27614 18.5 9 18.5H8.75V18.75C8.75 19.0261 8.52614 19.25 8.25 19.25C7.97386 19.25 7.75 19.0261 7.75 18.75V18.5H7.5C7.22386 18.5 7 18.2761 7 18C7 17.7239 7.22386 17.5 7.5 17.5H7.75V17.25C7.75 16.9739 7.97386 16.75 8.25 16.75Z" fill="#22202A"/>
<path fill-rule="evenodd" clip-rule="evenodd" d="M8.21558 5.08868L9.09524 6.6123C9.31997 7.00155 9.7979 7.10989 10.1642 6.92884C10.734 6.64727 11.3621 6.49999 12 6.49999C12.638 6.49999 13.266 6.64727 13.8358 6.92884C14.2022 7.10989 14.6801 7.00155 14.9048 6.6123L15.7845 5.08872C16.2713 5.41649 16.6926 6.03305 16.9966 6.72343C17.309 7.43253 17.5282 8.2878 17.5621 9.15547C17.596 10.0223 17.4455 10.9298 16.9863 11.7149C16.6175 12.3456 16.0623 12.8743 15.293 13.2331C15.1841 13.4337 15.0642 13.6257 14.9344 13.807C14.2821 14.7182 13.2655 15.5 12 15.5C10.7345 15.5 9.71785 14.7182 9.06555 13.807C8.9358 13.6257 8.81592 13.4337 8.70703 13.2331C7.93766 12.8743 7.38254 12.3456 7.01369 11.7149C6.55451 10.9298 6.404 10.0223 6.43786 9.15547C6.47175 8.2878 6.691 7.43253 7.00334 6.72343C7.30745 6.03303 7.72875 5.41645 8.21558 5.08868ZM13.3535 7.85355C13.5488 7.65829 13.5488 7.34171 13.3535 7.14645C13.1583 6.95118 12.8417 6.95118 12.6464 7.14645L12.6386 7.15428C12.2336 7.5594 11.1192 8.67407 8.62845 8.94168C8.35389 8.97118 8.15523 9.21767 8.18473 9.49223C8.20682 9.69787 8.35063 9.86093 8.53679 9.91744C8.51252 10.1078 8.49998 10.3024 8.49998 10.5C8.49998 11.574 8.8703 12.6753 9.4721 13.5159C10.0697 14.3507 10.953 15 12 15C13.0469 15 13.9303 14.3507 14.5279 13.5159C15.1297 12.6753 15.5 11.574 15.5 10.5C15.5 10.2414 15.4785 9.98812 15.4374 9.74244C15.4773 9.67063 15.5 9.58797 15.5 9.5C15.5 9.22386 15.2761 9 15 9C14.3067 9 13.8876 8.8848 13.5986 8.74029C13.3414 8.61168 13.1571 8.44675 12.9456 8.238C13.1206 8.08581 13.2547 7.95242 13.3535 7.85355Z" fill="#22202A"/>
<path opacity="0.5" fill-rule="evenodd" clip-rule="evenodd" d="M8.02901 3.12817C9.25134 2.4823 10.6143 2.14355 12 2.14355C13.3857 2.14355 14.7487 2.4823 15.971 3.12817C16.3791 3.34378 16.5014 3.84697 16.283 4.22516L14.9048 6.6123C14.6801 7.00155 14.2022 7.1099 13.8358 6.92885C13.266 6.64727 12.638 6.49999 12 6.49999C11.3621 6.49999 10.734 6.64727 10.1642 6.92885C9.7979 7.1099 9.31997 7.00155 9.09524 6.6123L7.71702 4.22516C7.49867 3.84697 7.62097 3.34378 8.02901 3.12817ZM8.69138 3.91281L9.87344 5.96019C10.5396 5.6577 11.2645 5.49999 12 5.49999C12.7355 5.49999 13.4604 5.6577 14.1266 5.96019L15.3087 3.91281C14.2811 3.4077 13.1494 3.14355 12 3.14355C10.8506 3.14355 9.71892 3.4077 8.69138 3.91281Z" fill="#22202A"/>
</svg>
