<svg width="24" height="24" viewBox="0 0 24 24" fill="none" xmlns="http://www.w3.org/2000/svg">
<g opacity="0.5">
<path d="M9.00889 6.69204C8.31516 5.66243 8.02024 5.0365 8.05942 4.13985C5.19939 7.35412 7.98651 10.6307 10.0277 13.2092C10.6986 12.4338 11.356 11.6475 12 10.8305C10.9472 9.49483 9.95909 8.1023 9.00889 6.69204Z" fill="#22202A"/>
<path d="M15.9405 4.13985C15.9797 5.0365 15.6848 5.66243 14.9911 6.69204C14.0409 8.1023 13.0527 9.49483 12 10.8305C11.356 11.6475 10.6986 12.4338 10.0277 13.2092C9.11758 14.2613 6.58755 17.1147 6.20781 17.5429C6.17832 17.5761 6.17554 17.6219 6.19921 17.6595C6.42652 18.0208 7.57599 19.847 7.99998 20.5C8.02881 20.5462 9.97506 18.1892 12 15.6766C12.6711 14.844 13.3508 13.9942 13.9722 13.2092C16.0135 10.6307 18.8006 7.35412 15.9405 4.13985Z" fill="#22202A"/>
<path d="M12 15.6766C14.0249 18.1892 15.9712 20.5462 16 20.5C16.3459 19.9673 17.565 18.0337 17.8005 17.6599C17.8242 17.6223 17.8217 17.5762 17.7922 17.5429C17.3996 17.0997 14.7098 14.0618 13.9722 13.2092C13.3508 13.9942 12.6711 14.844 12 15.6766Z" fill="#22202A"/>
</g>
<path fill-rule="evenodd" clip-rule="evenodd" d="M7.75258 5.43839C7.54193 5.83946 7.42123 6.23304 7.36875 6.6179C7.27407 7.3123 7.39636 8.01713 7.67218 8.73321C8.16586 10.0149 9.11423 11.2508 10.0431 12.4239C10.4899 11.9 10.9299 11.3702 11.3634 10.8281C10.3916 9.57567 9.47536 8.27919 8.59422 6.97143C8.21071 6.40224 7.92592 5.92483 7.75258 5.43839ZM12 10.0163C12.7949 8.98166 13.5549 7.91452 14.2924 6.83189C13.4695 6.32963 12.722 6.09922 12 6.09922C11.2779 6.09922 10.5304 6.32963 9.70754 6.83189C10.4451 7.91452 11.205 8.98166 12 10.0163ZM9.15364 5.99856C10.1028 5.4133 11.0383 5.09922 12 5.09922C12.9616 5.09922 13.8972 5.4133 14.8463 5.99856C15.2705 5.31914 15.4372 4.87317 15.4438 4.32991C14.6196 3.42366 13.3299 2.94519 12 2.94519C10.67 2.94519 9.38031 3.42366 8.55613 4.32991C8.56276 4.87317 8.7294 5.31913 9.15364 5.99856ZM7.67976 3.81437C6.9108 4.68086 6.50158 5.57585 6.37792 6.4828C6.25459 7.38735 6.4204 8.26549 6.73901 9.09265C7.31425 10.5861 8.42518 11.9957 9.37782 13.1947C8.3177 14.4097 6.18143 16.8191 5.83374 17.2111C5.65017 17.4181 5.63936 17.7086 5.77598 17.9258C6.00208 18.2852 7.15297 20.1136 7.57996 20.7713C7.66569 20.9042 7.7992 20.976 7.927 20.9952C8.03463 21.0113 8.11914 20.9882 8.15561 20.9765C8.22858 20.9531 8.27942 20.9178 8.29257 20.9087L8.29309 20.9083C8.32946 20.8831 8.35796 20.8566 8.3697 20.8455C8.3996 20.8175 8.43288 20.7825 8.4645 20.7482C8.53061 20.6766 8.62157 20.573 8.73152 20.4452C8.95272 20.1879 9.26431 19.8163 9.63654 19.3668C10.2859 18.5827 11.1244 17.556 12 16.4727C12.8755 17.556 13.7141 18.5827 14.3634 19.3668C14.7356 19.8163 15.0472 20.1879 15.2684 20.4452C15.3784 20.573 15.4693 20.6766 15.5354 20.7482C15.5671 20.7825 15.6003 20.8175 15.6302 20.8455C15.642 20.8566 15.6705 20.8831 15.7069 20.9083L15.7074 20.9087C15.7205 20.9178 15.7714 20.9531 15.8443 20.9765C15.8808 20.9882 15.9653 21.0113 16.0729 20.9952C16.2007 20.976 16.3343 20.9042 16.42 20.7713C16.7692 20.2335 17.9894 18.298 18.2235 17.9264C18.3594 17.7109 18.3511 17.4198 18.1665 17.2114C17.8116 16.8107 15.5956 14.3079 14.6223 13.1944C15.5749 11.9955 16.6857 10.586 17.2609 9.09265C17.5795 8.26549 17.7454 7.38735 17.622 6.4828C17.4984 5.57585 17.0891 4.68087 16.3202 3.81438C15.2716 2.54902 13.6139 1.94519 12 1.94519C10.3861 1.94519 8.72831 2.54902 7.67976 3.81437ZM16.2474 5.43838C16.074 5.92482 15.7892 6.40224 15.4057 6.97143C14.4512 8.38806 13.4556 9.79145 12.3927 11.14C11.7428 11.9645 11.0803 12.7567 10.4059 13.5363C9.5946 14.4741 7.5035 16.835 6.78279 17.6481C7.08099 18.1216 7.6514 19.0263 8.06889 19.6814C8.27553 19.439 8.54723 19.1143 8.86634 18.729C9.60783 17.8336 10.5992 16.618 11.6107 15.3629C12.281 14.5311 12.9598 13.6825 13.5802 12.8988C13.6441 12.8181 13.7085 12.737 13.7731 12.6556C14.7584 11.414 15.8015 10.0996 16.3278 8.73321C16.6036 8.01713 16.7259 7.3123 16.6312 6.6179C16.5787 6.23304 16.458 5.83945 16.2474 5.43838ZM13.9904 13.9908C13.5547 14.5389 13.0983 15.1092 12.6421 15.6763C13.5646 16.8188 14.454 17.9083 15.1336 18.729C15.4525 19.1141 15.7241 19.4386 15.9307 19.681C16.3347 19.0461 16.9148 18.1271 17.2171 17.6477C16.5832 16.9317 14.8916 15.0198 13.9904 13.9908Z" fill="#22202A"/>
</svg>
