<svg width="24" height="24" viewBox="0 0 24 24" fill="none" xmlns="http://www.w3.org/2000/svg">
<path opacity="0.5" d="M5.5 10.5C5.5 9.11919 8.75 8 12 8C15.25 8 18.5 9.11919 18.5 10.5C18.5 11.9409 16.6545 11.0363 15.6227 10.559C15.5935 10.5455 15.5654 10.5823 15.5852 10.6077C17.5099 13.0668 17.9552 15.5121 15.017 16.9915C15.0068 16.9966 15 17.0054 15.0001 17.0168C15.0017 17.1235 15.0171 17.3001 15.0365 17.5231C15.1459 18.7777 15.3832 21.5 14 21.5C12.7175 21.5 12.8815 19.2525 12.9689 18.0551C12.9847 17.8388 12.998 17.6567 12.9998 17.5284C13 17.5118 12.9866 17.5 12.97 17.5H11.03C11.0134 17.5 11 17.5118 11.0002 17.5284C11.002 17.6567 11.0153 17.8388 11.0311 18.0551C11.1185 19.2525 11.2825 21.5 10 21.5C8.61684 21.5 8.85415 18.7777 8.96351 17.5231C8.98294 17.3001 8.99834 17.1235 8.99987 17.0168C9.00004 17.0054 8.99318 16.9966 8.98304 16.9915C6.04477 15.5121 6.49006 13.0668 8.41481 10.6077C8.43463 10.5823 8.40648 10.5455 8.37728 10.559C7.34545 11.0363 5.5 11.9409 5.5 10.5Z" fill="#22202A"/>
<path fill-rule="evenodd" clip-rule="evenodd" d="M7.35725 8.26345C8.63973 7.7874 10.3248 7.5 12 7.5C13.6752 7.5 15.3603 7.7874 16.6427 8.26345C17.282 8.50073 17.8478 8.79463 18.2633 9.14426C18.6738 9.48961 19 9.94537 19 10.5C19 10.9689 18.8418 11.386 18.4475 11.6161C18.1008 11.8184 17.6888 11.7998 17.3602 11.741C17.2011 11.7125 17.0352 11.6692 16.8683 11.6167C17.3477 12.4697 17.6363 13.3356 17.6247 14.174C17.6072 15.4307 16.9211 16.5023 15.5184 17.2909C15.5231 17.3468 15.5285 17.4096 15.5346 17.4797L15.5362 17.4979C15.5902 18.1172 15.6805 19.1523 15.5744 20.0412C15.5213 20.4867 15.4133 20.9518 15.1857 21.3187C14.9412 21.7126 14.5491 22 14 22C13.5033 22 13.1272 21.7692 12.8785 21.4204C12.6484 21.0978 12.5354 20.6892 12.4764 20.3019C12.3595 19.5344 12.4257 18.6281 12.4686 18.0414L12.4702 18.0187C12.4707 18.0124 12.4712 18.0062 12.4716 18H11.5284C11.5288 18.0062 11.5293 18.0124 11.5298 18.0187L11.5314 18.0414C11.5743 18.6281 11.6405 19.5344 11.5236 20.3019C11.4646 20.6892 11.3516 21.0978 11.1215 21.4204C10.8728 21.7692 10.4967 22 10 22C9.45086 22 9.0588 21.7126 8.81431 21.3187C8.58666 20.9518 8.47872 20.4867 8.42558 20.0412C8.31954 19.1524 8.40981 18.1172 8.4638 17.4979L8.46539 17.4797C8.4715 17.4096 8.47694 17.3468 8.4816 17.2909C7.07889 16.5023 6.39284 15.4307 6.37534 14.174C6.36367 13.3356 6.65233 12.4697 7.13172 11.6167C6.96475 11.6692 6.79891 11.7125 6.63983 11.741C6.31116 11.7998 5.8992 11.8184 5.55248 11.6161C5.15819 11.386 5 10.9689 5 10.5C5 9.94537 5.32625 9.48961 5.73668 9.14426C6.1522 8.79463 6.71801 8.50073 7.35725 8.26345ZM6.38051 9.90943C6.08 10.1623 6 10.3642 6 10.5C6 10.6294 6.02105 10.6958 6.03424 10.724C6.04414 10.7452 6.05083 10.7491 6.05606 10.7521L6.05647 10.7524C6.08802 10.7708 6.2019 10.8035 6.46358 10.7566C6.94896 10.6697 7.55904 10.3871 8.08333 10.1441C8.1116 10.131 8.13962 10.118 8.16736 10.1052C8.43375 9.98197 8.68872 10.1051 8.81092 10.2641C8.93182 10.4215 8.9841 10.6915 8.80855 10.9158C7.87013 12.1148 7.36227 13.228 7.37524 14.16C7.38736 15.0306 7.85887 15.8657 9.20788 16.5449C9.34364 16.6132 9.50341 16.7751 9.49982 17.024C9.49802 17.1492 9.48138 17.3399 9.46356 17.5442L9.46162 17.5665C9.40604 18.204 9.32583 19.1456 9.41854 19.9228C9.4653 20.3148 9.55054 20.6086 9.66399 20.7914C9.7606 20.9471 9.85756 21 10 21C10.1446 21 10.2289 20.9499 10.3074 20.8398C10.4045 20.7036 10.4856 20.4755 10.535 20.1513C10.6333 19.5056 10.577 18.703 10.5324 18.0915L10.5313 18.0767C10.5164 17.8725 10.5023 17.6786 10.5003 17.5354C10.4955 17.2 10.7763 17 11.03 17H12.97C13.2237 17 13.5045 17.2 13.4997 17.5354C13.4977 17.6786 13.4836 17.8725 13.4687 18.0767L13.4676 18.0915C13.423 18.703 13.3667 19.5056 13.465 20.1513C13.5144 20.4755 13.5955 20.7036 13.6926 20.8398C13.7711 20.9499 13.8554 21 14 21C14.1424 21 14.2394 20.9471 14.336 20.7914C14.4495 20.6086 14.5347 20.3148 14.5815 19.9228C14.6742 19.1456 14.594 18.204 14.5384 17.5665L14.5364 17.5442C14.5186 17.3399 14.502 17.1492 14.5002 17.024V17.024C14.4966 16.7751 14.6563 16.6133 14.7921 16.5449C16.1411 15.8657 16.6126 15.0306 16.6248 14.16C16.6377 13.228 16.1299 12.1148 15.1915 10.9158L15.5852 10.6077L15.1915 10.9158C15.0159 10.6915 15.0682 10.4215 15.1891 10.2641C15.3113 10.1051 15.5663 9.98197 15.8326 10.1052C15.8604 10.118 15.8884 10.131 15.9167 10.1441C16.441 10.3871 17.051 10.6697 17.5364 10.7566C17.7981 10.8035 17.912 10.7708 17.9435 10.7524L17.9439 10.7521C17.9492 10.7491 17.9559 10.7452 17.9658 10.724C17.9789 10.6958 18 10.6294 18 10.5C18 10.3642 17.92 10.1623 17.6195 9.90943C17.3241 9.66086 16.8743 9.41606 16.2948 9.20094C15.1397 8.7722 13.5748 8.5 12 8.5C10.4252 8.5 8.86027 8.7722 7.70525 9.20094C7.12574 9.41606 6.67592 9.66086 6.38051 9.90943Z" fill="#22202A"/>
<path opacity="0.5" d="M14 4.5C14 5.60457 13.1046 6.5 12 6.5C10.8954 6.5 10 5.60457 10 4.5C10 3.39543 10.8954 2.5 12 2.5C13.1046 2.5 14 3.39543 14 4.5Z" fill="#22202A"/>
<path fill-rule="evenodd" clip-rule="evenodd" d="M12 3C11.1716 3 10.5 3.67157 10.5 4.5C10.5 5.32843 11.1716 6 12 6C12.8284 6 13.5 5.32843 13.5 4.5C13.5 3.67157 12.8284 3 12 3ZM9.5 4.5C9.5 3.11929 10.6193 2 12 2C13.3807 2 14.5 3.11929 14.5 4.5C14.5 5.88071 13.3807 7 12 7C10.6193 7 9.5 5.88071 9.5 4.5Z" fill="#22202A"/>
</svg>
