<svg width="24" height="24" viewBox="0 0 24 24" fill="none" xmlns="http://www.w3.org/2000/svg">
<g opacity="0.5">
<path d="M19.6137 6.49143C19.4468 6.43483 19.2921 6.46246 19.182 6.50001H4.75284C4.70028 6.48571 4.63993 6.47518 4.57413 6.47473C4.50163 6.47423 4.36306 6.48858 4.23587 6.59476C4.08658 6.71939 4.02114 6.91799 4.06794 7.1073C4.14107 7.40308 4.39666 7.48566 4.5383 7.4982L4.54825 7.50491C4.59352 7.5357 4.64932 7.57755 4.71788 7.63222C4.83471 7.72539 4.97033 7.84103 5.13297 7.97969L5.22863 8.0612C5.63386 8.40615 6.16171 8.84859 6.80059 9.2824C7.97925 10.0827 9.5557 10.8677 11.5 10.985V11C11.5 11.2761 11.7238 11.5 12 11.5C12.2761 11.5 12.5 11.2761 12.5 11V10.9846C14.3938 10.8674 15.9455 10.1013 17.1168 9.31216C17.7533 8.88331 18.2835 8.44352 18.6956 8.09422L18.8375 7.97371C18.9841 7.84905 19.1098 7.74215 19.2211 7.65221C19.3067 7.58307 19.3719 7.53385 19.4206 7.50001H19.4405C19.6339 7.50001 19.8455 7.38875 19.9315 7.16469C19.9762 7.04841 19.9848 6.89592 19.9113 6.74952C19.8377 6.60287 19.7141 6.52549 19.6137 6.49143Z" fill="#22202A"/>
<path d="M12.5 13.5C12.5 13.2239 12.2761 13 12 13C11.7238 13 11.5 13.2239 11.5 13.5V16C11.5 16.2761 11.7238 16.5 12 16.5C12.2761 16.5 12.5 16.2761 12.5 16V13.5Z" fill="#22202A"/>
<path d="M12.5 18.5C12.5 18.2239 12.2761 18 12 18C11.7238 18 11.5 18.2239 11.5 18.5L11.5 20H7.99999C7.72385 20 7.49999 20.2239 7.49999 20.5C7.49999 20.7761 7.72385 21 7.99999 21H16C16.2761 21 16.5 20.7761 16.5 20.5C16.5 20.2239 16.2761 20 16 20H12.5L12.5 18.5Z" fill="#22202A"/>
</g>
<path fill-rule="evenodd" clip-rule="evenodd" d="M12.0763 4.29676C13.5472 3.47308 15.253 4.25574 16.071 5.6222C16.2128 5.85914 16.5199 5.93624 16.7568 5.79441C16.9937 5.65258 17.0708 5.34553 16.929 5.1086C15.9118 3.40921 13.5722 2.19866 11.4581 3.49997H10.6442C10.3429 3.49997 10.0754 3.69277 9.98007 3.97861L9.55728 5.24699C9.41396 5.67695 9.82301 6.08601 10.253 5.94269L11.5359 5.51506C11.7964 5.42821 11.9821 5.19699 12.0107 4.92382L12.0763 4.29676ZM11.0496 4.49997H10.8604L10.7906 4.7094L11.0362 4.62751L11.0496 4.49997ZM16.2294 10.798C16.4242 10.9938 16.4233 11.3104 16.2275 11.5052C15.9949 11.7365 15.6864 11.9044 15.3643 12.0336C15.0375 12.1647 14.6638 12.2687 14.2732 12.3558C13.5955 12.5069 12.8202 12.6167 12.0841 12.721C11.9758 12.7363 11.8684 12.7515 11.7622 12.7667C10.9147 12.8882 10.1588 13.0081 9.61692 13.1794C9.34445 13.2655 9.16852 13.3521 9.06933 13.4291C9.02287 13.4652 9.00604 13.4895 9.0013 13.4977C9.00071 13.4987 9.00029 13.4995 9 13.5001C9.00011 13.5144 9.02247 13.6572 9.29911 13.8427C9.56143 14.0185 9.99523 14.1864 10.6205 14.2528C10.8951 14.282 11.094 14.5282 11.0649 14.8028C11.0357 15.0774 10.7894 15.2764 10.5148 15.2472C9.77175 15.1683 9.17173 14.9612 8.7423 14.6733C8.3279 14.3955 8 13.9862 8 13.5C8 13.116 8.20877 12.8313 8.45591 12.6393C8.69285 12.4553 9.00005 12.3255 9.31561 12.2258C9.94974 12.0254 10.7895 11.8959 11.6204 11.7769C11.7292 11.7612 11.8382 11.7458 11.947 11.7304C12.6879 11.6253 13.4195 11.5216 14.0556 11.3797C14.4184 11.2988 14.7346 11.2087 14.992 11.1055C15.2541 11.0004 15.4241 10.8938 15.5223 10.7961C15.7181 10.6014 16.0347 10.6023 16.2294 10.798ZM12.8542 14.9709C12.9171 14.702 13.1861 14.5351 13.4549 14.598C13.8213 14.6838 14.1876 14.8082 14.4715 15.0134C14.7762 15.2337 15 15.5611 15 16C15 16.6919 14.4599 17.0653 13.989 17.2707C13.5029 17.4829 12.8699 17.6173 12.2905 17.7392L12.2472 17.7484C11.6562 17.8727 11.1069 17.9883 10.6702 18.1547C10.2025 18.3329 10.0232 18.5114 9.97434 18.6581C9.88702 18.92 9.60386 19.0616 9.34189 18.9743C9.07991 18.887 8.93833 18.6038 9.02566 18.3418C9.22676 17.7385 9.79751 17.4171 10.3142 17.2202C10.8264 17.0251 11.4445 16.8952 12.0038 16.7777C12.0308 16.772 12.0577 16.7663 12.0845 16.7607C12.6926 16.6327 13.2158 16.5171 13.5891 16.3542C13.9776 16.1847 14 16.058 14 16C14 15.9477 13.9884 15.8982 13.8857 15.8239C13.7621 15.7346 13.5489 15.647 13.2271 15.5717C12.9582 15.5088 12.7912 15.2398 12.8542 14.9709Z" fill="#22202A"/>
</svg>
