<svg width="24" height="24" viewBox="0 0 24 24" fill="none" xmlns="http://www.w3.org/2000/svg">
<path opacity="0.5" d="M7.96709 3C7.52386 2.99998 7.14193 2.99996 6.83611 3.04107C6.50835 3.08514 6.19417 3.18451 5.93934 3.43934C5.68451 3.69417 5.58514 4.00835 5.54107 4.33611C5.49996 4.64193 5.49998 5.02383 5.5 5.46706V18.5329C5.49998 18.9761 5.49996 19.3581 5.54107 19.6639C5.58514 19.9917 5.68451 20.3058 5.93934 20.5607C6.19417 20.8155 6.50835 20.9149 6.83611 20.9589C7.14192 21 7.52381 21 7.96702 21H16.0329C16.4762 21 16.8581 21 17.1639 20.9589C17.4917 20.9149 17.8058 20.8155 18.0607 20.5607C18.3155 20.3058 18.4149 19.9917 18.4589 19.6639C18.5001 19.3581 18.5 18.9761 18.5 18.5329V5.4671C18.5 5.02385 18.5001 4.64194 18.4589 4.33611C18.4149 4.00835 18.3155 3.69417 18.0607 3.43934C17.8058 3.18451 17.4917 3.08514 17.1639 3.04107C16.8581 2.99996 16.4762 2.99998 16.033 3H7.96709Z" fill="#22202A"/>
<circle cx="9" cy="7" r="1" fill="#22202A"/>
<circle cx="15" cy="7" r="1" fill="#22202A"/>
<circle cx="9" cy="12" r="1" fill="#22202A"/>
<circle cx="15" cy="12" r="1" fill="#22202A"/>
<circle cx="9" cy="17" r="1" fill="#22202A"/>
<circle cx="15" cy="17" r="1" fill="#22202A"/>
<path fill-rule="evenodd" clip-rule="evenodd" d="M12 5.5C12.2761 5.5 12.5 5.72386 12.5 6V18C12.5 18.2761 12.2761 18.5 12 18.5C11.7239 18.5 11.5 18.2761 11.5 18V6C11.5 5.72386 11.7239 5.5 12 5.5Z" fill="#22202A"/>
</svg>
