<svg width="24" height="24" viewBox="0 0 24 24" fill="none" xmlns="http://www.w3.org/2000/svg">
<path fill-rule="evenodd" clip-rule="evenodd" d="M12 18.5C12.2761 18.5 12.5 18.7239 12.5 19C12.5 19.7067 12.6198 20.2331 12.8091 20.5644C12.983 20.8687 13.204 21 13.5 21C13.7761 21 14 21.2239 14 21.5C14 21.7761 13.7761 22 13.5 22C12.796 22 12.267 21.6313 11.9409 21.0606C11.6302 20.5169 11.5 19.7933 11.5 19C11.5 18.7239 11.7239 18.5 12 18.5Z" fill="#22202A"/>
<path opacity="0.5" d="M13 17.5C15.2091 17.5 17 15.7091 17 13.5V9.5H7V13.5C7 15.7091 8.79086 17.5 11 17.5H13Z" fill="#22202A"/>
<path fill-rule="evenodd" clip-rule="evenodd" d="M11.9298 2C11.953 2 11.9764 2.00001 12 2.00001C12.0237 2.00001 12.047 2 12.0702 2C12.9328 1.99994 13.4427 1.99991 13.8779 2.08647C15.663 2.44155 17.0585 3.83699 17.4135 5.6221C17.5001 6.0573 17.5001 6.56726 17.5 7.42985C17.5 7.45298 17.5 7.47636 17.5 7.50001V13.5C17.5 15.8163 15.75 17.7238 13.5 17.9725V18C13.5 18.8284 12.8284 19.5 12 19.5C11.1716 19.5 10.5 18.8284 10.5 18V17.9725C8.25003 17.7238 6.50001 15.8163 6.50001 13.5V7.50001C6.50001 7.47636 6.5 7.45297 6.5 7.42984C6.49994 6.56726 6.49991 6.0573 6.58647 5.6221C6.94155 3.83699 8.33699 2.44155 10.1221 2.08647C10.5573 1.99991 11.0673 1.99994 11.9298 2ZM11.5 18C11.5 18.2761 11.7239 18.5 12 18.5C12.2761 18.5 12.5 18.2761 12.5 18H11.5ZM11 17C9.06701 17 7.50001 15.433 7.50001 13.5V7.50001C7.50001 6.54673 7.50243 6.14311 7.56726 5.81719C7.84343 4.42877 8.92877 3.34343 10.3172 3.06726C10.6431 3.00243 11.0467 3.00001 12 3.00001C12.9533 3.00001 13.3569 3.00243 13.6828 3.06726C15.0712 3.34343 16.1566 4.42877 16.4328 5.81719C16.4976 6.14311 16.5 6.54673 16.5 7.50001V13.5C16.5 15.433 14.933 17 13 17H11Z" fill="#22202A"/>
<path fill-rule="evenodd" clip-rule="evenodd" d="M9 14H7V13H9C9.27614 13 9.5 13.2239 9.5 13.5C9.5 13.7761 9.27614 14 9 14Z" fill="#22202A"/>
<path fill-rule="evenodd" clip-rule="evenodd" d="M9 12H7V11H9C9.27614 11 9.5 11.2239 9.5 11.5C9.5 11.7761 9.27614 12 9 12Z" fill="#22202A"/>
<path fill-rule="evenodd" clip-rule="evenodd" d="M17 10H7V9H17V10Z" fill="#22202A"/>
<path fill-rule="evenodd" clip-rule="evenodd" d="M9 8H7V7H9C9.27614 7 9.5 7.22386 9.5 7.5C9.5 7.77614 9.27614 8 9 8Z" fill="#22202A"/>
</svg>
