<svg width="24" height="24" viewBox="0 0 24 24" fill="none" xmlns="http://www.w3.org/2000/svg">
<path opacity="0.5" d="M20.4999 6.30672C20.4992 6.11364 20.3932 5.92688 20.2274 5.82676L16.7662 3.79401C16.4567 3.61222 16.0754 3.61462 15.7524 3.77117C13.4025 4.90993 10.6004 4.90887 8.25136 3.76797C7.93198 3.61286 7.55538 3.60842 7.24727 3.78485L3.77248 5.7746C3.60663 5.87471 3.5006 6.06147 3.49997 6.25455C3.47978 12.0469 6.65756 17.5271 11.675 20.4133C11.8726 20.5269 12.1273 20.5269 12.3248 20.4133C17.3264 17.5362 20.5014 12.0807 20.4999 6.30672Z" fill="#22202A"/>
<path fill-rule="evenodd" clip-rule="evenodd" d="M8.03292 4.21772C7.84491 4.12641 7.64446 4.13357 7.49573 4.21874L4.02877 6.204C4.01276 6.215 4.00003 6.2391 3.99997 6.25616C3.98041 11.8678 7.0615 17.1826 11.9243 19.9799C11.9676 20.0047 12.0323 20.0047 12.0755 19.9799C16.9229 17.1914 20.0014 11.9008 19.9999 6.30685L20.4999 6.30671L19.9999 6.30833C19.9998 6.29092 19.9866 6.26617 19.9701 6.2555L16.513 4.22514C16.3636 4.1374 16.1607 4.12891 15.9704 4.22111C13.4827 5.42667 10.5198 5.42555 8.03292 4.21772ZM6.99881 3.35094C7.4663 3.08325 8.01905 3.09928 8.4698 3.3182C10.6811 4.39217 13.3223 4.39318 15.5343 3.32121C15.9902 3.10032 16.5497 3.08701 17.0194 3.36286L20.4858 5.39867C20.8005 5.58865 20.9987 5.93674 20.9999 6.3051L20.9999 6.30658C21.0015 12.2607 17.7298 17.8809 12.5741 20.8467C12.2223 21.049 11.7777 21.0491 11.4259 20.8468C6.25378 17.8716 2.97915 12.2258 2.99998 6.25293C3.00117 5.88457 3.19938 5.53651 3.51407 5.34654L3.52395 5.34057L6.99881 3.35094Z" fill="#22202A"/>
<path fill-rule="evenodd" clip-rule="evenodd" d="M11.1937 7.50694C11.1937 7.22696 11.4207 7 11.7007 7H12.4104C12.6904 7 12.9173 7.22696 12.9173 7.50694C12.9173 7.73394 12.7682 7.92609 12.5625 7.99068V8.56353C12.8824 8.63708 13.1789 8.77203 13.4388 8.95529L13.8226 8.57149C13.6283 8.37325 13.6294 8.05495 13.8262 7.85819C14.0242 7.66023 14.3452 7.66023 14.5431 7.85819L15.2528 8.56791C15.4508 8.76587 15.4508 9.08687 15.2528 9.28483C15.0561 9.48159 14.7378 9.48278 14.5395 9.28841L14.1328 9.69511C14.2907 9.95253 14.4032 10.2407 14.4594 10.5486H15.1204C15.185 10.3429 15.3771 10.1937 15.6041 10.1937C15.8841 10.1937 16.1111 10.4207 16.1111 10.7007V11.0524L16.1111 11.0555L16.1111 11.0587V11.4104C16.1111 11.6904 15.8841 11.9173 15.6041 11.9173C15.3771 11.9173 15.185 11.7682 15.1204 11.5625H14.4365C14.389 11.769 14.3159 11.9657 14.2208 12.1491L14.8944 12.8227C15.0926 12.6283 15.4109 12.6295 15.6077 12.8263C15.8057 13.0242 15.8057 13.3452 15.6077 13.5432L14.898 14.2529C14.7 14.4509 14.379 14.4509 14.1811 14.2529C13.9843 14.0561 13.9831 13.7378 14.1775 13.5396L13.5775 12.9396C13.2863 13.1767 12.9408 13.3495 12.5625 13.4365V14.1204C12.7682 14.185 12.9173 14.3772 12.9173 14.6042C12.9173 14.8842 12.6904 15.1111 12.4104 15.1111H12.0587L12.0555 15.1111L12.0524 15.1111H11.7007C11.4207 15.1111 11.1937 14.8842 11.1937 14.6042C11.1937 14.3772 11.3429 14.185 11.5486 14.1204V13.4594C11.2407 13.4032 10.9526 13.2907 10.6952 13.1329L10.2884 13.5396C10.4828 13.7379 10.4816 14.0562 10.2848 14.2529C10.0869 14.4509 9.76587 14.4509 9.56791 14.2529L8.85819 13.5432C8.66023 13.3452 8.66023 13.0242 8.85819 12.8263C9.05496 12.6295 9.37329 12.6283 9.57152 12.8227L9.95534 12.4389C9.77205 12.1789 9.63709 11.8824 9.56353 11.5625H8.99068C8.92609 11.7682 8.73394 11.9173 8.50694 11.9173C8.22696 11.9173 8 11.6904 8 11.4104V10.7007C8 10.4207 8.22696 10.1937 8.50694 10.1937C8.73394 10.1937 8.92608 10.3429 8.99068 10.5486H9.54065C9.60178 10.2134 9.72977 9.90146 9.9103 9.62722L9.57149 9.28841C9.37326 9.48278 9.05495 9.48159 8.85819 9.28483C8.66023 9.08687 8.66023 8.76587 8.85819 8.56791L9.56791 7.85819C9.76587 7.66023 10.0869 7.66023 10.2848 7.85819C10.4816 8.05495 10.4828 8.37326 10.2884 8.57149L10.6272 8.9103C10.9015 8.72977 11.2134 8.60178 11.5486 8.54065V7.99068C11.3429 7.92608 11.1937 7.73394 11.1937 7.50694ZM12 9.5C11.1716 9.5 10.5 10.1716 10.5 11C10.5 11.8284 11.1716 12.5 12 12.5C12.8284 12.5 13.5 11.8284 13.5 11C13.5 10.1716 12.8284 9.5 12 9.5Z" fill="#22202A"/>
</svg>
