<svg width="24" height="24" viewBox="0 0 24 24" fill="none" xmlns="http://www.w3.org/2000/svg">
<path opacity="0.5" fill-rule="evenodd" clip-rule="evenodd" d="M7.5 18C7.5 17.7239 7.72386 17.5 8 17.5C8.09842 17.5 8.22108 17.5114 8.34396 17.5645C8.48069 17.6236 8.58175 17.7187 8.65056 17.8288C8.71031 17.9244 8.7392 18.0216 8.75507 18.0802C8.76366 18.1119 8.77571 18.1625 8.78538 18.2031C8.79033 18.2239 8.79465 18.2421 8.79757 18.2537C8.84135 18.4288 8.9265 18.7194 9.35355 19.1464C9.52585 19.3187 9.86257 19.4914 10.3548 19.6187C10.8336 19.7425 11.4047 19.8094 11.9858 19.812C12.5669 19.8146 13.1399 19.7528 13.6229 19.6305C14.118 19.505 14.4631 19.3298 14.6464 19.1464C15.0735 18.7194 15.1587 18.4288 15.2024 18.2537C15.2053 18.2421 15.2097 18.2239 15.2146 18.2031C15.2243 18.1625 15.2363 18.1119 15.2449 18.0802C15.2608 18.0216 15.2897 17.9244 15.3494 17.8288C15.4183 17.7187 15.5193 17.6236 15.656 17.5645C15.7789 17.5114 15.9016 17.5 16 17.5C16.2761 17.5 16.5 17.7239 16.5 18C16.5 18.2127 16.3672 18.3944 16.1799 18.4667C16.1777 18.4756 16.1753 18.4854 16.1726 18.4963C16.0913 18.8212 15.9265 19.2806 15.3536 19.8536C14.9847 20.2225 14.4362 20.456 13.8685 20.5998C13.2886 20.7467 12.6295 20.8149 11.9813 20.812C11.333 20.8091 10.6775 20.7351 10.1044 20.5869C9.54485 20.4421 9.00448 20.2116 8.64645 19.8536C8.0735 19.2806 7.90865 18.8212 7.82743 18.4963C7.82472 18.4854 7.82229 18.4756 7.82011 18.4667C7.63285 18.3944 7.5 18.2127 7.5 18Z" fill="#22202A"/>
<g opacity="0.5">
<path fill-rule="evenodd" clip-rule="evenodd" d="M6.48752 11.5531C6.49556 11.3692 6.49999 11.1844 6.49999 11C6.49999 10.7239 6.72385 10.5 6.99999 10.5C7.27613 10.5 7.49999 10.7239 7.49999 11C7.49999 11.9629 7.38861 12.9177 7.2718 13.7057C7.22059 14.0512 7.16754 14.3695 7.12231 14.6408C7.10798 14.7268 7.09444 14.808 7.08199 14.8839C7.02657 15.2219 6.99999 15.4163 6.99999 15.5C6.99999 15.7761 6.77613 16 6.49999 16C6.22385 16 5.99999 15.7761 5.99999 15.5C5.99999 15.3155 6.04533 15.026 6.09517 14.7221C6.1083 14.6421 6.1223 14.5581 6.13693 14.4703C6.17551 14.2388 6.21845 13.9812 6.26127 13.7008L6.04455 13.2064L6.04344 13.2041L6.03257 13.1805C6.02336 13.1603 6.0103 13.1313 5.994 13.0941C5.96139 13.0198 5.91571 12.9125 5.86168 12.7769C5.75372 12.506 5.61179 12.1206 5.47397 11.6585C5.20014 10.7404 4.93397 9.49118 5.00068 8.22372C5.06766 6.95094 5.47409 5.61998 6.5864 4.61361C7.69455 3.611 9.42698 3 12 3C14.573 3 16.3054 3.611 17.4136 4.61361C18.5259 5.61998 18.9323 6.95094 18.9993 8.22372C19.066 9.49118 18.7998 10.7404 18.526 11.6585C18.3882 12.1206 18.2463 12.506 18.1383 12.7769C18.0843 12.9125 18.0386 13.0198 18.006 13.0941C17.9897 13.1313 17.9766 13.1603 17.9674 13.1805L17.9565 13.2041L17.9554 13.2064L17.7387 13.7008C17.7815 13.9812 17.8245 14.2388 17.8631 14.4703C17.8777 14.5581 17.8917 14.6421 17.9048 14.7221C17.9546 15.026 18 15.3155 18 15.5C18 15.7761 17.7761 16 17.5 16C17.2238 16 17 15.7761 17 15.5C17 15.4163 16.9734 15.2219 16.918 14.8839C16.9055 14.808 16.892 14.7268 16.8777 14.6408C16.8324 14.3695 16.7794 14.0512 16.7282 13.7057C16.6114 12.9177 16.5 11.9629 16.5 11C16.5 10.7239 16.7238 10.5 17 10.5C17.2761 10.5 17.5 10.7239 17.5 11C17.5 11.1844 17.5044 11.3692 17.5125 11.553C17.5309 11.4945 17.5493 11.4343 17.5677 11.3727C17.8251 10.5096 18.059 9.38382 18.0007 8.27628C17.9427 7.17406 17.5991 6.13002 16.7427 5.35514C15.8821 4.5765 14.427 4 12 4C9.573 4 8.11792 4.5765 7.25732 5.35514C6.40088 6.13002 6.0573 7.17406 5.99929 8.27628C5.941 9.38382 6.17483 10.5096 6.43225 11.3727C6.45063 11.4344 6.46909 11.4945 6.48752 11.5531Z" fill="#22202A"/>
<path fill-rule="evenodd" clip-rule="evenodd" d="M6.99999 10.5C7.27613 10.5 7.49999 10.7239 7.49999 11C7.49999 12.0379 7.37053 13.0673 7.24418 13.8885C7.20209 14.1621 7.15934 14.4187 7.12201 14.6427C7.10369 14.7526 7.08667 14.8548 7.07167 14.9472C7.04184 15.1312 7.02182 15.2675 7.01068 15.3633C7.03043 15.3753 7.05459 15.3891 7.08379 15.4044C7.25615 15.4947 7.5082 15.589 7.79335 15.6779C8.35692 15.8537 8.95658 15.9806 9.07794 16.0056C9.25359 16.0418 9.38758 16.1571 9.45814 16.2983L9.80901 17H14.191L14.5418 16.2983C14.6124 16.1571 14.7464 16.0418 14.922 16.0056C15.0434 15.9806 15.6431 15.8537 16.2066 15.6779C16.4918 15.589 16.7438 15.4947 16.9162 15.4044C16.9454 15.3891 16.9696 15.3753 16.9893 15.3633C16.9782 15.2675 16.9581 15.1312 16.9283 14.9472C16.9133 14.8548 16.8963 14.7526 16.878 14.6427C16.8406 14.4187 16.7979 14.1621 16.7558 13.8885C16.6295 13.0673 16.5 12.0379 16.5 11C16.5 10.7239 16.7238 10.5 17 10.5C17.2761 10.5 17.5 10.7239 17.5 11C17.5 11.9621 17.6205 12.9327 17.7442 13.7365C17.7854 14.0046 17.826 14.2482 17.8628 14.4685C17.8815 14.5807 17.8992 14.6869 17.9154 14.7872C17.96 15.0622 18 15.3258 18 15.5C18 15.7614 17.8488 15.9433 17.7478 16.039C17.6386 16.1425 17.5049 16.2249 17.3803 16.2902C17.1274 16.4227 16.8072 16.5381 16.5044 16.6325C16.0631 16.7702 15.608 16.8787 15.3397 16.9385L14.961 17.696C14.8679 17.8823 14.6774 18 14.4691 18H9.5309C9.32257 18 9.13213 17.8823 9.03896 17.696L8.66024 16.9385C8.39198 16.8787 7.93685 16.7702 7.49556 16.6325C7.1928 16.5381 6.87262 16.4227 6.61973 16.2902C6.49506 16.2249 6.36143 16.1425 6.25219 16.039C6.15124 15.9433 5.99999 15.7614 5.99999 15.5C5.99999 15.3258 6.03996 15.0622 6.08457 14.7872C6.10083 14.6869 6.11853 14.5807 6.13722 14.4685C6.17396 14.2482 6.21456 14.0046 6.25581 13.7365C6.37946 12.9327 6.49999 11.9621 6.49999 11C6.49999 10.7239 6.72385 10.5 6.99999 10.5Z" fill="#22202A"/>
</g>
<path fill-rule="evenodd" clip-rule="evenodd" d="M11.5081 13.8658C11.7107 13.4604 12.2892 13.4604 12.4919 13.8658L12.9472 14.7764C13.0707 15.0233 12.9706 15.3237 12.7236 15.4472C12.4766 15.5707 12.1763 15.4706 12.0528 15.2236L12 15.118L11.9472 15.2236C11.8237 15.4706 11.5234 15.5707 11.2764 15.4472C11.0294 15.3237 10.9293 15.0233 11.0528 14.7764L11.5081 13.8658Z" fill="#22202A"/>
<path d="M10 10.5C9.17157 10.5 8.5 11.1716 8.5 12C8.5 12.397 8.56412 12.746 8.7238 13.0185C8.89664 13.3134 9.16606 13.4892 9.47922 13.5282C9.76607 13.5639 10.0409 13.4797 10.2629 13.3679C10.4903 13.2532 10.7029 13.0894 10.8825 12.9068C11.0622 12.724 11.2225 12.5084 11.3349 12.2791C11.4447 12.0549 11.5262 11.7814 11.495 11.4977C11.4611 11.1897 11.2977 10.9141 11.0057 10.7334C10.7359 10.5663 10.39 10.5 10 10.5Z" fill="#22202A"/>
<path d="M14.0016 10.5C14.8301 10.5 15.5016 11.1716 15.5016 12C15.5016 12.397 15.4375 12.746 15.2778 13.0185C15.105 13.3134 14.8356 13.4892 14.5224 13.5282C14.2356 13.5639 13.9607 13.4797 13.7388 13.3679C13.5113 13.2532 13.2987 13.0894 13.1191 12.9068C12.9394 12.724 12.7791 12.5084 12.6667 12.2791C12.5569 12.0549 12.4755 11.7814 12.5067 11.4977C12.5405 11.1897 12.7039 10.9141 12.9959 10.7334C13.2657 10.5663 13.6117 10.5 14.0016 10.5Z" fill="#22202A"/>
<path fill-rule="evenodd" clip-rule="evenodd" d="M10.5 16C10.7761 16 11 16.2239 11 16.5V17H10V16.5C10 16.2239 10.2239 16 10.5 16Z" fill="#22202A"/>
<path fill-rule="evenodd" clip-rule="evenodd" d="M12 16C12.2761 16 12.5 16.2239 12.5 16.5V17H11.5V16.5C11.5 16.2239 11.7239 16 12 16Z" fill="#22202A"/>
<path fill-rule="evenodd" clip-rule="evenodd" d="M13.5 16C13.7761 16 14 16.2239 14 16.5V17H13V16.5C13 16.2239 13.2239 16 13.5 16Z" fill="#22202A"/>
</svg>
