<svg width="24" height="24" viewBox="0 0 24 24" fill="none" xmlns="http://www.w3.org/2000/svg">
<path opacity="0.5" d="M16.5 11.5C16.5 10.3954 17.3954 9.5 18.5 9.5C19.6046 9.5 20.5 10.3954 20.5 11.5C20.5 12.4319 19.8626 13.215 19 13.437V17C19 18.5172 18.4072 19.6628 17.4875 20.4113C16.5807 21.1491 15.3942 21.4714 14.2353 21.4373C11.943 21.3699 9.5 19.8628 9.5 17L10.5 17C10.5 19.1372 12.307 20.3801 14.2647 20.4377C15.2308 20.4661 16.1693 20.1946 16.8563 19.6356C17.5303 19.0872 18 18.2328 18 17V13.437C17.1374 13.215 16.5 12.4319 16.5 11.5Z" fill="#22202A"/>
<path d="M19 11.5C19 11.7761 18.7761 12 18.5 12C18.2239 12 18 11.7761 18 11.5C18 11.2239 18.2239 11 18.5 11C18.7761 11 19 11.2239 19 11.5Z" fill="#22202A"/>
<path d="M13.395 5.55254C13.4627 5.38154 13.5 5.19512 13.5 5C13.5 4.83817 13.4744 4.68233 13.427 4.53631C14.6043 4.7389 15.5 5.76484 15.5 7V12C15.5 15.0376 13.0376 17.5 10 17.5C6.96243 17.5 4.5 15.0376 4.5 12V7.5C4.5 5.98736 5.6195 4.7362 7.07516 4.52985C7.02639 4.67773 7 4.83578 7 5C7 5.19035 7.03546 5.37243 7.10013 5.53998C6.18717 5.72523 5.5 6.53237 5.5 7.5V12C5.5 14.4853 7.51472 16.5 10 16.5C12.4853 16.5 14.5 14.4853 14.5 12V7C14.5 6.30826 14.0318 5.72589 13.395 5.55254Z" fill="#22202A"/>
<path opacity="0.5" d="M8.5 3.5C7.67157 3.5 7 4.17157 7 5C7 5.82843 7.67157 6.5 8.5 6.5C9.32843 6.5 10 5.82843 10 5C10 4.17157 9.32843 3.5 8.5 3.5Z" fill="#22202A"/>
<path opacity="0.5" d="M12 3.5C11.1716 3.5 10.5 4.17157 10.5 5C10.5 5.82843 11.1716 6.5 12 6.5C12.8284 6.5 13.5 5.82843 13.5 5C13.5 4.17157 12.8284 3.5 12 3.5Z" fill="#22202A"/>
</svg>
