<svg width="24" height="24" viewBox="0 0 24 24" fill="none" xmlns="http://www.w3.org/2000/svg">
<path fill-rule="evenodd" clip-rule="evenodd" d="M8 5C8 4.72386 8.22386 4.5 8.5 4.5H9.5C9.77614 4.5 10 4.72386 10 5C10 5.27614 9.77614 5.5 9.5 5.5H8.5C8.22386 5.5 8 5.27614 8 5Z" fill="#22202A"/>
<path fill-rule="evenodd" clip-rule="evenodd" d="M8 7C8 6.72386 8.22386 6.5 8.5 6.5H9.5C9.77614 6.5 10 6.72386 10 7C10 7.27614 9.77614 7.5 9.5 7.5H8.5C8.22386 7.5 8 7.27614 8 7Z" fill="#22202A"/>
<path fill-rule="evenodd" clip-rule="evenodd" d="M8 9C8 8.72386 8.22386 8.5 8.5 8.5H9.5C9.77614 8.5 10 8.72386 10 9C10 9.27614 9.77614 9.5 9.5 9.5H8.5C8.22386 9.5 8 9.27614 8 9Z" fill="#22202A"/>
<path fill-rule="evenodd" clip-rule="evenodd" d="M8 11C8 10.7239 8.22386 10.5 8.5 10.5H9.5C9.77614 10.5 10 10.7239 10 11C10 11.2761 9.77614 11.5 9.5 11.5H8.5C8.22386 11.5 8 11.2761 8 11Z" fill="#22202A"/>
<path fill-rule="evenodd" clip-rule="evenodd" d="M12 3C11.1716 3 10.5 3.67157 10.5 4.5V13.2776L10.2225 13.4155C8.90422 14.0707 8 15.4302 8 17C8 19.2091 9.79086 21 12 21C14.2091 21 16 19.2091 16 17C16 15.4302 15.0958 14.0707 13.7775 13.4155L13.5 13.2776V4.5C13.5 3.67157 12.8284 3 12 3ZM9.5 4.5C9.5 3.11929 10.6193 2 12 2C13.3807 2 14.5 3.11929 14.5 4.5V12.669C15.9936 13.533 17 15.1486 17 17C17 19.7614 14.7614 22 12 22C9.23858 22 7 19.7614 7 17C7 15.1486 8.00636 13.533 9.5 12.669V4.5Z" fill="#22202A"/>
<path opacity="0.5" fill-rule="evenodd" clip-rule="evenodd" d="M12 6.34998C12.359 6.34998 12.65 6.64099 12.65 6.99998V14.0706C13.9943 14.3675 15 15.5663 15 17C15 18.6568 13.6569 20 12 20C10.3431 20 9 18.6568 9 17C9 15.5663 10.0056 14.3676 11.35 14.0706V6.99998C11.35 6.64099 11.641 6.34998 12 6.34998ZM12 18C12.5523 18 13 17.5523 13 17C13 16.4477 12.5523 16 12 16C11.4477 16 11 16.4477 11 17C11 17.5523 11.4477 18 12 18Z" fill="#22202A"/>
</svg>
