<svg width="24" height="24" viewBox="0 0 24 24" fill="none" xmlns="http://www.w3.org/2000/svg">
<path fill-rule="evenodd" clip-rule="evenodd" d="M4.26719 6.12341C4.99986 5.11599 6.03359 4.5 7.16039 4.5H16.8397C18.011 4.5 19.0277 5.1538 19.7329 6.12341C20.4384 7.09351 20.8594 8.40901 20.8594 9.83964C20.8594 11.2703 20.4384 12.5858 19.7329 13.5559C19.0277 14.5255 18.011 15.1793 16.8397 15.1793H14.2795C14.2678 16.2922 14.1622 17.34 13.9517 18.4736C13.8305 19.1265 13.2562 19.5789 12.6098 19.5789H4.69173C3.82395 19.5789 3.20244 18.8017 3.29472 17.9827C3.44839 16.6189 3.42529 15.2975 3.35506 13.9571C3.33228 13.5224 3.30425 13.0821 3.27592 12.6372C3.21779 11.7245 3.15843 10.7923 3.14074 9.84901L3.14056 9.83964H3.14065C3.14065 8.46621 3.53627 7.12842 4.26719 6.12341ZM14.2658 14.1793H14.4896C14.4091 14.1025 14.3311 14.0221 14.2558 13.9383C14.2596 14.0192 14.2629 14.0995 14.2658 14.1793ZM14.0392 11.4571C13.9774 10.9387 13.9041 10.3905 13.82 9.80457C13.8269 8.57663 14.1922 7.48573 14.7552 6.71158C15.3239 5.92959 16.0671 5.5 16.8397 5.5C17.6122 5.5 18.3554 5.92959 18.9241 6.71158C19.4925 7.49309 19.8594 8.59741 19.8594 9.83964C19.8594 11.0819 19.4925 12.1862 18.9241 12.9677C18.3554 13.7497 17.6122 14.1793 16.8397 14.1793C16.0671 14.1793 15.3239 13.7497 14.7552 12.9677C14.4498 12.5478 14.2026 12.0347 14.0392 11.4571ZM14.4896 5.5C14.2929 5.6877 14.1112 5.89694 13.9465 6.12341C13.2409 7.09351 12.8199 8.40901 12.8199 9.83964C12.8199 10.4721 12.9022 11.0821 13.055 11.6497C13.3739 14.3568 13.3633 16.165 12.9685 18.291C12.9385 18.4529 12.7921 18.5789 12.6098 18.5789H4.69173C4.46371 18.5789 4.25803 18.3645 4.28843 18.0946C4.4512 16.65 4.42496 15.2651 4.35369 13.9048C4.32966 13.4461 4.30082 12.9939 4.27209 12.5434C4.21484 11.6457 4.15804 10.755 4.14065 9.83502C4.14154 8.64307 4.48745 7.52074 5.07593 6.71158C5.66341 5.90379 6.4202 5.5 7.16039 5.5H14.4896Z" fill="#22202A"/>
<path opacity="0.5" fill-rule="evenodd" clip-rule="evenodd" d="M16.8397 7.57977C16.2825 7.57977 15.8163 7.88204 15.5064 8.29523C15.1966 8.70826 15.0198 9.25594 15.0198 9.83964C15.0198 10.4233 15.1966 10.971 15.5064 11.3841C15.8163 11.7972 16.2825 12.0995 16.8397 12.0995C17.3968 12.0995 17.8631 11.7972 18.173 11.3841C18.4828 10.971 18.6596 10.4233 18.6596 9.83964C18.6596 9.25594 18.4828 8.70826 18.173 8.29523C17.8631 7.88204 17.3968 7.57977 16.8397 7.57977Z" fill="#22202A"/>
<path opacity="0.5" fill-rule="evenodd" clip-rule="evenodd" d="M5 11.5C5 11.2239 5.22386 11 5.5 11H6.3125C6.58864 11 6.8125 11.2239 6.8125 11.5C6.8125 11.7761 6.58864 12 6.3125 12H5.5C5.22386 12 5 11.7761 5 11.5ZM7.4375 11.5C7.4375 11.2239 7.66136 11 7.9375 11H9.5625C9.83864 11 10.0625 11.2239 10.0625 11.5C10.0625 11.7761 9.83864 12 9.5625 12H7.9375C7.66136 12 7.4375 11.7761 7.4375 11.5ZM10.6875 11.5C10.6875 11.2239 10.9114 11 11.1875 11H12C12.2761 11 12.5 11.2239 12.5 11.5C12.5 11.7761 12.2761 12 12 12H11.1875C10.9114 12 10.6875 11.7761 10.6875 11.5Z" fill="#22202A"/>
</svg>
