<svg width="24" height="24" viewBox="0 0 24 24" fill="none" xmlns="http://www.w3.org/2000/svg">
<path opacity="0.5" d="M9.57098 16.489C9.14761 17.4098 9.01002 18.4365 8.65016 19.3784C8.44101 20.1617 7.71657 19.9574 7.24248 19.516C4.35717 16.3009 2.17153 8.50652 5.59136 4.88882C7.3395 2.94361 9 5.66919 12 5.6692C15 5.6692 16.6825 2.96158 18.4193 4.88882C21.8406 8.53431 19.5923 16.2978 16.6941 19.516C16.2478 19.998 15.4775 20.1409 15.2758 19.3784C14.9159 18.4365 14.7889 17.4098 14.3656 16.489C13.4233 14.2208 10.5418 14.3099 9.57098 16.489Z" fill="#22202A"/>
<path fill-rule="evenodd" clip-rule="evenodd" d="M6.92841 4.6897C6.63758 4.70139 6.32658 4.81872 5.96324 5.22302L5.95482 5.23239L5.9547 5.23228C4.40549 6.87113 4.07591 9.52581 4.54533 12.269C5.01063 14.9882 6.23765 17.6377 7.59869 19.1643C7.68195 19.2394 7.77149 19.3011 7.85678 19.3438C7.94956 19.3902 8.01957 19.4054 8.0613 19.4067C8.08049 19.4073 8.09001 19.4049 8.0926 19.4041C8.09429 19.4036 8.09441 19.4035 8.09559 19.4026L8.0956 19.4026C8.09662 19.4018 8.13451 19.3714 8.16708 19.2494L8.17379 19.2243L8.18308 19.2C8.33088 18.8131 8.43879 18.4109 8.5546 17.9792C8.57089 17.9185 8.58734 17.8572 8.60407 17.7953C8.73637 17.3058 8.88536 16.7839 9.11548 16.2827C9.6796 15.0192 10.8162 14.3347 11.9732 14.3213C13.1359 14.3078 14.2735 14.9731 14.8237 16.2885C15.0529 16.7893 15.1987 17.3102 15.3278 17.7977C15.3436 17.8572 15.3591 17.9161 15.3744 17.9745C15.4886 18.4087 15.5947 18.8122 15.7429 19.2L15.7524 19.2248L15.7592 19.2506C15.7883 19.3608 15.8253 19.3934 15.8326 19.3994C15.8388 19.4043 15.8525 19.414 15.892 19.4139C15.991 19.4136 16.1698 19.3452 16.3251 19.1786C17.699 17.6514 18.9508 14.999 19.4342 12.2753C19.9202 9.53656 19.605 6.88289 18.0547 5.23097L18.0478 5.22359L18.0478 5.22352C17.6885 4.8248 17.3788 4.70851 17.0863 4.69732C16.758 4.68475 16.3804 4.80055 15.8811 5.01553C15.7266 5.08205 15.5627 5.15754 15.3895 5.23731C14.5004 5.64684 13.3665 6.16918 12 6.16918C10.633 6.16918 9.50232 5.64319 8.61714 5.23141C8.44438 5.15105 8.28097 5.07503 8.12698 5.00812C7.62991 4.79215 7.25494 4.67658 6.92841 4.6897ZM9.09083 4.34666C9.97392 4.75397 10.8742 5.16918 12 5.16918C13.1275 5.16918 14.0327 4.75571 14.9198 4.3505C15.1086 4.26428 15.2966 4.17844 15.4856 4.09703C15.999 3.87601 16.5553 3.67626 17.1246 3.69805C17.7284 3.72116 18.2792 3.98799 18.7873 4.55028C20.6552 6.54392 20.9259 9.59279 20.4188 12.45C19.9091 15.3223 18.5889 18.1592 17.0656 19.8506L17.061 19.8558L17.061 19.8557C16.7705 20.1694 16.3422 20.4128 15.8944 20.4139C15.6603 20.4144 15.4158 20.347 15.2068 20.1793C15.0061 20.0183 14.8733 19.7932 14.7999 19.5337C14.6357 19.0989 14.5174 18.6482 14.4068 18.2269C14.3914 18.1686 14.3763 18.1108 14.3612 18.0538C14.2317 17.565 14.1032 17.1153 13.9113 16.6978L13.9074 16.6894L13.9038 16.6808C13.5104 15.7338 12.7386 15.3125 11.9848 15.3212C11.2236 15.33 10.4348 15.7786 10.0277 16.6925L10.0253 16.6979L10.0253 16.6978C9.83271 17.1166 9.7015 17.5676 9.56943 18.0562C9.55346 18.1153 9.53745 18.1751 9.52128 18.2355C9.4089 18.655 9.28903 19.1024 9.12589 19.5341C9.0526 19.7923 8.92353 20.0203 8.72169 20.1823C8.50913 20.353 8.26189 20.4135 8.03003 20.4062C7.59538 20.3926 7.18538 20.146 6.90176 19.882L6.88534 19.8667L6.87035 19.85C5.35242 18.1585 4.05172 15.3133 3.55965 12.4377C3.07025 9.5777 3.35695 6.52882 5.22373 4.54985C5.73327 3.98478 6.28401 3.71479 6.88825 3.69051C7.45848 3.66759 8.01391 3.86868 8.52548 4.09096C8.7145 4.17308 8.90227 4.25969 9.09083 4.34666Z" fill="#22202A"/>
<path fill-rule="evenodd" clip-rule="evenodd" d="M16.5528 5.77638C16.6763 5.52939 16.9766 5.42928 17.2236 5.55277C18.5015 6.19172 18.5004 7.4796 18.5 7.97488C18.5 7.98349 18.5 7.99186 18.5 7.99999C18.5 8.27613 18.2761 8.49999 18 8.49999C17.7238 8.49999 17.5 8.27613 17.5 7.99999C17.5 7.47539 17.4763 6.79715 16.7764 6.4472C16.5294 6.32371 16.4293 6.02337 16.5528 5.77638Z" fill="#22202A"/>
</svg>
