<svg width="24" height="24" viewBox="0 0 24 24" fill="none" xmlns="http://www.w3.org/2000/svg">
<circle opacity="0.5" cx="12" cy="12" r="6.25" fill="#22202A"/>
<path d="M12.5 9C12.5 9.55228 12.0523 10 11.5 10C10.9477 10 10.5 9.55228 10.5 9C10.5 8.44772 10.9477 8 11.5 8C12.0523 8 12.5 8.44772 12.5 9Z" fill="#22202A"/>
<path d="M10.5 13C10.5 13.5523 10.0523 14 9.5 14C8.94772 14 8.5 13.5523 8.5 13C8.5 12.4477 8.94772 12 9.5 12C10.0523 12 10.5 12.4477 10.5 13Z" fill="#22202A"/>
<path d="M16 14C16 14.5523 15.5523 15 15 15C14.4477 15 14 14.5523 14 14C14 13.4477 14.4477 13 15 13C15.5523 13 16 13.4477 16 14Z" fill="#22202A"/>
<path d="M12 2C12.6904 2 13.25 2.55964 13.25 3.25C13.25 3.76258 12.9415 4.2031 12.5 4.39599V6C12.5 6.27614 12.2761 6.5 12 6.5C11.7239 6.5 11.5 6.27614 11.5 6V4.39599C11.0585 4.2031 10.75 3.76258 10.75 3.25C10.75 2.55964 11.3096 2 12 2Z" fill="#22202A"/>
<path d="M12.5 18C12.5 17.7239 12.2761 17.5 12 17.5C11.7239 17.5 11.5 17.7239 11.5 18V19.604C11.0585 19.7969 10.75 20.2374 10.75 20.75C10.75 21.4404 11.3096 22 12 22C12.6904 22 13.25 21.4404 13.25 20.75C13.25 20.2374 12.9415 19.7969 12.5 19.604V18Z" fill="#22202A"/>
<path d="M5.75 4.5C6.44036 4.5 7 5.05964 7 5.75C7 5.91121 6.96948 6.06529 6.91391 6.20679L8.35357 7.64645C8.54883 7.84171 8.54883 8.15829 8.35357 8.35355C8.15831 8.54882 7.84172 8.54882 7.64646 8.35355L6.20681 6.9139C6.06531 6.96948 5.91122 7 5.75 7C5.05964 7 4.5 6.44036 4.5 5.75C4.5 5.05964 5.05964 4.5 5.75 4.5Z" fill="#22202A"/>
<path d="M18.25 4.5C18.9404 4.5 19.5 5.05964 19.5 5.75C19.5 6.44036 18.9404 7 18.25 7C18.0888 7 17.9347 6.96948 17.7932 6.91391L16.3536 8.35357C16.1583 8.54883 15.8417 8.54883 15.6464 8.35357C15.4512 8.15831 15.4512 7.84172 15.6464 7.64646L17.0861 6.20681C17.0305 6.06531 17 5.91122 17 5.75C17 5.05964 17.5596 4.5 18.25 4.5Z" fill="#22202A"/>
<path d="M17.7932 17.0861C17.9347 17.0305 18.0888 17 18.25 17C18.9404 17 19.5 17.5596 19.5 18.25C19.5 18.9404 18.9404 19.5 18.25 19.5C17.5597 19.5 17 18.9404 17 18.25C17 18.0888 17.0305 17.9347 17.0861 17.7932L15.6464 16.3536C15.4512 16.1583 15.4512 15.8417 15.6464 15.6464C15.8417 15.4512 16.1583 15.4512 16.3536 15.6464L17.7932 17.0861Z" fill="#22202A"/>
<path d="M4.39599 11.5C4.2031 11.0585 3.76258 10.75 3.25 10.75C2.55964 10.75 2 11.3096 2 12C2 12.6904 2.55964 13.25 3.25 13.25C3.76258 13.25 4.2031 12.9415 4.39599 12.5L6 12.5C6.27614 12.5 6.5 12.2761 6.5 12C6.5 11.7239 6.27614 11.5 6 11.5L4.39599 11.5Z" fill="#22202A"/>
<path d="M20.75 10.75C21.4404 10.75 22 11.3096 22 12C22 12.6904 21.4404 13.25 20.75 13.25C20.2374 13.25 19.7969 12.9415 19.604 12.5H18C17.7239 12.5 17.5 12.2761 17.5 12C17.5 11.7239 17.7239 11.5 18 11.5L19.604 11.5C19.7969 11.0585 20.2374 10.75 20.75 10.75Z" fill="#22202A"/>
<path d="M6.9139 17.7932C6.96948 17.9347 7 18.0888 7 18.25C7 18.9404 6.44036 19.5 5.75 19.5C5.05964 19.5 4.5 18.9404 4.5 18.25C4.5 17.5597 5.05964 17 5.75 17C5.91121 17 6.06529 17.0305 6.20679 17.0861L7.64645 15.6464C7.84171 15.4512 8.15829 15.4512 8.35355 15.6464C8.54882 15.8417 8.54882 16.1583 8.35355 16.3536L6.9139 17.7932Z" fill="#22202A"/>
</svg>
