<svg width="24" height="24" viewBox="0 0 24 24" fill="none" xmlns="http://www.w3.org/2000/svg">
<path opacity="0.5" fill-rule="evenodd" clip-rule="evenodd" d="M4.37868 4.37868C3.5 5.25736 3.5 6.67157 3.5 9.5V14.5C3.5 17.3284 3.5 18.7426 4.37868 19.6213C5.25736 20.5 6.67157 20.5 9.5 20.5H14.5C17.3284 20.5 18.7426 20.5 19.6213 19.6213C20.5 18.7426 20.5 17.3284 20.5 14.5V9.5C20.5 6.67157 20.5 5.25736 19.6213 4.37868C18.7426 3.5 17.3284 3.5 14.5 3.5H9.5C6.67157 3.5 5.25736 3.5 4.37868 4.37868ZM14.8036 11.3309C16.0737 11.5954 16.5 11.6841 16.5 10C16.5 7.79086 14.2091 6 12 6C9.79086 6 7.5 7.79086 7.5 10C7.5 11.6841 7.92631 11.5954 9.19644 11.3309C9.87161 11.1903 10.7852 11 12 11C13.2148 11 14.1284 11.1903 14.8036 11.3309Z" fill="#22202A"/>
<path fill-rule="evenodd" clip-rule="evenodd" d="M9.46204 3H14.538C15.92 2.99999 17.0082 2.99998 17.8584 3.11429C18.7308 3.23158 19.4272 3.4774 19.9749 4.02513C20.5226 4.57285 20.7684 5.26918 20.8857 6.14156C21 6.99179 21 8.08 21 9.46202V14.538C21 15.92 21 17.0082 20.8857 17.8584C20.7684 18.7308 20.5226 19.4272 19.9749 19.9749C19.4272 20.5226 18.7308 20.7684 17.8584 20.8857C17.0082 21 15.92 21 14.538 21H9.46202C8.08 21 6.99179 21 6.14156 20.8857C5.26918 20.7684 4.57285 20.5226 4.02513 19.9749C3.4774 19.4272 3.23158 18.7308 3.11429 17.8584C2.99998 17.0082 2.99999 15.92 3 14.538V9.46204C2.99999 8.08001 2.99998 6.99179 3.11429 6.14156C3.23158 5.26918 3.4774 4.57285 4.02513 4.02513C4.57285 3.4774 5.26918 3.23158 6.14156 3.11429C6.99179 2.99998 8.08001 2.99999 9.46204 3ZM6.27481 4.10538C5.51331 4.20776 5.06319 4.40128 4.73223 4.73223C4.40128 5.06319 4.20776 5.51331 4.10538 6.27481C4.00106 7.05069 4 8.07165 4 9.5V14.5C4 15.9283 4.00106 16.9493 4.10538 17.7252C4.20776 18.4867 4.40128 18.9368 4.73223 19.2678C5.06319 19.5987 5.51331 19.7922 6.27481 19.8946C7.05069 19.9989 8.07165 20 9.5 20H14.5C15.9283 20 16.9493 19.9989 17.7252 19.8946C18.4867 19.7922 18.9368 19.5987 19.2678 19.2678C19.5987 18.9368 19.7922 18.4867 19.8946 17.7252C19.9989 16.9493 20 15.9283 20 14.5V9.5C20 8.07165 19.9989 7.05069 19.8946 6.27481C19.7922 5.51331 19.5987 5.06319 19.2678 4.73223C18.9368 4.40128 18.4867 4.20776 17.7252 4.10538C16.9493 4.00106 15.9283 4 14.5 4H9.5C8.07165 4 7.05069 4.00106 6.27481 4.10538Z" fill="#22202A"/>
<path fill-rule="evenodd" clip-rule="evenodd" d="M18.5 16C18.7761 16 19 16.2239 19 16.5C19 17.2834 18.874 17.9267 18.5154 18.3748C18.1332 18.8527 17.5798 19 17 19C16.7239 19 16.5 18.7761 16.5 18.5C16.5 18.2239 16.7239 18 17 18C17.4202 18 17.6168 17.8973 17.7346 17.7502C17.876 17.5733 18 17.2166 18 16.5C18 16.2239 18.2239 16 18.5 16Z" fill="#22202A"/>
<path fill-rule="evenodd" clip-rule="evenodd" d="M10.5024 6.7974L10.8525 7.1454C11.0483 7.34008 11.0493 7.65666 10.8546 7.8525C10.6599 8.04834 10.3433 8.04928 10.1475 7.8546L9.58212 7.29257C9.369 7.44131 9.17078 7.60729 8.99182 7.78742L9.35222 8.14512C9.54822 8.33964 9.54941 8.65622 9.35488 8.85222C9.16036 9.04822 8.84378 9.04941 8.64778 8.85488L8.38108 8.59018C8.22014 8.87849 8.10595 9.1839 8.0467 9.5H8.5C8.77614 9.5 9 9.72386 9 10C9 10.2761 8.77614 10.5 8.5 10.5H8.01818C8.02477 10.5755 8.03305 10.6421 8.04291 10.7008C8.07106 10.8685 8.10661 10.9375 8.12219 10.96C8.12432 10.9631 8.12459 10.9644 8.12535 10.9651C8.1263 10.9661 8.128 10.9663 8.13494 10.9682C8.16619 10.9769 8.2378 10.9855 8.38512 10.97C8.52959 10.9548 8.70662 10.9214 8.93736 10.874C8.98654 10.8638 9.03792 10.8531 9.09132 10.842C9.28085 10.8025 9.49596 10.7577 9.72987 10.7147C10.2214 10.6243 10.808 10.5393 11.5 10.5104V8.5C11.5 8.22386 11.7239 8 12 8C12.2761 8 12.5 8.22386 12.5 8.5V10.5104C13.192 10.5393 13.7786 10.6243 14.2701 10.7147C14.504 10.7577 14.7192 10.8025 14.9087 10.842C14.9621 10.8531 15.0135 10.8638 15.0626 10.874C15.2934 10.9214 15.4704 10.9548 15.6149 10.97C15.7622 10.9855 15.8338 10.9769 15.8651 10.9682C15.872 10.9663 15.8737 10.9661 15.8747 10.9651C15.8754 10.9644 15.8757 10.9631 15.8778 10.96C15.8934 10.9375 15.9289 10.8685 15.9571 10.7008C15.9669 10.6421 15.9752 10.5755 15.9818 10.5H15.5C15.2239 10.5 15 10.2761 15 10C15 9.72386 15.2239 9.5 15.5 9.5H15.9533C15.8941 9.1839 15.7799 8.87849 15.6189 8.59018L15.3522 8.85488C15.1562 9.04941 14.8396 9.04822 14.6451 8.85222C14.4506 8.65622 14.4518 8.33964 14.6478 8.14512L15.0082 7.78742C14.8292 7.60729 14.631 7.44131 14.4179 7.29257L13.8525 7.8546C13.6567 8.04928 13.3401 8.04834 13.1454 7.8525C12.9507 7.65666 12.9517 7.34008 13.1475 7.1454L13.4976 6.7974C13.1735 6.66877 12.8371 6.57917 12.5 6.53393V7C12.5 7.27614 12.2761 7.5 12 7.5C11.7239 7.5 11.5 7.27614 11.5 7V6.53393C11.1629 6.57917 10.8265 6.66877 10.5024 6.7974ZM9.40047 6.22365C10.1842 5.76932 11.092 5.5 12 5.5C12.908 5.5 13.8158 5.76932 14.5995 6.22365C15.1701 6.55441 15.6833 6.98794 16.0878 7.49951C16.643 8.20175 17 9.06082 17 10C17 10.3349 16.984 10.6235 16.9433 10.8663C16.9031 11.1059 16.8332 11.3367 16.7003 11.5288C16.3874 11.9813 15.8971 12.0053 15.5101 11.9645C15.3108 11.9435 15.0894 11.9004 14.8612 11.8535C14.8078 11.8425 14.7536 11.8312 14.6984 11.8197C14.5104 11.7805 14.3104 11.7389 14.0892 11.6982C13.5232 11.5941 12.836 11.5 12 11.5C11.164 11.5 10.4768 11.5941 9.91075 11.6982C9.68958 11.7389 9.48963 11.7805 9.3016 11.8197C9.24639 11.8312 9.19221 11.8425 9.13882 11.8535C8.91057 11.9004 8.68916 11.9435 8.48988 11.9645C8.1029 12.0053 7.6126 11.9813 7.29969 11.5288C7.16683 11.3367 7.09691 11.1059 7.0567 10.8663C7.01595 10.6235 7 10.3349 7 10C7 9.06082 7.35696 8.20175 7.91219 7.49951C8.31667 6.98794 8.82986 6.55441 9.40047 6.22365Z" fill="#22202A"/>
</svg>
