<svg width="24" height="24" viewBox="0 0 24 24" fill="none" xmlns="http://www.w3.org/2000/svg">
<path opacity="0.5" d="M9.49997 11.15C7.55041 11.15 5.96997 12.7305 5.96997 14.68C5.96997 16.6296 7.55041 18.21 9.49997 18.21C11.4495 18.21 13.03 16.6296 13.03 14.68C13.03 12.7305 11.4495 11.15 9.49997 11.15Z" fill="#22202A"/>
<path fill-rule="evenodd" clip-rule="evenodd" d="M6.46997 4C6.19383 4 5.96997 4.22386 5.96997 4.5C5.96997 4.77614 6.19383 5 6.46997 5H7.32997C7.60611 5 7.82997 5.22386 7.82997 5.5V9.43812C5.60891 10.1451 4 12.2247 4 14.68C4 17.7176 6.46243 20.18 9.5 20.18C12.5376 20.18 15 17.7176 15 14.68C15 13.9858 14.8714 13.3216 14.6367 12.71L16.56 12.71V17.1213C15.938 17.3301 15.49 17.9177 15.49 18.61C15.49 19.4771 16.1929 20.18 17.06 20.18C17.9271 20.18 18.63 19.4771 18.63 18.61C18.63 17.9177 18.1819 17.3301 17.56 17.1213V16.32H19C19.2761 16.32 19.5 16.0961 19.5 15.82C19.5 15.5439 19.2761 15.32 19 15.32H17.56V12.71C17.56 12.1577 17.1123 11.71 16.56 11.71H16.17V9.71C16.17 8.60543 15.2745 7.71 14.17 7.71H8.82997V5.5C8.82997 4.67157 8.1584 4 7.32997 4H6.46997ZM14.13 11.71L15.17 11.71V9.71C15.17 9.15772 14.7223 8.71 14.17 8.71H8.82997V9.22039C9.04958 9.19372 9.27319 9.17999 9.5 9.17999C11.4436 9.17999 13.1517 10.1881 14.13 11.71ZM9.5 10.18C7.01472 10.18 5 12.1947 5 14.68C5 17.1653 7.01472 19.18 9.5 19.18C11.9853 19.18 14 17.1653 14 14.68C14 12.1947 11.9853 10.18 9.5 10.18ZM17.06 18.04C16.7452 18.04 16.49 18.2952 16.49 18.61C16.49 18.9248 16.7452 19.18 17.06 19.18C17.3748 19.18 17.63 18.9248 17.63 18.61C17.63 18.2952 17.3748 18.04 17.06 18.04Z" fill="#22202A"/>
</svg>
