<svg width="24" height="24" viewBox="0 0 24 24" fill="none" xmlns="http://www.w3.org/2000/svg">
<path opacity="0.5" fill-rule="evenodd" clip-rule="evenodd" d="M12.0012 5.34827C12.2773 5.34827 12.5012 5.57212 12.5012 5.84827V15.9196C12.5012 16.1958 12.2773 16.4196 12.0012 16.4196C11.725 16.4196 11.5012 16.1958 11.5012 15.9196V5.84827C11.5012 5.57212 11.725 5.34827 12.0012 5.34827Z" fill="#22202A"/>
<path fill-rule="evenodd" clip-rule="evenodd" d="M7.69179 6.85129C7.57556 6.66647 7.54682 6.50855 7.55696 6.37953C7.56769 6.24302 7.62504 6.10317 7.73252 5.97016C7.95603 5.69354 8.35657 5.49872 8.74985 5.50001C9.02599 5.50091 9.25058 5.27779 9.25148 5.00165C9.25239 4.72551 9.02927 4.50092 8.75313 4.50001C8.06492 4.49775 7.37395 4.82282 6.95471 5.34166C6.74081 5.60638 6.58896 5.93316 6.56004 6.30118C6.53079 6.67325 6.6301 7.05273 6.86266 7.41085L6.87246 7.42593L6.88331 7.44027C7.38655 8.10522 8.15631 8.44768 8.89825 8.63455C9.64554 8.82276 10.4349 8.87025 11.0511 8.89264C11.327 8.90267 11.5589 8.68709 11.5689 8.41113C11.5789 8.13517 11.3633 7.90333 11.0874 7.8933C10.4811 7.87127 9.78107 7.82567 9.14248 7.66483C8.50629 7.5046 7.99828 7.24641 7.69179 6.85129Z" fill="#22202A"/>
<path fill-rule="evenodd" clip-rule="evenodd" d="M4.27302 9.32998C4.54729 9.29787 4.79566 9.49418 4.82777 9.76845C4.95506 10.8557 5.6885 12.2238 6.79969 13.0136C7.34604 13.402 7.97014 13.6412 8.64906 13.6528C9.32574 13.6644 10.0965 13.4506 10.9405 12.8679C11.1677 12.7109 11.4791 12.7679 11.636 12.9952C11.793 13.2224 11.736 13.5338 11.5087 13.6907C10.5188 14.3743 9.54683 14.6683 8.63194 14.6527C7.7193 14.637 6.90303 14.314 6.22033 13.8287C4.87341 12.8713 3.994 11.2466 3.83456 9.88473C3.80245 9.61046 3.99875 9.36209 4.27302 9.32998Z" fill="#22202A"/>
<path fill-rule="evenodd" clip-rule="evenodd" d="M3.72885 12.125C4.00346 12.0959 4.24965 12.2949 4.27875 12.5695C4.31656 12.9264 4.50403 13.4757 4.8526 14.0508C5.19754 14.62 5.67651 15.1748 6.25962 15.5655C6.83748 15.9527 7.5119 16.1762 8.2746 16.1077C9.04041 16.0388 9.94877 15.6706 10.9809 14.777C11.1897 14.5962 11.5054 14.619 11.6862 14.8277C11.8669 15.0365 11.8442 15.3523 11.6354 15.533C10.4872 16.5271 9.3885 17.0116 8.36412 17.1036C7.33664 17.196 6.43778 16.8886 5.70296 16.3962C4.97338 15.9073 4.40027 15.2338 3.9974 14.5691C3.59815 13.9103 3.34208 13.2201 3.28432 12.6749C3.25522 12.4003 3.45424 12.1541 3.72885 12.125Z" fill="#22202A"/>
<path fill-rule="evenodd" clip-rule="evenodd" d="M3.58364 14.8471C3.85268 14.9093 4.02034 15.1778 3.95812 15.4469C3.59511 17.0165 4.47328 18.2227 5.7745 18.4576C7.08799 18.6948 9.06291 17.9652 10.7959 15.077C10.9379 14.8402 11.2451 14.7634 11.4819 14.9055C11.7187 15.0475 11.7954 15.3547 11.6534 15.5915C9.8022 18.6767 7.47619 19.781 5.59683 19.4417C3.70519 19.1002 2.49861 17.3197 2.98383 15.2216C3.04606 14.9525 3.3146 14.7849 3.58364 14.8471Z" fill="#22202A"/>
<path fill-rule="evenodd" clip-rule="evenodd" d="M14.7748 4.98584C14.7826 4.70981 15.0127 4.49238 15.2888 4.5002C15.9609 4.51925 16.6399 4.84355 17.0531 5.35821C17.2641 5.62093 17.4142 5.94476 17.442 6.3102C17.4701 6.67956 17.3703 7.0555 17.1395 7.41085L17.1297 7.42593L17.1189 7.44026C16.6155 8.10536 15.8457 8.44747 15.1038 8.63413C14.3567 8.82211 13.5673 8.86959 12.9517 8.89262C12.6757 8.90294 12.4437 8.68761 12.4333 8.41166C12.423 8.13571 12.6383 7.90364 12.9143 7.89332C13.5211 7.87062 14.2211 7.82506 14.8598 7.66435C15.4961 7.50426 16.004 7.24636 16.3104 6.85128C16.4261 6.66735 16.4544 6.51187 16.4448 6.38603C16.4347 6.25288 16.3791 6.11597 16.2734 5.98429C16.0533 5.71014 15.655 5.51098 15.2605 5.4998C14.9844 5.49198 14.767 5.26187 14.7748 4.98584Z" fill="#22202A"/>
<path fill-rule="evenodd" clip-rule="evenodd" d="M18.764 7.05194C19.0361 7.09857 19.219 7.35701 19.1724 7.62919C18.8952 9.24687 18.1316 10.41 16.9812 11.0813C15.8465 11.7435 14.4084 11.8848 12.8498 11.6219C12.5775 11.576 12.394 11.318 12.44 11.0457C12.4859 10.7734 12.7439 10.5899 13.0162 10.6358C14.4324 10.8747 15.6107 10.7233 16.4772 10.2177C17.3279 9.72121 17.9501 8.84136 18.1867 7.46033C18.2333 7.18815 18.4918 7.00531 18.764 7.05194Z" fill="#22202A"/>
<path fill-rule="evenodd" clip-rule="evenodd" d="M5.22448 7.05227C5.49647 7.00459 5.75562 7.18643 5.8033 7.45843C6.0455 8.84004 6.6707 9.72064 7.52336 10.2175C8.39153 10.7234 9.57003 10.8747 10.9861 10.6358C11.2584 10.5899 11.5164 10.7734 11.5623 11.0457C11.6083 11.318 11.4248 11.576 11.1525 11.6219C9.59374 11.8848 8.15583 11.7434 7.01989 11.0815C5.86843 10.4105 5.1018 9.2482 4.81832 7.63109C4.77064 7.3591 4.95249 7.09995 5.22448 7.05227Z" fill="#22202A"/>
<path fill-rule="evenodd" clip-rule="evenodd" d="M19.7293 9.32998C20.0036 9.36209 20.1999 9.61046 20.1678 9.88473C20.0082 11.248 19.1218 12.8723 17.7726 13.829C17.0887 14.3139 16.2718 14.637 15.3603 14.6527C14.4462 14.6683 13.4768 14.3741 12.4923 13.6898C12.2656 13.5322 12.2095 13.2207 12.3671 12.9939C12.5247 12.7672 12.8363 12.7111 13.0631 12.8687C13.9005 13.4508 14.6679 13.6644 15.3432 13.6528C16.0209 13.6412 16.646 13.402 17.1941 13.0133C18.309 12.2227 19.0474 10.8543 19.1745 9.76845C19.2066 9.49418 19.455 9.29787 19.7293 9.32998Z" fill="#22202A"/>
<path fill-rule="evenodd" clip-rule="evenodd" d="M20.2766 12.1254C20.551 12.1563 20.7484 12.4038 20.7175 12.6782C20.6566 13.2196 20.4046 13.9078 20.0094 14.567C19.6111 15.2316 19.0441 15.9058 18.3185 16.3953C17.5873 16.8887 16.691 17.196 15.6617 17.1036C14.6363 17.0117 13.5316 16.5279 12.3693 15.5352C12.1593 15.3559 12.1345 15.0403 12.3138 14.8303C12.4932 14.6203 12.8088 14.5955 13.0188 14.7748C14.0667 15.6698 14.9826 16.0387 15.751 16.1076C16.5157 16.1762 17.1867 15.9526 17.7592 15.5664C18.3373 15.1763 18.8105 14.6222 19.1517 14.0529C19.4962 13.4782 19.6832 12.9269 19.7238 12.5663C19.7547 12.2919 20.0022 12.0945 20.2766 12.1254Z" fill="#22202A"/>
<path fill-rule="evenodd" clip-rule="evenodd" d="M20.4202 14.8467C20.6894 14.7853 20.9575 14.9538 21.0189 15.2231C21.497 17.3199 20.2914 19.1001 18.4011 19.4417C16.5229 19.7811 14.1999 18.6763 12.349 15.5915C12.2069 15.3547 12.2837 15.0475 12.5205 14.9055C12.7573 14.7634 13.0644 14.8402 13.2065 15.077C14.9397 17.9656 16.9117 18.6947 18.2233 18.4577C19.5229 18.2228 20.4021 17.0162 20.0439 15.4454C19.9825 15.1761 20.151 14.9081 20.4202 14.8467Z" fill="#22202A"/>
</svg>
