<svg width="24" height="24" viewBox="0 0 24 24" fill="none" xmlns="http://www.w3.org/2000/svg">
<path fill-rule="evenodd" clip-rule="evenodd" d="M12 3C6.75329 3 3 6.75329 3 12C3 17.2467 6.75329 21 12 21C17.2467 21 21 17.2467 21 12C21 6.75329 17.2467 3 12 3ZM2 12C2 6.20101 6.20101 2 12 2C17.799 2 22 6.20101 22 12C22 17.799 17.799 22 12 22C6.20101 22 2 17.799 2 12Z" fill="#22202A"/>
<path d="M12 10C10.8954 10 10 10.8954 10 12C10 13.1046 10.8954 14 12 14C13.1046 14 14 13.1046 14 12C14 10.8954 13.1046 10 12 10Z" fill="#22202A"/>
<path opacity="0.5" d="M8.75707 4.30201C8.6069 4.24858 8.4783 4.27807 8.41608 4.29815C8.38685 4.30758 8.36348 4.31779 8.35173 4.32307C8.34067 4.32803 8.32974 4.33328 8.32447 4.33581L8.32329 4.33638C6.88896 5.02451 5.67611 6.10159 4.82323 7.44551C3.97035 8.78944 3.51219 10.3455 3.50025 11.9363L3.50024 11.9376C3.5002 11.9434 3.5001 11.9555 3.50032 11.9677C3.50055 11.9806 3.50126 12.006 3.50517 12.0365C3.5135 12.1014 3.54157 12.2303 3.65385 12.3434C3.76648 12.4569 3.89562 12.4857 3.95993 12.4944C3.99029 12.4985 4.01572 12.4994 4.02858 12.4997C4.0407 12.5 4.05282 12.5 4.0587 12.5L9.0615 12.5C9.06417 12.5001 9.11233 12.5009 9.15945 12.4947C9.22115 12.4866 9.3491 12.4595 9.46224 12.3487C9.57648 12.2368 9.60556 12.1081 9.61465 12.048C9.62163 12.0018 9.6219 11.9542 9.62192 11.9505C9.63097 11.5164 9.75869 11.0927 9.99169 10.7255C10.2247 10.3584 10.5537 10.0624 10.9426 9.86939C10.946 9.86779 10.989 9.84726 11.0278 9.82126C11.0783 9.78748 11.1824 9.70635 11.235 9.55534C11.287 9.40579 11.2571 9.27849 11.2381 9.2192C11.2236 9.17377 11.2023 9.13042 11.2013 9.1283L9.07119 4.60167C9.0687 4.59636 9.06353 4.58536 9.05808 4.57451C9.05231 4.56301 9.04067 4.54038 9.02403 4.51466C8.98876 4.46018 8.9077 4.3556 8.75707 4.30201Z" fill="#22202A"/>
<path opacity="0.5" d="M15.2429 4.30201C15.3931 4.24858 15.5217 4.27807 15.5839 4.29815C15.6132 4.30758 15.6365 4.31779 15.6483 4.32307C15.6593 4.32803 15.6703 4.33328 15.6755 4.33581L15.6767 4.33638C17.1111 5.02451 18.3239 6.10159 19.1768 7.44551C20.0297 8.78944 20.4878 10.3455 20.4998 11.9363L20.4998 11.9376C20.4998 11.9434 20.4999 11.9556 20.4997 11.9677C20.4995 11.9806 20.4988 12.006 20.4948 12.0365C20.4865 12.1014 20.4584 12.2303 20.3462 12.3434C20.2335 12.4569 20.1044 12.4857 20.0401 12.4944C20.0097 12.4985 19.9843 12.4994 19.9714 12.4997C19.9593 12.5 19.9472 12.5 19.9413 12.5L14.9385 12.5C14.9358 12.5001 14.8877 12.5009 14.8406 12.4947C14.7789 12.4866 14.6509 12.4595 14.5378 12.3487C14.4235 12.2368 14.3944 12.1081 14.3854 12.048C14.3784 12.0018 14.3781 11.9542 14.3781 11.9505C14.369 11.5164 14.2413 11.0927 14.0083 10.7255C13.7753 10.3584 13.4463 10.0624 13.0574 9.86939C13.0541 9.86779 13.0111 9.84726 12.9722 9.82126C12.9218 9.78748 12.8177 9.70635 12.7651 9.55534C12.713 9.40579 12.743 9.27849 12.7619 9.2192C12.7764 9.17377 12.7977 9.13042 12.7987 9.1283L14.9288 4.60167C14.9313 4.59636 14.9365 4.58536 14.9419 4.57451C14.9477 4.56301 14.9593 4.54038 14.976 4.51466C15.0113 4.46018 15.0923 4.3556 15.2429 4.30201Z" fill="#22202A"/>
<path opacity="0.5" d="M12.0074 14.3786C12.4422 14.3772 12.868 14.2567 13.2387 14.0306C13.2419 14.0286 13.2822 14.0032 13.3248 13.9842C13.3803 13.9595 13.5044 13.9147 13.6602 13.9507C13.8145 13.9864 13.9062 14.0797 13.9463 14.1273C13.9769 14.1637 14.0022 14.2048 14.0035 14.2069L16.6966 18.4215C16.6994 18.4259 16.7065 18.4369 16.7132 18.4481C16.7199 18.4591 16.7328 18.4811 16.7457 18.5089C16.773 18.5677 16.8182 18.6921 16.7833 18.8481C16.7484 19.0036 16.6549 19.0967 16.6047 19.1386C16.5812 19.1583 16.5601 19.1726 16.5493 19.1798C16.5393 19.1865 16.529 19.1929 16.5241 19.196L16.5229 19.1967C15.176 20.0432 13.6181 20.495 12.0264 20.5C10.4347 20.5049 8.87401 20.0628 7.52184 19.2247L7.51484 19.2204C7.50948 19.217 7.50235 19.2125 7.49531 19.2079C7.48454 19.2008 7.46335 19.1866 7.43966 19.1671C7.38924 19.1255 7.29514 19.033 7.25931 18.8777C7.22336 18.7219 7.26784 18.5973 7.29476 18.5382C7.30747 18.5104 7.32027 18.4884 7.32685 18.4773C7.33307 18.4669 7.33956 18.4566 7.34268 18.4516L10.0101 14.2193C10.0114 14.2173 10.0364 14.176 10.0669 14.1393C10.1067 14.0915 10.1978 13.9977 10.3519 13.961C10.5074 13.924 10.6318 13.9681 10.6875 13.9924C10.7303 14.0111 10.7706 14.0362 10.7737 14.0382C11.1458 14.262 11.5725 14.3799 12.0074 14.3786Z" fill="#22202A"/>
</svg>
